<?xml version="1.0" encoding="utf-8"?>
<!-- Generator: Adobe Illustrator 27.5.0, SVG Export Plug-In . SVG Version: 6.00 Build 0)  -->
<svg version="1.1" id="_x2018_ëîé_x5F_1" xmlns="http://www.w3.org/2000/svg" xmlns:xlink="http://www.w3.org/1999/xlink"
	 x="0px" y="0px" viewBox="0 0 3200 2000" style="enable-background:new 0 0 3200 2000;" xml:space="preserve">
<rect style="fill:#FFFFFF;" width="3200" height="2000"/>
<g>
	<path style="opacity:0.5;fill:#F8FCFF;" d="M880.099,941.74c0,0,16.403-45.882,55.627-40.784c0,0,56.946-76.473,117.672-10.196
		c0,0,64.551-16.422,112.356,14.219c31.873,20.429,42.401,41.859,42.401,41.859L880.099,941.74z"/>
	<path style="opacity:0.5;fill:#F8FCFF;" d="M642.605,781.506c0,0,19.873-55.587,67.394-49.411c0,0,68.992-92.649,142.563-12.353
		c0,0,78.206-19.896,136.123,17.227c38.615,24.75,51.37,50.714,51.37,50.714L642.605,781.506z"/>
	<path style="opacity:0.5;fill:#F8FCFF;" d="M1308.421,733.824c0,0,26.382-48.677,89.469-43.268c0,0,91.591-81.131,189.262-10.817
		c0,0,103.823-17.422,180.712,15.084c51.264,21.673,68.196,44.409,68.196,44.409L1308.421,733.824z"/>
	<path style="fill:#DCEAFF;" d="M2901.711,1616.946c-1.882,8.017-3.996,16.253-6.354,24.489c-2.126,8.248-4.949,16.962-8.004,25.675
		c-1.418,4.228-3.067,8.48-4.473,12.708c-4.949,13.431-10.595,27.312-17.426,41.683c-2.126,4.705-4.24,9.654-6.599,14.372
		c-0.593,1.469-1.276,2.951-1.985,4.421c-0.425,0.876-0.876,1.753-1.314,2.629h-279.987l-81.947-0.219h-733.744l-103.678-0.116
		h-0.322l-109.234-0.129H980.662l-235.945-0.232H318.028c0,0-0.142-0.387-0.438-1.146c-0.077-0.232-0.167-0.49-0.284-0.786
		c-0.348-0.915-0.812-2.153-1.405-3.726l-0.232-0.464c0,0,0,0,0-0.231c0,0-0.232-0.245-0.232-0.478
		c-0.941-1.882-1.65-4.008-2.591-6.586c-0.477-1.186-0.941-2.604-1.649-4.009c0-0.231,0-0.231,0-0.477
		c-0.232-0.232-0.232-0.232-0.232-0.232c-3.235-8.403-7.244-19.346-11.871-32.57c-0.412-1.198-0.838-2.41-1.276-3.635
		c-3.467-9.988-7.282-21.176-11.342-33.498c-9.654-29.902-20.726-66.404-31.552-107.61c-4.24-16.253-8.481-33.202-12.489-50.872
		c-2.359-10.195-4.73-20.816-6.999-31.54c-0.658-3.145-1.302-6.289-1.946-9.435c-4.164-20.081-8.082-40.768-11.613-61.905
		c-4.653-27.763-8.649-56.3-11.69-85.273c-1.508-14.217-2.784-28.549-3.803-42.946c-0.025-0.373-0.064-0.761-0.077-1.134
		c-0.039-0.387-0.064-0.773-0.09-1.16c-1.392-20.287-2.268-40.717-2.526-61.133c-0.206-16.434-0.025-32.866,0.606-49.262
		c0.464-11.071,1.173-22.143,1.882-33.215c1.882-23.548,4.705-47.096,8.713-69.936c2.591-15.544,5.878-31.088,9.654-46.155
		c9.177-36.965,21.667-72.294,38.139-105.728c5.89-11.536,12.012-22.839,18.844-33.911c15.299-25.198,30.843-48.746,46.632-70.876
		h0.232c8.236-11.768,16.485-22.839,24.721-33.447c30.843-40.021,62.164-74.408,93.728-104.079
		c387.352-362.399,831.467-12.708,1106.286-255.962c268.67-237.595,771.43-241.126,996.304-21.898
		c4.24,4.241,8.713,8.481,12.953,13.186c36.412,38.641,64.497,83.766,81.742,135.308c13.289,39.686,20.146,83.173,19.411,130.424
		c-0.078,4.962-0.232,9.976-0.478,15.028c-1.044,21.55-3.621,43.848-7.875,66.894c-2.797,15.261-6.328,30.844-10.62,46.774
		c-10.363,38.151-24.953,77.952-44.261,120.099c-1.895,3.996-3.776,8.004-5.658,12.013
		c-61.455,128.568-10.827,205.566,66.648,275.978c47.792,43.565,105.496,84.539,153.533,133.518
		c6.354,6.586,12.477,13.185,18.6,20.017c2.346,2.719,4.652,5.438,6.934,8.197c6.419,7.746,12.593,15.66,18.496,23.818
		c2.99,4.228,5.877,8.52,8.661,12.89c8.223,12.876,15.531,26.383,21.705,40.639c4.292,9.938,8.03,20.248,11.149,30.946
		c3.969,13.623,6.921,27.904,8.674,42.92C2912.963,1538.774,2911.081,1575.599,2901.711,1616.946z"/>
	<path style="fill:#FFCF83;" d="M2175.907,1742.459h-851.174l-354.833-0.232H328.21c0,0-0.374-0.645-1.096-1.933
		c-0.515-0.915-1.211-2.153-2.114-3.726l-0.348-0.464c0,0,0,0,0-0.231c0,0-0.348-0.245-0.348-0.478
		c-1.418-1.882-2.475-4.008-3.893-6.586c-0.722-1.186-1.418-2.604-2.487-4.009c0-0.231,0-0.231,0-0.477
		c-0.348-0.232-0.348-0.232-0.348-0.232c-4.859-8.403-10.891-19.346-17.851-32.57c-0.632-1.198-1.263-2.41-1.908-3.635
		c-3.467-9.988-7.282-21.176-11.342-33.498c-9.654-29.902-20.726-66.404-31.552-107.61c-4.24-16.253-8.481-33.202-12.489-50.872
		c-2.359-10.195-4.73-20.816-6.999-31.54c-0.658-3.145-1.302-6.289-1.946-9.435c-4.164-20.081-8.082-40.768-11.613-61.905
		c-6.934-41.387-12.412-84.513-15.493-128.22c275.618,14.204,806.914,51.595,1206.549,140.851
		c563.905,125.938,703.261,146.277,942.145,168.871C2488.762,1587.173,2336.221,1671.041,2175.907,1742.459z"/>
	<g>
		<polygon style="fill:#ADC8FE;" points="1693.13,1192.283 1673.147,1583.119 1693.13,1583.119 1702.122,1192.283 		"/>
		<polygon style="fill:#ADC8FE;" points="1694.715,1156.895 1699.791,1180.96 1790.711,1073.055 		"/>
		<polygon style="fill:#ADC8FE;" points="1727.388,1185.789 1702.86,1183.957 1781.15,1301.348 		"/>
		<polygon style="fill:#ADC8FE;" points="1677.238,1204.975 1691.478,1184.92 1550.52,1191.309 		"/>
		
			<ellipse transform="matrix(0.9239 -0.3827 0.3827 0.9239 -323.9011 739.5558)" style="fill:#ADC8FE;" cx="1697.046" cy="1183.957" rx="10.99" ry="10.99"/>
	</g>
	<path style="fill:#F7C274;" d="M1633.632,1527.92c0,0-729.46-200.021-959.423-220.167s-9.666,26.938-9.666,26.938
		s624.269,164.226,770.314,231.939C1580.902,1634.345,1633.632,1527.92,1633.632,1527.92z"/>
	<path style="fill:#F7C274;" d="M1411.17,1687.518c0,0-630.723-302.623-836.692-359.432c-205.97-56.809-13.277,22.602-13.277,22.602
		s540.925,252.73,662.603,338.202C1345.482,1774.361,1411.17,1687.518,1411.17,1687.518z"/>
	<g>
		<polygon style="fill:#ADC8FE;" points="1181.457,1265.46 1165.101,1585.369 1181.457,1585.369 1188.817,1265.46 		"/>
		<polygon style="fill:#ADC8FE;" points="1182.753,1236.493 1186.909,1256.191 1261.329,1167.869 		"/>
		<polygon style="fill:#ADC8FE;" points="1209.497,1260.145 1189.421,1258.645 1253.503,1354.732 		"/>
		<polygon style="fill:#ADC8FE;" points="1168.449,1275.848 1180.104,1259.434 1064.727,1264.662 		"/>
		<path style="fill:#ADC8FE;" d="M1175.666,1258.645c0-4.968,4.027-8.996,8.996-8.996s8.996,4.028,8.996,8.996
			c0,4.969-4.028,8.996-8.996,8.996S1175.666,1263.613,1175.666,1258.645z"/>
	</g>
	<g>
		<path style="fill:#82B378;" d="M2909.045,1505.56c-1.495,19.501-3.918,39.775-7.334,60.9c-0.077,0.478-0.154,0.941-0.245,1.431
			c-1.817,10.788-3.854,21.847-6.109,32.906c-2.126,11.561-4.949,23.767-8.004,35.985c-1.418,5.929-3.067,11.884-4.473,17.813
			c-4.949,18.831-10.595,38.28-17.426,58.426c-2.126,6.6-4.24,13.533-6.599,20.146c-0.593,2.063-1.276,4.138-1.985,6.199H317.306
			c-0.348-1.289-0.812-3.016-1.405-5.22l-0.232-0.657c0,0,0,0,0-0.322c0,0-0.232-0.348-0.232-0.67
			c-0.941-2.63-1.65-5.62-2.591-9.229c-0.477-1.663-0.941-3.647-1.649-5.62c0-0.322,0-0.322,0-0.67
			c-0.232-0.322-0.232-0.322-0.232-0.322c-3.235-11.78-7.244-27.118-11.871-45.653c-3.815-15.272-8.056-32.673-12.618-52.058
			c-9.654-41.915-20.726-93.071-31.552-150.84c-4.24-22.775-8.481-46.542-12.489-71.302c-2.359-14.294-4.73-29.181-6.999-44.209
			c232.787,88.431,831.454,287.153,1258.994,176.024c76.832-19.965,161.602-37.842,250.549-53.824
			c19.874-3.583,39.969-7.063,60.217-10.44c230.622-38.59,482.756-65.334,694.045-83.766h0.051c2.437-0.206,4.859-0.425,7.296-0.631
			c2.385-0.206,4.756-0.413,7.141-0.619c2.887-0.244,5.774-0.502,8.648-0.747c5.98-0.503,11.922-1.019,17.838-1.509
			c0.773-0.064,1.534-0.129,2.308-0.192c4.537-0.387,9.048-0.761,13.546-1.135c16.602-1.392,32.893-2.72,48.837-3.995
			c3.583-0.284,7.166-0.567,10.71-0.852c3.944-0.322,7.862-0.631,11.742-0.94c5.246-0.412,10.453-0.812,15.621-1.225
			c3.196-0.244,6.368-0.489,9.525-0.734c5.646-0.438,11.252-0.863,16.794-1.289c2.732-0.206,5.439-0.412,8.146-0.618
			c3.725-0.284,7.424-0.555,11.097-0.838c0.297-0.026,0.593-0.052,0.902-0.064c6.02-0.451,11.974-0.902,17.864-1.341
			c1.869-0.142,3.75-0.271,5.607-0.412c0.103-0.013,0.18-0.013,0.244-0.026c0.09-0.013,0.142-0.013,0.142-0.013
			c47.651-3.531,90.442-6.521,127.06-9.061c6.419,7.746,12.593,15.66,18.496,23.818c2.99,4.228,5.877,8.52,8.661,12.89
			c8.223,12.876,15.531,26.383,21.705,40.639c4.292,9.938,8.03,20.248,11.149,30.946
			C2904.34,1476.263,2907.292,1490.544,2909.045,1505.56z"/>
		<path style="fill:#6E9E63;" d="M1805.195,1464.351c-60.347,33.93-190.46,120.776-270.411,275.014
			c-0.567,1.066-1.122,2.15-1.675,3.234l-60.785-3.234l-19.011-1.012c1.83-5.149,86.614-133.677,291.665-263.56
			C1764.853,1471.216,1784.947,1467.729,1805.195,1464.351z"/>
		<path style="fill:#6E9E63;" d="M1580.785,1738.574c1.934-5.422,100.529-155.404,344.118-291.122l19.173,14.993
			c0,0-187.365,82.339-287.895,280.161L1580.785,1738.574z"/>
		<path style="fill:#6E9E63;" d="M1756.889,1738.574c1.933-5.422,100.528-155.404,344.118-291.122l19.172,14.993
			c0,0-187.364,82.339-287.894,280.161L1756.889,1738.574z"/>
		<path style="fill:#6E9E63;" d="M2713.3,1363.411c0,0-341.3,34.725-554.432,254.291l-134.471-38.536
			c3.713-5.421,149.706-119.17,474.843-198.573h0.051C2577.219,1373.8,2649.603,1368.127,2713.3,1363.411L2713.3,1363.411z"/>
		<path style="fill:#6E9E63;" d="M2889.222,1431.693c-153.314,37.017-398.746,121.839-582.272,307.672h-117.495l-86.344-24.991
			c5.478-8.468,239.478-204.252,764.406-323.319C2875.739,1403.931,2883.048,1417.438,2889.222,1431.693z"/>
	</g>
	<g>
		<g>
			<path style="fill:#6E9E63;" d="M1664.955,1735.861l1.753-0.449c-0.703-3.127-2.452-66.049,17.288-102.739l-1.594-0.856
				C1662.398,1668.994,1664.281,1733.275,1664.955,1735.861z"/>
		</g>
		<g>
			<g>
				<path style="fill:#FFCF83;" d="M1687.38,1598.967c0,0,6.214,13.034,2.429,18.874
					C1686.024,1623.681,1682.903,1607.015,1687.38,1598.967z"/>
				<path style="fill:#FFCF83;" d="M1691.254,1653.958c0,0-6.213-13.035-2.429-18.875S1695.73,1645.909,1691.254,1653.958z"/>
			</g>
			<g>
				<path style="fill:#FFCF83;" d="M1674.937,1602.947c0,0,11.518,8.709,10.848,15.636
					C1685.113,1625.509,1674.669,1612.152,1674.937,1602.947z"/>
				<path style="fill:#FFCF83;" d="M1703.698,1649.977c0,0-11.519-8.709-10.848-15.636
					C1693.521,1627.415,1703.966,1640.771,1703.698,1649.977z"/>
			</g>
			<g>
				<path style="fill:#FFCF83;" d="M1665.831,1612.322c0,0,14.216,2.534,16.762,9.01
					C1685.139,1627.809,1669.77,1620.646,1665.831,1612.322z"/>
				<path style="fill:#FFCF83;" d="M1712.804,1641.177c0,0-14.217-2.533-16.763-9.01
					C1693.495,1625.691,1708.864,1632.853,1712.804,1641.177z"/>
			</g>
			<g>
				<path style="fill:#FFCF83;" d="M1662.886,1635.176c0,0,11.389-8.878,17.907-6.441
					C1687.311,1631.171,1671.71,1637.812,1662.886,1635.176z"/>
				<path style="fill:#FFCF83;" d="M1716.817,1624.152c0,0-12.744,6.791-18.747,3.271S1708.576,1620.04,1716.817,1624.152z"/>
			</g>
			<g>
				<path style="fill:#FFCF83;" d="M1669.165,1645.097c0,0,7.081-12.585,14.034-12.853S1678.322,1644.124,1669.165,1645.097z"/>
				<path style="fill:#FFCF83;" d="M1711.898,1610.271c0,0-7.081,12.585-14.035,12.853
					C1690.91,1623.391,1702.74,1611.243,1711.898,1610.271z"/>
			</g>
			<g>
				<path style="fill:#FFCF83;" d="M1678.485,1652.516c0,0,0.931-14.41,7.082-17.663S1686.317,1647.672,1678.485,1652.516z"/>
				<path style="fill:#FFCF83;" d="M1701.915,1602.615c0,0-0.931,14.41-7.082,17.663S1694.083,1607.459,1701.915,1602.615z"/>
			</g>
			<path style="fill:#FFCF83;" d="M1662.155,1625.877c0,0,13.489-5.152,19.008-0.913S1669.819,1630.982,1662.155,1625.877z"/>
			<path style="fill:#365DA4;" d="M1699.368,1626.75c0-5.551-4.5-10.051-10.051-10.051c-5.552,0-10.052,4.5-10.052,10.051
				s4.5,10.051,10.052,10.051C1694.868,1636.801,1699.368,1632.301,1699.368,1626.75z"/>
		</g>
		<path style="fill:#6E9E63;" d="M1668.416,1677.915c0,0,8.744-8.896,20.806-9.499c12.062-0.603,15.77,0,15.77,0
			s-7.421,7.841-16.27,9.499C1679.874,1679.574,1668.416,1677.915,1668.416,1677.915z"/>
		<path style="fill:#6E9E63;" d="M1670.226,1669.282c-1.525-1.33-2.675-12.174-12.022-14.888s-15.981-3.236-15.981-3.236
			s8.102,14.092,14.002,16.203C1662.123,1669.472,1670.226,1669.282,1670.226,1669.282z"/>
		<g>
			<path style="fill:#6E9E63;" d="M1617.71,1735.861l2.063-0.528c-0.828-3.68-2.886-77.729,20.345-120.907l-1.875-1.009
				C1614.701,1657.17,1616.916,1732.817,1617.71,1735.861z"/>
		</g>
		<g>
			<g>
				<path style="fill:#FFCF83;" d="M1644.1,1574.759c0,0,7.313,15.34,2.858,22.212
					C1642.505,1603.844,1638.831,1584.23,1644.1,1574.759z"/>
				<path style="fill:#FFCF83;" d="M1648.659,1639.475c0,0-7.313-15.34-2.858-22.213
					C1650.254,1610.39,1653.927,1630.003,1648.659,1639.475z"/>
			</g>
			<g>
				<path style="fill:#FFCF83;" d="M1629.455,1579.443c0,0,13.556,10.25,12.767,18.4
					C1641.433,1605.995,1629.141,1590.276,1629.455,1579.443z"/>
				<path style="fill:#FFCF83;" d="M1663.303,1634.79c0,0-13.555-10.25-12.766-18.401
					C1651.326,1608.238,1663.618,1623.957,1663.303,1634.79z"/>
			</g>
			<g>
				<path style="fill:#FFCF83;" d="M1618.739,1590.477c0,0,16.73,2.981,19.727,10.604
					C1641.463,1608.701,1623.376,1600.273,1618.739,1590.477z"/>
				<path style="fill:#FFCF83;" d="M1674.019,1624.434c0,0-16.729-2.981-19.726-10.603
					C1651.296,1606.209,1669.383,1614.638,1674.019,1624.434z"/>
			</g>
			<g>
				<path style="fill:#FFCF83;" d="M1615.274,1617.371c0,0,13.402-10.447,21.073-7.58S1625.658,1620.474,1615.274,1617.371z"/>
				<path style="fill:#FFCF83;" d="M1678.742,1604.398c0,0-14.997,7.991-22.063,3.85
					C1649.615,1604.106,1669.045,1599.56,1678.742,1604.398z"/>
			</g>
			<g>
				<path style="fill:#FFCF83;" d="M1622.663,1629.047c0,0,8.333-14.811,16.517-15.125
					C1647.362,1613.607,1633.44,1627.901,1622.663,1629.047z"/>
				<path style="fill:#FFCF83;" d="M1672.953,1588.062c0,0-8.333,14.811-16.516,15.125
					C1648.254,1603.502,1662.176,1589.207,1672.953,1588.062z"/>
			</g>
			<g>
				<path style="fill:#FFCF83;" d="M1633.632,1637.777c0,0,1.095-16.958,8.335-20.787
					C1649.205,1613.162,1642.85,1632.077,1633.632,1637.777z"/>
				<path style="fill:#FFCF83;" d="M1661.205,1579.053c0,0-1.095,16.959-8.334,20.787S1651.988,1584.753,1661.205,1579.053z"/>
			</g>
			<path style="fill:#FFCF83;" d="M1614.414,1606.429c0,0,15.875-6.063,22.37-1.075
				C1643.278,1610.343,1623.435,1612.437,1614.414,1606.429z"/>
			<path style="fill:#365DA4;" d="M1658.208,1607.455c0-6.532-5.296-11.828-11.829-11.828c-6.532,0-11.828,5.296-11.828,11.828
				c0,6.533,5.296,11.828,11.828,11.828C1652.912,1619.283,1658.208,1613.988,1658.208,1607.455z"/>
		</g>
		<path style="fill:#6E9E63;" d="M1618.469,1697.532c0,0,10.29-10.469,24.484-11.179c14.195-0.709,18.559,0,18.559,0
			s-8.733,9.228-19.146,11.179C1631.952,1699.484,1618.469,1697.532,1618.469,1697.532z"/>
		<path style="fill:#6E9E63;" d="M1620.598,1687.373c-1.795-1.564-3.146-14.327-14.147-17.521
			c-11.001-3.194-18.808-3.808-18.808-3.808s9.534,16.583,16.478,19.067C1611.063,1687.596,1620.598,1687.373,1620.598,1687.373z"/>
		<g>
			<path style="fill:#6E9E63;" d="M1674.706,1735.861l1.238-0.317c-0.497-2.207-1.732-46.639,12.207-72.546l-1.125-0.605
				C1672.901,1688.646,1674.23,1734.035,1674.706,1735.861z"/>
		</g>
		<g>
			<g>
				<path style="fill:#FFCF83;" d="M1690.541,1639.197c0,0,4.388,9.204,1.715,13.327
					C1689.584,1656.648,1687.38,1644.88,1690.541,1639.197z"/>
				<path style="fill:#FFCF83;" d="M1693.276,1678.027c0,0-4.388-9.204-1.715-13.328
					C1694.233,1660.576,1696.438,1672.345,1693.276,1678.027z"/>
			</g>
			<g>
				<path style="fill:#FFCF83;" d="M1681.754,1642.008c0,0,8.133,6.149,7.66,11.041
					C1688.94,1657.939,1681.565,1648.508,1681.754,1642.008z"/>
				<path style="fill:#FFCF83;" d="M1702.063,1675.217c0,0-8.134-6.15-7.66-11.041S1702.252,1668.717,1702.063,1675.217z"/>
			</g>
			<g>
				<path style="fill:#FFCF83;" d="M1675.324,1648.628c0,0,10.039,1.789,11.836,6.362
					C1688.959,1659.563,1678.106,1654.506,1675.324,1648.628z"/>
				<path style="fill:#FFCF83;" d="M1708.493,1669.003c0,0-10.038-1.789-11.837-6.362
					C1694.859,1658.067,1705.711,1663.125,1708.493,1669.003z"/>
			</g>
			<g>
				<path style="fill:#FFCF83;" d="M1673.245,1664.765c0,0,8.042-6.269,12.645-4.548S1679.476,1666.626,1673.245,1664.765z"/>
				<path style="fill:#FFCF83;" d="M1711.327,1656.981c0,0-8.999,4.795-13.237,2.31
					C1693.851,1656.807,1705.508,1654.078,1711.327,1656.981z"/>
			</g>
			<g>
				<path style="fill:#FFCF83;" d="M1677.679,1671.771c0,0,5-8.887,9.91-9.075
					C1692.499,1662.506,1684.145,1671.084,1677.679,1671.771z"/>
				<path style="fill:#FFCF83;" d="M1707.854,1647.179c0,0-5,8.887-9.91,9.075
					C1693.033,1656.443,1701.387,1647.866,1707.854,1647.179z"/>
			</g>
			<g>
				<path style="fill:#FFCF83;" d="M1684.26,1677.009c0,0,0.657-10.175,5.001-12.472
					C1693.604,1662.239,1689.791,1673.589,1684.26,1677.009z"/>
				<path style="fill:#FFCF83;" d="M1700.805,1641.773c0,0-0.657,10.175-5.001,12.473
					C1691.46,1656.543,1695.273,1645.193,1700.805,1641.773z"/>
			</g>
			<path style="fill:#FFCF83;" d="M1672.729,1658.199c0,0,9.525-3.639,13.422-0.645
				C1690.048,1660.548,1678.141,1661.804,1672.729,1658.199z"/>
			<path style="fill:#365DA4;" d="M1699.006,1658.815c0-3.92-3.178-7.098-7.098-7.098c-3.919,0-7.097,3.178-7.097,7.098
				s3.178,7.097,7.097,7.097C1695.828,1665.912,1699.006,1662.735,1699.006,1658.815z"/>
		</g>
		<path style="fill:#6E9E63;" d="M1675.162,1712.863c0,0,6.174-6.281,14.691-6.707c8.517-0.426,11.135,0,11.135,0
			s-5.24,5.536-11.488,6.707S1675.162,1712.863,1675.162,1712.863z"/>
		<path style="fill:#6E9E63;" d="M1676.439,1706.768c-1.077-0.939-1.889-8.597-8.489-10.513s-11.285-2.285-11.285-2.285
			s5.721,9.95,9.887,11.441C1670.719,1706.901,1676.439,1706.768,1676.439,1706.768z"/>
		<g>
			<path style="fill:#6E9E63;" d="M1743.444,1735.861l2.063-0.528c-0.827-3.68-2.886-77.729,20.346-120.907l-1.876-1.009
				C1740.436,1657.17,1742.651,1732.817,1743.444,1735.861z"/>
		</g>
		<g>
			<g>
				<path style="fill:#FFCF83;" d="M1769.834,1574.759c0,0,7.313,15.34,2.859,22.212
					C1768.239,1603.844,1764.566,1584.23,1769.834,1574.759z"/>
				<path style="fill:#FFCF83;" d="M1774.395,1639.475c0,0-7.313-15.34-2.859-22.213
					C1775.989,1610.39,1779.662,1630.003,1774.395,1639.475z"/>
			</g>
			<g>
				<path style="fill:#FFCF83;" d="M1755.19,1579.443c0,0,13.555,10.25,12.766,18.4
					C1767.168,1605.995,1754.875,1590.276,1755.19,1579.443z"/>
				<path style="fill:#FFCF83;" d="M1789.038,1634.79c0,0-13.555-10.25-12.766-18.401
					C1777.061,1608.238,1789.354,1623.957,1789.038,1634.79z"/>
			</g>
			<g>
				<path style="fill:#FFCF83;" d="M1744.475,1590.477c0,0,16.73,2.981,19.727,10.604
					C1767.197,1608.701,1749.11,1600.273,1744.475,1590.477z"/>
				<path style="fill:#FFCF83;" d="M1799.754,1624.434c0,0-16.73-2.981-19.727-10.603
					C1777.031,1606.209,1795.118,1614.638,1799.754,1624.434z"/>
			</g>
			<g>
				<path style="fill:#FFCF83;" d="M1741.009,1617.371c0,0,13.403-10.447,21.073-7.58
					C1769.753,1612.658,1751.394,1620.474,1741.009,1617.371z"/>
				<path style="fill:#FFCF83;" d="M1804.478,1604.398c0,0-14.998,7.991-22.063,3.85S1794.779,1599.56,1804.478,1604.398z"/>
			</g>
			<g>
				<path style="fill:#FFCF83;" d="M1748.398,1629.047c0,0,8.333-14.811,16.516-15.125
					C1773.098,1613.607,1759.176,1627.901,1748.398,1629.047z"/>
				<path style="fill:#FFCF83;" d="M1798.688,1588.062c0,0-8.333,14.811-16.517,15.125
					C1773.989,1603.502,1787.911,1589.207,1798.688,1588.062z"/>
			</g>
			<g>
				<path style="fill:#FFCF83;" d="M1759.367,1637.777c0,0,1.095-16.958,8.334-20.787
					C1774.94,1613.162,1768.584,1632.077,1759.367,1637.777z"/>
				<path style="fill:#FFCF83;" d="M1786.94,1579.053c0,0-1.096,16.959-8.335,20.787S1777.723,1584.753,1786.94,1579.053z"/>
			</g>
			<path style="fill:#FFCF83;" d="M1740.149,1606.429c0,0,15.875-6.063,22.369-1.075
				C1769.014,1610.343,1749.169,1612.437,1740.149,1606.429z"/>
			<circle style="fill:#365DA4;" cx="1772.114" cy="1607.455" r="11.828"/>
		</g>
		<path style="fill:#6E9E63;" d="M1747.518,1667.668c0,0,10.29-10.469,24.484-11.178c14.194-0.71,18.559,0,18.559,0
			s-8.733,9.227-19.146,11.178C1761.001,1669.62,1747.518,1667.668,1747.518,1667.668z"/>
		<path style="fill:#6E9E63;" d="M1749.646,1657.509c-1.795-1.564-3.146-14.326-14.147-17.521
			c-11.001-3.193-18.809-3.808-18.809-3.808s9.534,16.583,16.478,19.067C1740.112,1657.732,1749.646,1657.509,1749.646,1657.509z"/>
		<g>
			<path style="fill:#6E9E63;" d="M1705.369,1735.861l2.063-0.572c-0.828-3.98-2.887-84.096,20.345-130.811l-1.875-1.091
				C1702.361,1650.725,1704.576,1732.568,1705.369,1735.861z"/>
		</g>
		<g>
			<g>
				<path style="fill:#FFCF83;" d="M1731.76,1561.563c0,0,7.313,16.597,2.858,24.031
					C1730.164,1593.029,1726.491,1571.81,1731.76,1561.563z"/>
				<path style="fill:#FFCF83;" d="M1736.319,1631.579c0,0-7.313-16.597-2.859-24.032
					C1737.914,1600.112,1741.587,1621.332,1736.319,1631.579z"/>
			</g>
			<g>
				<path style="fill:#FFCF83;" d="M1717.115,1566.631c0,0,13.555,11.089,12.767,19.908
					C1729.093,1595.357,1716.801,1578.352,1717.115,1566.631z"/>
				<path style="fill:#FFCF83;" d="M1750.963,1626.511c0,0-13.555-11.089-12.766-19.908
					C1738.986,1597.784,1751.278,1614.79,1750.963,1626.511z"/>
			</g>
			<g>
				<path style="fill:#FFCF83;" d="M1706.399,1578.567c0,0,16.73,3.226,19.727,11.472S1711.035,1589.166,1706.399,1578.567z"/>
				<path style="fill:#FFCF83;" d="M1761.679,1615.307c0,0-16.729-3.227-19.727-11.472
					C1738.956,1595.589,1757.043,1604.708,1761.679,1615.307z"/>
			</g>
			<g>
				<path style="fill:#FFCF83;" d="M1702.934,1607.665c0,0,13.403-11.304,21.074-8.201S1713.318,1611.021,1702.934,1607.665z"/>
				<path style="fill:#FFCF83;" d="M1766.402,1593.63c0,0-14.997,8.646-22.063,4.165
					C1737.275,1593.314,1756.705,1588.395,1766.402,1593.63z"/>
			</g>
			<g>
				<path style="fill:#FFCF83;" d="M1710.323,1620.297c0,0,8.333-16.023,16.517-16.363
					C1735.022,1603.593,1721.101,1619.059,1710.323,1620.297z"/>
				<path style="fill:#FFCF83;" d="M1760.613,1575.955c0,0-8.333,16.023-16.516,16.364
					C1735.914,1592.659,1749.836,1577.193,1760.613,1575.955z"/>
			</g>
			<g>
				<path style="fill:#FFCF83;" d="M1721.292,1629.743c0,0,1.095-18.348,8.334-22.489
					C1736.865,1603.111,1730.51,1623.575,1721.292,1629.743z"/>
				<path style="fill:#FFCF83;" d="M1748.865,1566.208c0,0-1.096,18.348-8.334,22.489
					C1733.291,1592.84,1739.647,1572.375,1748.865,1566.208z"/>
			</g>
			<path style="fill:#FFCF83;" d="M1702.074,1595.826c0,0,15.875-6.561,22.369-1.163
				C1730.938,1600.061,1711.094,1602.326,1702.074,1595.826z"/>
			<path style="fill:#365DA4;" d="M1745.868,1596.938c0-7.068-5.296-12.798-11.829-12.798c-6.532,0-11.828,5.729-11.828,12.798
				c0,7.067,5.296,12.797,11.828,12.797C1740.572,1609.734,1745.868,1604.005,1745.868,1596.938z"/>
		</g>
		<path style="fill:#6E9E63;" d="M1706.129,1694.393c0,0,10.29-11.326,24.484-12.094c14.195-0.769,18.559,0,18.559,0
			s-8.733,9.982-19.146,12.094S1706.129,1694.393,1706.129,1694.393z"/>
		<path style="fill:#6E9E63;" d="M1708.258,1683.4c-1.795-1.692-3.146-15.5-14.147-18.955s-18.809-4.12-18.809-4.12
			s9.534,17.942,16.479,20.63C1698.724,1683.643,1708.258,1683.4,1708.258,1683.4z"/>
		<g>
			<path style="fill:#6E9E63;" d="M1754.92,1735.861l1.456-0.373c-0.584-2.599-2.038-54.887,14.366-85.375l-1.324-0.712
				C1752.795,1680.296,1754.359,1733.712,1754.92,1735.861z"/>
		</g>
		<g>
			<g>
				<path style="fill:#FFCF83;" d="M1773.555,1622.104c0,0,5.163,10.832,2.019,15.685
					C1772.428,1642.641,1769.834,1628.791,1773.555,1622.104z"/>
				<path style="fill:#FFCF83;" d="M1776.773,1667.801c0,0-5.163-10.832-2.019-15.685
					C1777.9,1647.264,1780.494,1661.112,1776.773,1667.801z"/>
			</g>
			<g>
				<path style="fill:#FFCF83;" d="M1763.214,1625.411c0,0,9.571,7.237,9.015,12.993
					C1771.671,1644.16,1762.991,1633.061,1763.214,1625.411z"/>
				<path style="fill:#FFCF83;" d="M1787.114,1664.492c0,0-9.571-7.237-9.015-12.993
					C1778.657,1645.744,1787.337,1656.843,1787.114,1664.492z"/>
			</g>
			<g>
				<path style="fill:#FFCF83;" d="M1755.647,1633.202c0,0,11.813,2.105,13.929,7.487
					C1771.692,1646.07,1758.921,1640.119,1755.647,1633.202z"/>
				<path style="fill:#FFCF83;" d="M1794.682,1657.18c0,0-11.814-2.105-13.93-7.486
					C1778.636,1644.312,1791.407,1650.263,1794.682,1657.18z"/>
			</g>
			<g>
				<path style="fill:#FFCF83;" d="M1753.2,1652.192c0,0,9.464-7.377,14.88-5.353
					C1773.497,1648.865,1760.532,1654.383,1753.2,1652.192z"/>
				<path style="fill:#FFCF83;" d="M1798.017,1643.032c0,0-10.59,5.644-15.579,2.719
					C1777.449,1642.826,1791.169,1639.615,1798.017,1643.032z"/>
			</g>
			<g>
				<path style="fill:#FFCF83;" d="M1758.418,1660.438c0,0,5.884-10.458,11.662-10.681
					C1775.858,1649.535,1766.027,1659.629,1758.418,1660.438z"/>
				<path style="fill:#FFCF83;" d="M1793.929,1631.497c0,0-5.884,10.458-11.663,10.68
					C1776.488,1642.399,1786.318,1632.306,1793.929,1631.497z"/>
			</g>
			<g>
				<path style="fill:#FFCF83;" d="M1766.163,1666.602c0,0,0.773-11.975,5.885-14.678
					C1777.16,1649.221,1772.672,1662.577,1766.163,1666.602z"/>
				<path style="fill:#FFCF83;" d="M1785.633,1625.136c0,0-0.773,11.975-5.885,14.678
					C1774.636,1642.517,1779.124,1629.16,1785.633,1625.136z"/>
			</g>
			<path style="fill:#FFCF83;" d="M1752.593,1644.466c0,0,11.21-4.281,15.796-0.759S1758.962,1648.708,1752.593,1644.466z"/>
			<path style="fill:#365DA4;" d="M1783.517,1645.191c0-4.613-3.739-8.353-8.353-8.353s-8.353,3.739-8.353,8.353
				c0,4.612,3.739,8.352,8.353,8.352S1783.517,1649.804,1783.517,1645.191z"/>
		</g>
		<path style="fill:#6E9E63;" d="M1755.456,1708.797c0,0,7.266-7.393,17.289-7.894s13.104,0,13.104,0s-6.167,6.515-13.52,7.894
			C1764.977,1710.175,1755.456,1708.797,1755.456,1708.797z"/>
		<path style="fill:#6E9E63;" d="M1756.959,1701.622c-1.268-1.104-2.222-10.116-9.99-12.371c-7.768-2.255-13.28-2.688-13.28-2.688
			s6.732,11.71,11.636,13.464C1750.227,1701.78,1756.959,1701.622,1756.959,1701.622z"/>
		<g>
			<path style="fill:#6E9E63;" d="M1808.179,1735.861l1.049-0.269c-0.421-1.87-1.468-39.517,10.343-61.469l-0.953-0.513
				C1806.649,1695.855,1807.775,1734.314,1808.179,1735.861z"/>
		</g>
		<g>
			<g>
				<path style="fill:#FFCF83;" d="M1821.596,1653.958c0,0,3.717,7.798,1.453,11.292
					C1820.784,1668.744,1818.917,1658.772,1821.596,1653.958z"/>
				<path style="fill:#FFCF83;" d="M1823.913,1686.858c0,0-3.718-7.799-1.453-11.292
					C1824.724,1672.072,1826.592,1682.043,1823.913,1686.858z"/>
			</g>
			<g>
				<path style="fill:#FFCF83;" d="M1814.15,1656.339c0,0,6.891,5.211,6.49,9.355
					C1820.239,1669.838,1813.99,1661.847,1814.15,1656.339z"/>
				<path style="fill:#FFCF83;" d="M1831.358,1684.477c0,0-6.892-5.21-6.49-9.354
					C1825.27,1670.979,1831.519,1678.97,1831.358,1684.477z"/>
			</g>
			<g>
				<path style="fill:#FFCF83;" d="M1808.702,1661.948c0,0,8.506,1.517,10.029,5.391
					C1820.254,1671.214,1811.06,1666.929,1808.702,1661.948z"/>
				<path style="fill:#FFCF83;" d="M1836.806,1679.212c0,0-8.505-1.516-10.028-5.391
					C1825.254,1669.947,1834.449,1674.231,1836.806,1679.212z"/>
			</g>
			<g>
				<path style="fill:#FFCF83;" d="M1806.94,1675.621c0,0,6.813-5.312,10.714-3.854
					C1821.554,1673.226,1812.22,1677.198,1806.94,1675.621z"/>
				<path style="fill:#FFCF83;" d="M1839.207,1669.026c0,0-7.624,4.063-11.216,1.957S1834.277,1666.566,1839.207,1669.026z"/>
			</g>
			<g>
				<path style="fill:#FFCF83;" d="M1810.697,1681.558c0,0,4.236-7.53,8.396-7.689
					C1823.254,1673.708,1816.176,1680.976,1810.697,1681.558z"/>
				<path style="fill:#FFCF83;" d="M1836.265,1660.721c0,0-4.236,7.529-8.397,7.689
					C1823.707,1668.57,1830.785,1661.303,1836.265,1660.721z"/>
			</g>
			<g>
				<path style="fill:#FFCF83;" d="M1816.273,1685.996c0,0,0.557-8.622,4.237-10.568S1820.96,1683.098,1816.273,1685.996z"/>
				<path style="fill:#FFCF83;" d="M1830.291,1656.141c0,0-0.557,8.621-4.236,10.568
					C1822.374,1668.655,1825.605,1659.039,1830.291,1656.141z"/>
			</g>
			<path style="fill:#FFCF83;" d="M1806.503,1670.059c0,0,8.071-3.083,11.373-0.547S1811.089,1673.112,1806.503,1670.059z"/>
			<circle style="fill:#365DA4;" cx="1822.754" cy="1670.58" r="6.014"/>
		</g>
		<path style="fill:#6E9E63;" d="M1810.249,1701.192c0,0,5.231-5.322,12.448-5.683c7.217-0.361,9.435,0,9.435,0
			s-4.439,4.69-9.733,5.683S1810.249,1701.192,1810.249,1701.192z"/>
		<path style="fill:#6E9E63;" d="M1811.332,1696.027c-0.913-0.796-1.601-7.283-7.193-8.907s-9.562-1.937-9.562-1.937
			s4.847,8.432,8.377,9.694S1811.332,1696.027,1811.332,1696.027z"/>
		<g>
			<path style="fill:#6E9E63;" d="M1779.911,1735.861l1.234-0.316c-0.495-2.201-1.727-46.505,12.173-72.338l-1.122-0.604
				C1778.111,1688.781,1779.438,1734.041,1779.911,1735.861z"/>
		</g>
		<g>
			<g>
				<path style="fill:#FFCF83;" d="M1795.7,1639.475c0,0,4.375,9.178,1.711,13.289
					C1794.746,1656.875,1792.549,1645.141,1795.7,1639.475z"/>
				<path style="fill:#FFCF83;" d="M1798.429,1678.193c0,0-4.375-9.178-1.711-13.289
					C1799.383,1660.792,1801.58,1672.527,1798.429,1678.193z"/>
			</g>
			<g>
				<path style="fill:#FFCF83;" d="M1786.939,1642.277c0,0,8.109,6.132,7.638,11.009S1786.751,1648.759,1786.939,1642.277z"/>
				<path style="fill:#FFCF83;" d="M1807.189,1675.391c0,0-8.109-6.132-7.637-11.009
					C1800.024,1659.505,1807.378,1668.909,1807.189,1675.391z"/>
			</g>
			<g>
				<path style="fill:#FFCF83;" d="M1780.528,1648.878c0,0,10.009,1.784,11.802,6.344
					C1794.123,1659.782,1783.302,1654.739,1780.528,1648.878z"/>
				<path style="fill:#FFCF83;" d="M1813.602,1669.194c0,0-10.01-1.783-11.803-6.344
					C1800.006,1658.291,1810.827,1663.334,1813.602,1669.194z"/>
			</g>
			<g>
				<path style="fill:#FFCF83;" d="M1778.454,1664.969c0,0,8.019-6.251,12.608-4.535S1784.667,1666.825,1778.454,1664.969z"/>
				<path style="fill:#FFCF83;" d="M1816.427,1657.207c0,0-8.973,4.782-13.199,2.304
					C1799.001,1657.033,1810.625,1654.313,1816.427,1657.207z"/>
			</g>
			<g>
				<path style="fill:#FFCF83;" d="M1782.875,1671.955c0,0,4.986-8.861,9.882-9.05
					C1797.653,1662.717,1789.323,1671.27,1782.875,1671.955z"/>
				<path style="fill:#FFCF83;" d="M1812.964,1647.434c0,0-4.985,8.86-9.882,9.049
					C1798.187,1656.671,1806.516,1648.118,1812.964,1647.434z"/>
			</g>
			<g>
				<path style="fill:#FFCF83;" d="M1789.438,1677.178c0,0,0.655-10.146,4.986-12.437
					C1798.756,1662.451,1794.952,1673.768,1789.438,1677.178z"/>
				<path style="fill:#FFCF83;" d="M1805.936,1642.043c0,0-0.656,10.146-4.987,12.438
					C1796.617,1656.771,1800.42,1645.454,1805.936,1642.043z"/>
			</g>
			<path style="fill:#FFCF83;" d="M1777.939,1658.422c0,0,9.498-3.627,13.384-0.643S1783.337,1662.017,1777.939,1658.422z"/>
			<path style="fill:#365DA4;" d="M1804.142,1659.036c0-3.908-3.169-7.077-7.077-7.077s-7.077,3.169-7.077,7.077
				c0,3.909,3.169,7.077,7.077,7.077S1804.142,1662.945,1804.142,1659.036z"/>
		</g>
		<path style="fill:#6E9E63;" d="M1780.365,1712.93c0,0,6.157-6.264,14.65-6.688c8.492-0.425,11.103,0,11.103,0
			s-5.225,5.521-11.455,6.688C1788.434,1714.097,1780.365,1712.93,1780.365,1712.93z"/>
		<path style="fill:#6E9E63;" d="M1781.64,1706.851c-1.074-0.936-1.883-8.571-8.465-10.481c-6.582-1.911-11.253-2.279-11.253-2.279
			s5.705,9.922,9.859,11.408S1781.64,1706.851,1781.64,1706.851z"/>
		<g>
			<path style="fill:#6E9E63;" d="M1814.013,1735.861l0.74-0.189c-0.297-1.32-1.036-27.904,7.304-43.404l-0.673-0.362
				C1812.933,1707.612,1813.728,1734.77,1814.013,1735.861z"/>
		</g>
		<g>
			<g>
				<path style="fill:#FFCF83;" d="M1823.486,1678.027c0,0,2.625,5.507,1.026,7.974
					C1822.914,1688.469,1821.596,1681.428,1823.486,1678.027z"/>
				<path style="fill:#FFCF83;" d="M1825.123,1701.26c0,0-2.625-5.507-1.026-7.975
					C1825.695,1690.818,1827.015,1697.859,1825.123,1701.26z"/>
			</g>
			<g>
				<path style="fill:#FFCF83;" d="M1818.229,1679.709c0,0,4.866,3.68,4.583,6.605
					C1822.529,1689.241,1818.116,1683.598,1818.229,1679.709z"/>
				<path style="fill:#FFCF83;" d="M1830.38,1699.578c0,0-4.866-3.68-4.583-6.605
					C1826.08,1690.046,1830.493,1695.688,1830.38,1699.578z"/>
			</g>
			<g>
				<path style="fill:#FFCF83;" d="M1814.383,1683.67c0,0,6.006,1.07,7.081,3.807
					C1822.539,1690.212,1816.047,1687.187,1814.383,1683.67z"/>
				<path style="fill:#FFCF83;" d="M1834.228,1695.86c0,0-6.007-1.07-7.082-3.807
					C1826.069,1689.317,1832.563,1692.344,1834.228,1695.86z"/>
			</g>
			<g>
				<path style="fill:#FFCF83;" d="M1813.139,1693.324c0,0,4.811-3.75,7.564-2.721S1816.866,1694.438,1813.139,1693.324z"/>
				<path style="fill:#FFCF83;" d="M1835.923,1688.668c0,0-5.384,2.869-7.92,1.382S1832.441,1686.931,1835.923,1688.668z"/>
			</g>
			<g>
				<path style="fill:#FFCF83;" d="M1815.791,1697.517c0,0,2.991-5.317,5.929-5.431
					C1824.658,1691.974,1819.66,1697.105,1815.791,1697.517z"/>
				<path style="fill:#FFCF83;" d="M1833.845,1682.803c0,0-2.991,5.317-5.93,5.43
					C1824.978,1688.346,1829.976,1683.214,1833.845,1682.803z"/>
			</g>
			<g>
				<path style="fill:#FFCF83;" d="M1819.729,1700.65c0,0,0.393-6.088,2.992-7.462
					C1825.319,1691.813,1823.037,1698.604,1819.729,1700.65z"/>
				<path style="fill:#FFCF83;" d="M1829.627,1679.568c0,0-0.393,6.088-2.992,7.463
					C1824.036,1688.405,1826.318,1681.615,1829.627,1679.568z"/>
			</g>
			<path style="fill:#FFCF83;" d="M1812.83,1689.396c0,0,5.698-2.177,8.03-0.386
				C1823.191,1690.802,1816.067,1691.553,1812.83,1689.396z"/>
			<path style="fill:#365DA4;" d="M1828.551,1689.766c0-2.346-1.9-4.247-4.246-4.247c-2.345,0-4.246,1.901-4.246,4.247
				c0,2.345,1.901,4.246,4.246,4.246C1826.65,1694.012,1828.551,1692.11,1828.551,1689.766z"/>
		</g>
		<path style="fill:#6E9E63;" d="M1814.285,1722.102c0,0,3.694-3.758,8.789-4.013c5.097-0.255,6.663,0,6.663,0
			s-3.136,3.313-6.874,4.013C1819.126,1722.803,1814.285,1722.102,1814.285,1722.102z"/>
		<path style="fill:#6E9E63;" d="M1815.049,1718.455c-0.644-0.563-1.129-5.144-5.078-6.29s-6.752-1.367-6.752-1.367
			s3.422,5.953,5.915,6.845C1811.627,1718.535,1815.049,1718.455,1815.049,1718.455z"/>
		<g>
			<path style="fill:#6E9E63;" d="M1855.139,1735.861l1.234-0.316c-0.495-2.201-1.727-46.505,12.172-72.338l-1.122-0.604
				C1853.338,1688.781,1854.664,1734.041,1855.139,1735.861z"/>
		</g>
		<g>
			<g>
				<path style="fill:#FFCF83;" d="M1870.928,1639.475c0,0,4.375,9.178,1.71,13.289S1867.775,1645.141,1870.928,1639.475z"/>
				<path style="fill:#FFCF83;" d="M1873.655,1678.193c0,0-4.375-9.178-1.71-13.289
					C1874.609,1660.792,1876.808,1672.527,1873.655,1678.193z"/>
			</g>
			<g>
				<path style="fill:#FFCF83;" d="M1862.166,1642.277c0,0,8.11,6.132,7.638,11.009
					C1869.332,1658.163,1861.978,1648.759,1862.166,1642.277z"/>
				<path style="fill:#FFCF83;" d="M1882.417,1675.391c0,0-8.11-6.132-7.638-11.009
					C1875.251,1659.505,1882.605,1668.909,1882.417,1675.391z"/>
			</g>
			<g>
				<path style="fill:#FFCF83;" d="M1855.755,1648.878c0,0,10.01,1.784,11.802,6.344
					C1869.35,1659.782,1858.528,1654.739,1855.755,1648.878z"/>
				<path style="fill:#FFCF83;" d="M1888.828,1669.194c0,0-10.01-1.783-11.802-6.344
					C1875.233,1658.291,1886.055,1663.334,1888.828,1669.194z"/>
			</g>
			<g>
				<path style="fill:#FFCF83;" d="M1853.682,1664.969c0,0,8.019-6.251,12.607-4.535
					C1870.879,1662.149,1859.895,1666.825,1853.682,1664.969z"/>
				<path style="fill:#FFCF83;" d="M1891.654,1657.207c0,0-8.973,4.782-13.2,2.304
					C1874.228,1657.033,1885.852,1654.313,1891.654,1657.207z"/>
			</g>
			<g>
				<path style="fill:#FFCF83;" d="M1858.103,1671.955c0,0,4.985-8.861,9.882-9.05
					C1872.88,1662.717,1864.55,1671.27,1858.103,1671.955z"/>
				<path style="fill:#FFCF83;" d="M1888.19,1647.434c0,0-4.985,8.86-9.881,9.049
					C1873.413,1656.671,1881.743,1648.118,1888.19,1647.434z"/>
			</g>
			<g>
				<path style="fill:#FFCF83;" d="M1864.665,1677.178c0,0,0.655-10.146,4.986-12.437
					C1873.982,1662.451,1870.18,1673.768,1864.665,1677.178z"/>
				<path style="fill:#FFCF83;" d="M1881.162,1642.043c0,0-0.655,10.146-4.986,12.438
					C1871.844,1656.771,1875.647,1645.454,1881.162,1642.043z"/>
			</g>
			<path style="fill:#FFCF83;" d="M1853.167,1658.422c0,0,9.498-3.627,13.384-0.643S1858.563,1662.017,1853.167,1658.422z"/>
			<path style="fill:#365DA4;" d="M1879.368,1659.036c0-3.908-3.168-7.077-7.077-7.077c-3.908,0-7.076,3.169-7.076,7.077
				c0,3.909,3.168,7.077,7.076,7.077C1876.2,1666.113,1879.368,1662.945,1879.368,1659.036z"/>
		</g>
		<path style="fill:#6E9E63;" d="M1857.575,1695.062c0,0,6.157-6.263,14.649-6.688s11.103,0,11.103,0s-5.225,5.521-11.454,6.688
			C1865.643,1696.229,1857.575,1695.062,1857.575,1695.062z"/>
		<path style="fill:#6E9E63;" d="M1858.85,1688.983c-1.074-0.937-1.883-8.571-8.465-10.482s-11.253-2.278-11.253-2.278
			s5.704,9.922,9.858,11.408S1858.85,1688.983,1858.85,1688.983z"/>
		<g>
			<path style="fill:#6E9E63;" d="M1832.358,1735.861l1.234-0.342c-0.495-2.382-1.728-50.314,12.172-78.264l-1.122-0.653
				C1830.559,1684.924,1831.884,1733.892,1832.358,1735.861z"/>
		</g>
		<g>
			<g>
				<path style="fill:#FFCF83;" d="M1848.147,1631.579c0,0,4.375,9.93,1.71,14.378
					C1847.193,1650.405,1844.996,1637.71,1848.147,1631.579z"/>
				<path style="fill:#FFCF83;" d="M1850.875,1673.47c0,0-4.375-9.93-1.71-14.378
					C1851.83,1654.643,1854.027,1667.339,1850.875,1673.47z"/>
			</g>
			<g>
				<path style="fill:#FFCF83;" d="M1839.386,1634.611c0,0,8.11,6.635,7.638,11.911
					C1846.552,1651.799,1839.197,1641.624,1839.386,1634.611z"/>
				<path style="fill:#FFCF83;" d="M1859.637,1670.438c0,0-8.109-6.635-7.638-11.911S1859.825,1663.425,1859.637,1670.438z"/>
			</g>
			<g>
				<path style="fill:#FFCF83;" d="M1832.975,1641.753c0,0,10.01,1.931,11.803,6.863
					C1846.569,1653.55,1835.748,1648.095,1832.975,1641.753z"/>
				<path style="fill:#FFCF83;" d="M1866.048,1663.733c0,0-10.01-1.93-11.802-6.863
					C1852.453,1651.938,1863.274,1657.393,1866.048,1663.733z"/>
			</g>
			<g>
				<path style="fill:#FFCF83;" d="M1830.901,1659.162c0,0,8.019-6.763,12.608-4.907
					C1848.099,1656.111,1837.114,1661.17,1830.901,1659.162z"/>
				<path style="fill:#FFCF83;" d="M1868.874,1650.765c0,0-8.973,5.173-13.2,2.492
					C1851.447,1650.576,1863.072,1647.633,1868.874,1650.765z"/>
			</g>
			<g>
				<path style="fill:#FFCF83;" d="M1835.322,1666.72c0,0,4.985-9.587,9.882-9.79
					C1850.1,1656.726,1841.77,1665.979,1835.322,1666.72z"/>
				<path style="fill:#FFCF83;" d="M1865.41,1640.189c0,0-4.985,9.587-9.881,9.791
					C1850.633,1650.185,1858.963,1640.932,1865.41,1640.189z"/>
			</g>
			<g>
				<path style="fill:#FFCF83;" d="M1841.885,1672.371c0,0,0.655-10.978,4.986-13.455
					C1851.202,1656.438,1847.399,1668.682,1841.885,1672.371z"/>
				<path style="fill:#FFCF83;" d="M1858.382,1634.358c0,0-0.655,10.978-4.986,13.455
					C1849.064,1650.292,1852.867,1638.049,1858.382,1634.358z"/>
			</g>
			<path style="fill:#FFCF83;" d="M1830.387,1652.079c0,0,9.498-3.925,13.384-0.696
				C1847.656,1654.612,1835.783,1655.968,1830.387,1652.079z"/>
			<path style="fill:#365DA4;" d="M1856.588,1652.743c0-4.229-3.168-7.656-7.076-7.656c-3.909,0-7.077,3.428-7.077,7.656
				s3.168,7.657,7.077,7.657C1853.42,1660.4,1856.588,1656.972,1856.588,1652.743z"/>
		</g>
		<path style="fill:#6E9E63;" d="M1832.813,1711.051c0,0,6.156-6.776,14.649-7.235c8.492-0.46,11.104,0,11.104,0
			s-5.226,5.972-11.455,7.235C1840.88,1712.314,1832.813,1711.051,1832.813,1711.051z"/>
		<path style="fill:#6E9E63;" d="M1834.086,1704.475c-1.073-1.013-1.883-9.273-8.464-11.341c-6.582-2.067-11.253-2.465-11.253-2.465
			s5.704,10.734,9.858,12.342C1828.382,1704.619,1834.086,1704.475,1834.086,1704.475z"/>
		<g>
			<path style="fill:#6E9E63;" d="M1862.004,1735.861l0.872-0.223c-0.35-1.555-1.22-32.839,8.595-51.08l-0.792-0.426
				C1860.733,1702.617,1861.669,1734.576,1862.004,1735.861z"/>
		</g>
		<g>
			<g>
				<path style="fill:#FFCF83;" d="M1873.153,1667.801c0,0,3.089,6.48,1.207,9.384
					C1872.479,1680.088,1870.928,1671.802,1873.153,1667.801z"/>
				<path style="fill:#FFCF83;" d="M1875.079,1695.141c0,0-3.089-6.48-1.208-9.384
					C1875.753,1682.854,1877.305,1691.14,1875.079,1695.141z"/>
			</g>
			<g>
				<path style="fill:#FFCF83;" d="M1866.967,1669.779c0,0,5.727,4.33,5.393,7.774
					C1872.026,1680.997,1866.833,1674.356,1866.967,1669.779z"/>
				<path style="fill:#FFCF83;" d="M1881.266,1693.162c0,0-5.727-4.33-5.393-7.774
					C1876.206,1681.944,1881.399,1688.585,1881.266,1693.162z"/>
			</g>
			<g>
				<path style="fill:#FFCF83;" d="M1862.439,1674.44c0,0,7.067,1.26,8.334,4.479
					C1872.039,1682.14,1864.397,1678.579,1862.439,1674.44z"/>
				<path style="fill:#FFCF83;" d="M1885.793,1688.787c0,0-7.068-1.26-8.334-4.479
					C1876.193,1681.087,1883.835,1684.648,1885.793,1688.787z"/>
			</g>
			<g>
				<path style="fill:#FFCF83;" d="M1860.975,1685.803c0,0,5.663-4.414,8.903-3.202
					C1873.119,1683.812,1865.362,1687.113,1860.975,1685.803z"/>
				<path style="fill:#FFCF83;" d="M1887.789,1680.322c0,0-6.336,3.376-9.321,1.627
					C1875.483,1680.199,1883.691,1678.278,1887.789,1680.322z"/>
			</g>
			<g>
				<path style="fill:#FFCF83;" d="M1864.097,1690.735c0,0,3.521-6.257,6.978-6.39S1868.65,1690.252,1864.097,1690.735z"/>
				<path style="fill:#FFCF83;" d="M1885.343,1673.42c0,0-3.521,6.258-6.978,6.391S1880.79,1673.904,1885.343,1673.42z"/>
			</g>
			<g>
				<path style="fill:#FFCF83;" d="M1868.73,1694.424c0,0,0.463-7.164,3.521-8.781
					C1875.311,1684.024,1872.625,1692.016,1868.73,1694.424z"/>
				<path style="fill:#FFCF83;" d="M1880.38,1669.614c0,0-0.463,7.165-3.521,8.782
					C1873.801,1680.014,1876.485,1672.022,1880.38,1669.614z"/>
			</g>
			<path style="fill:#FFCF83;" d="M1860.612,1681.18c0,0,6.706-2.562,9.45-0.454S1864.423,1683.718,1860.612,1681.18z"/>
			<path style="fill:#365DA4;" d="M1879.113,1681.613c0-2.76-2.237-4.997-4.997-4.997s-4.997,2.237-4.997,4.997
				s2.237,4.998,4.997,4.998S1879.113,1684.373,1879.113,1681.613z"/>
		</g>
		<path style="fill:#6E9E63;" d="M1862.324,1719.669c0,0,4.348-4.423,10.345-4.723s7.84,0,7.84,0s-3.689,3.897-8.089,4.723
			C1868.021,1720.493,1862.324,1719.669,1862.324,1719.669z"/>
		<path style="fill:#6E9E63;" d="M1863.225,1715.376c-0.759-0.66-1.33-6.052-5.978-7.401s-7.945-1.608-7.945-1.608
			s4.027,7.006,6.961,8.056C1859.196,1715.471,1863.225,1715.376,1863.225,1715.376z"/>
	</g>
	<g>
		<g>
			<path style="fill:#FFF3E9;" d="M422.835,1263.673v477.407H317.521c-0.051-0.142-0.103-0.31-0.168-0.478
				c-0.039-0.103-0.078-0.206-0.116-0.309c-0.348-0.915-0.812-2.153-1.405-3.726l-0.232-0.464c0,0,0,0,0-0.231
				c0,0-0.232-0.245-0.232-0.478c-0.941-1.882-1.65-4.008-2.591-6.586c-0.477-1.186-0.941-2.604-1.65-4.009c0-0.231,0-0.231,0-0.477
				c-0.232-0.232-0.232-0.232-0.232-0.232c-3.236-8.403-7.245-19.346-11.872-32.57c-0.413-1.198-0.838-2.41-1.276-3.635
				c-3.467-9.988-7.283-21.176-11.343-33.498c-1.869-5.787-3.79-11.832-5.762-18.109c-8.172-26.112-17.067-56.273-25.793-89.501
				c-4.241-16.253-8.482-33.202-12.491-50.872c-2.359-10.195-4.731-20.816-7-31.54c-0.657-3.145-1.302-6.289-1.946-9.435
				c-4.164-20.081-8.083-40.768-11.614-61.905c-4.654-27.763-8.65-56.3-11.692-85.273c-1.508-14.217-2.784-28.549-3.802-42.946
				c-0.026-0.373-0.065-0.761-0.078-1.134H422.835z"/>
			<polygon style="fill:#ED9F4A;" points="336.278,1065.341 447.846,1295.013 786.794,1295.013 610.082,1066.18 			"/>
			<polygon style="fill:#F9DDBF;" points="773.417,1295.013 763.342,1281.966 596.706,1066.18 322.902,1065.341 422.832,1271.056 
				422.832,1741.053 763.342,1741.053 763.342,1295.013 			"/>
			<path style="fill:#EFCDAF;" d="M593.66,1180.177h7.124c24.182,0,43.785,19.604,43.785,43.785v111.257h-93.272V1222.54
				C551.297,1199.144,570.264,1180.177,593.66,1180.177z"/>
			<path style="fill:#ED9F4A;" d="M610.982,1065.337l-0.76,1.019l-6.6,8.79l-159.376,212.462l-15.107,20.146H210.105
				c-1.508-14.217-2.784-28.549-3.802-42.946c-0.026-0.373-0.065-0.761-0.078-1.134c-0.039-0.387-0.064-0.773-0.09-1.16
				c-1.392-20.287-2.269-40.717-2.526-61.133l105.005-135.991h44.51l155.484-0.025L610.982,1065.337z"/>
		</g>
		<g>
			<polygon style="fill:#ED9F4A;" points="633.653,1359.159 713.083,1522.674 954.396,1522.674 828.586,1359.756 			"/>
			<g>
				<polygon style="fill:#F9DDBF;" points="947.165,1522.674 821.356,1359.756 626.422,1359.159 705.852,1522.674 706.379,1522.674 
					706.379,1740.602 947.162,1741.074 947.162,1522.674 				"/>
				<rect x="502.484" y="1522.672" style="fill:#FFF3E9;" width="203.895" height="217.93"/>
				<polygon style="fill:#ED9F4A;" points="480.077,1532.342 699.115,1532.342 828.589,1359.752 763.342,1359.764 613.315,1359.796 
									"/>
				<path style="fill:#EFCDAF;" d="M777.863,1558.974v182.1h101.442v-180.426c0-15.03-6.429-28.561-16.694-37.976
					c-9.172-8.439-21.414-13.577-34.864-13.577c-13.241,0-25.285,5.161-34.202,13.577
					C783.885,1531.762,777.863,1544.664,777.863,1558.974z"/>
				<path style="fill:#EFCDAF;" d="M839.97,1450.531c0-6.287-5.097-11.383-11.384-11.383c-6.288,0-11.384,5.096-11.384,11.383
					c0,6.286,5.097,11.383,11.384,11.383C834.873,1461.914,839.97,1456.817,839.97,1450.531z"/>
				<polygon style="fill:#E58638;" points="480.077,1532.342 521.648,1532.342 763.342,1359.764 613.315,1359.796 				"/>
			</g>
		</g>
	</g>
	<g>
		<polygon style="fill:#2B478B;" points="441.882,1226.387 241.696,1226.387 347.298,1096.875 547.484,1096.875 		"/>
		<g>
			<polygon style="fill:#AEC3FF;" points="520.219,1130.988 320.033,1130.988 321.275,1129.465 521.461,1129.465 			"/>
			<polygon style="fill:#AEC3FF;" points="394.353,1096.873 288.75,1226.385 287.227,1226.385 392.83,1096.873 			"/>
			<polygon style="fill:#AEC3FF;" points="447.393,1096.873 341.79,1226.385 340.267,1226.385 445.87,1096.873 			"/>
			<polygon style="fill:#AEC3FF;" points="498.43,1096.873 392.827,1226.385 391.304,1226.385 496.907,1096.873 			"/>
			<polygon style="fill:#AEC3FF;" points="494.062,1162.393 293.876,1162.393 295.118,1160.869 495.304,1160.869 			"/>
			<polygon style="fill:#AEC3FF;" points="466.439,1196.269 266.253,1196.269 267.496,1194.746 467.681,1194.746 			"/>
			<g>
				<polygon style="fill:#AEC3FF;" points="361.033,1136.57 359.881,1130.332 371.205,1124.095 372.356,1130.332 				"/>
				<polygon style="fill:#AEC3FF;" points="413.501,1136.57 412.35,1130.332 423.674,1124.095 424.825,1130.332 				"/>
				<polygon style="fill:#AEC3FF;" points="465.3,1136.57 464.148,1130.332 475.473,1124.095 476.624,1130.332 				"/>
			</g>
			<g>
				<polygon style="fill:#AEC3FF;" points="335.512,1167.869 334.36,1161.631 345.685,1155.394 346.836,1161.631 				"/>
				<polygon style="fill:#AEC3FF;" points="387.98,1167.869 386.829,1161.631 398.153,1155.394 399.305,1161.631 				"/>
				<polygon style="fill:#AEC3FF;" points="439.779,1167.869 438.628,1161.631 449.952,1155.394 451.103,1161.631 				"/>
			</g>
			<g>
				<polygon style="fill:#AEC3FF;" points="307.89,1201.745 306.738,1195.507 318.062,1189.27 319.213,1195.507 				"/>
				<polygon style="fill:#AEC3FF;" points="360.358,1201.745 359.206,1195.507 370.53,1189.27 371.682,1195.507 				"/>
				<polygon style="fill:#AEC3FF;" points="412.157,1201.745 411.005,1195.507 422.33,1189.27 423.481,1195.507 				"/>
			</g>
		</g>
	</g>
	<path style="fill:#F8FCFF;" d="M2663.536,655.829c-0.078,4.962-0.232,9.976-0.478,15.028c-1.044,21.55-3.621,43.848-7.875,66.894
		l-313.189-4.111c0,0,28.344-66.907,96.14-59.47c0,0,98.42-111.528,203.362-14.874
		C2641.496,659.296,2649.796,657.518,2663.536,655.829z"/>
	<path style="fill:#F8FCFF;" d="M1644.95,443.493c0,0,14.679-35.332,49.781-31.406c0,0,50.963-58.888,105.308-7.852
		c0,0,57.768-12.646,100.55,10.949c28.523,15.731,37.944,32.234,37.944,32.234L1644.95,443.493z"/>
	<path style="fill:#F8FCFF;" d="M464.191,956.595c0,0,15.684-37.75,53.188-33.555c0,0,54.449-62.918,112.513-8.389
		c0,0,61.721-13.511,107.43,11.699c30.476,16.808,40.542,34.44,40.542,34.44L464.191,956.595z"/>
	<path style="fill:#F8FCFF;" d="M382.463,841.106c0,0,12.002-28.888,40.703-25.678c0,0,41.668-48.148,86.102-6.419
		c0,0,47.232-10.339,82.212,8.952c23.321,12.862,31.024,26.356,31.024,26.356L382.463,841.106z"/>
	<path style="fill:#6E9E63;" d="M2909.38,1570.186c-1.456,14.925-3.982,30.494-7.669,46.761c-0.077,0.335-0.154,0.67-0.245,1.019
		c-82.786,29.992-168.124,69.78-244.104,122.329h-205.438C2481.698,1721.141,2626.815,1640.791,2909.38,1570.186z"/>
	<g>
		<g>
			<path style="fill:#EDBD77;" d="M2453.063,1526.465c0,0,157.647-13.82,200.501,0c42.854,13.82,64.282,78.102,58.16,125.037
				c-6.122,46.937-20.407,86.729-47.956,85.709c-27.55-1.021-222.435,0-222.435,0L2453.063,1526.465z"/>
			<path style="fill:#EDBD77;" d="M2485.26,1524.052c0,0,33.365-6.214,56.067-8.51c0,0-17.856,3.656-20.067,5.526
				c0,0,48.467-7.313,66.153-5.526c17.686,1.785,41.919,4.78,41.919,4.78l26.953-1.805c0,0-22.447,2.721-21.256,3.062
				c1.189,0.34,21.937,2.891,28.569,7.142c0,0,20.576,6.463,24.998,10.374c0,0-16.495-8.333-22.958-7.823
				c0,0,37.382,25.93,37.482,50.633s-160.773-37.198-160.773-37.198L2485.26,1524.052z"/>
		</g>
		<g>
			<path style="fill:#FFCF83;" d="M2475.611,1525.225c0,0-62.748-4.771-102.54,45.733c-39.791,50.505-7.651,167.455,44.383,167.901
				c52.035,0.447,116.129-7.548,129.995-75.48C2561.315,1595.445,2532.237,1526.935,2475.611,1525.225z"/>
			<path style="fill:#FFCF83;" d="M2347.122,1625.994c0,0,22.447-25.849,24.828-32.991l3.401,7.143L2347.122,1625.994z"/>
			<path style="fill:#FFCF83;" d="M2363.323,1587.727c0,0,2.845-18.532,11.008-25.334c0,0-7.419,12.424-5.504,22.787
				C2370.743,1595.544,2363.323,1587.727,2363.323,1587.727z"/>
			<path style="fill:#FFCF83;" d="M2374.331,1718.845c0.41,0.994-12.074-33.927-7.993-40.559l2.375,0.022
				C2368.713,1678.309,2370.335,1709.151,2374.331,1718.845z"/>
			<path style="fill:#FFCF83;" d="M2364.298,1673.439c0,0-9.353-3.061-14.625,0c0,0,8.667-2.426,13.944,2.721
				S2364.298,1673.439,2364.298,1673.439z"/>
		</g>
		<g>
			<path style="fill:#EDBD77;" d="M2450.782,1737.088c-14.427,0-31.794-2.448-46.62-11.522
				c-16.025-9.808-26.493-25.621-31.113-47.002c-7.865-36.397-4.002-66.259,11.482-88.758c14.476-21.033,38.92-34.729,70.689-39.609
				c21.439-3.296,40.009,3.636,53.687,20.039c19.766,23.704,25.445,63.746,13.812,97.375c-8.221,23.762-30.176,38.439-58.731,39.265
				c-0.815,0.023-1.628,0.035-2.438,0.035c-28.763,0-54.692-14.704-63.596-36.313c-9.075-22.028-8.604-43.577,1.325-60.676
				c10.084-17.363,29.126-28.658,53.618-31.802c22.172-2.856,34.135,7.473,40.261,16.63c11.821,17.673,11.792,46.379,3.868,60.239
				c-7.633,13.352-28.762,23.657-47.11,23.019c-13.24-0.476-23.348-6.604-28.46-17.255c-6.576-13.7-6.145-27.85,1.183-38.819
				c5.897-8.832,15.428-14.222,24.271-13.744c10.155,0.554,14.484,9.034,15.106,16.129c0.548,6.25-1.584,13.204-6.716,14.402
				c-9.547,2.226-12.935-2.983-13.073-3.207c0,0-5.156-8.511,1.258-9.733c7.348-1.401,5.415,4.301,5.415,4.301
				c0.104,0.157-1.815,7.864,5.804,6.084c3.141-0.732,5.204-5.836,4.698-11.618c-0.556-6.338-4.167-13.275-12.635-13.737
				c-7.948-0.451-16.554,4.505-21.947,12.581c-6.799,10.181-7.163,23.385-0.999,36.227c5.986,12.471,17.546,15.457,26.189,15.769
				c17.465,0.597,37.539-9.107,44.738-21.698c6.672-11.672,8.465-39.185-3.772-57.479c-8.194-12.25-21.245-17.61-37.745-15.486
				c-23.664,3.038-42.019,13.876-51.683,30.517c-9.511,16.377-9.926,37.103-1.168,58.359c8.747,21.231,34.892,35.484,63.531,34.654
				c27.421-0.792,48.479-14.81,56.327-37.499c11.349-32.806,5.86-71.803-13.346-94.837c-9.105-10.919-25.389-23.094-51.273-19.126
				c-31.037,4.767-54.871,18.081-68.927,38.504c-15.058,21.878-18.785,51.054-11.079,86.716
				c4.463,20.651,14.529,35.899,29.919,45.317c31.096,19.03,80.146,7.512,80.575,7.398l-5.551,2.998
				C2480.32,1733.786,2467.534,1737.088,2450.782,1737.088z"/>
		</g>
	</g>
	<g>
		<g>
			<path style="fill:#EDBD77;" d="M2696.941,1453.256c0,0,211.98-18.584,269.605,0c57.624,18.583,86.437,105.02,78.204,168.132
				c-8.232,63.113-27.44,116.621-64.484,115.249c-37.044-1.371-299.099,0-299.099,0L2696.941,1453.256z"/>
			<path style="fill:#EDBD77;" d="M2740.233,1450.01c0,0,44.864-8.355,75.392-11.442c0,0-24.01,4.917-26.982,7.432
				c0,0,65.17-9.832,88.951-7.432c23.782,2.401,56.367,6.429,56.367,6.429l36.244-2.427c0,0-30.185,3.659-28.584,4.116
				c1.602,0.457,29.498,3.887,38.417,9.604c0,0,27.669,8.689,33.614,13.949c0,0-22.182-11.205-30.871-10.519
				c0,0,50.266,34.866,50.401,68.083c0.135,33.217-216.186-50.019-216.186-50.019L2740.233,1450.01z"/>
		</g>
		<g>
			<path style="fill:#FFCF83;" d="M2727.26,1451.588c0,0-84.375-6.415-137.881,61.496s-10.289,225.169,59.68,225.771
				c69.969,0.601,156.153-10.149,174.799-101.497C2842.502,1546.011,2803.402,1453.887,2727.26,1451.588z"/>
			<path style="fill:#FFCF83;" d="M2554.486,1587.088c0,0,30.184-34.758,33.385-44.361l4.574,9.604L2554.486,1587.088z"/>
			<path style="fill:#FFCF83;" d="M2576.271,1535.631c0,0,3.825-24.918,14.801-34.065c0,0-9.977,16.706-7.4,30.642
				C2586.248,1546.144,2576.271,1535.631,2576.271,1535.631z"/>
			<path style="fill:#FFCF83;" d="M2591.072,1711.94c0.552,1.338-16.235-45.619-10.747-54.537l3.192,0.03
				C2583.518,1657.434,2585.699,1698.906,2591.072,1711.94z"/>
			<path style="fill:#FFCF83;" d="M2577.581,1650.887c0,0-12.576-4.116-19.665,0c0,0,11.654-3.262,18.75,3.658
				C2583.763,1661.465,2577.581,1650.887,2577.581,1650.887z"/>
		</g>
		<g>
			<path style="fill:#EDBD77;" d="M2693.873,1736.471c-19.398,0-42.751-3.292-62.688-15.493
				c-21.549-13.188-35.625-34.451-41.838-63.202c-10.575-48.94-5.381-89.095,15.439-119.348
				c19.466-28.283,52.335-46.7,95.055-53.261c28.828-4.433,53.797,4.889,72.189,26.945c26.578,31.873,34.215,85.717,18.572,130.936
				c-11.055,31.951-40.577,51.688-78.974,52.798c-1.096,0.031-2.189,0.047-3.279,0.047c-38.676,0-73.542-19.771-85.514-48.829
				c-12.204-29.62-11.571-58.596,1.781-81.589c13.56-23.348,39.164-38.534,72.099-42.762c29.813-3.84,45.898,10.048,54.136,22.361
				c15.896,23.764,15.856,62.363,5.202,81.001c-10.264,17.954-38.676,31.812-63.348,30.952c-17.803-0.64-31.395-8.879-38.269-23.201
				c-8.843-18.423-8.264-37.448,1.589-52.199c7.932-11.876,20.746-19.123,32.638-18.481c13.655,0.744,19.477,12.148,20.313,21.688
				c0.737,8.405-2.128,17.756-9.03,19.367c-12.837,2.993-17.392-4.013-17.579-4.312c0,0-6.933-11.445,1.692-13.09
				c9.879-1.884,7.281,5.783,7.281,5.783c0.141,0.213-2.44,10.575,7.805,8.182c4.223-0.985,6.998-7.848,6.316-15.622
				c-0.747-8.522-5.603-17.852-16.99-18.472c-10.686-0.608-22.258,6.057-29.511,16.916c-9.142,13.689-9.632,31.444-1.343,48.713
				c8.049,16.768,23.592,20.784,35.215,21.203c23.484,0.803,50.477-12.247,60.157-29.178c8.973-15.694,11.384-52.689-5.071-77.288
				c-11.019-16.472-28.568-23.68-50.754-20.824c-31.82,4.086-56.501,18.659-69.496,41.035c-12.789,22.021-13.348,49.89-1.571,78.473
				c11.763,28.55,46.919,47.714,85.429,46.599c36.872-1.064,65.187-19.914,75.741-50.424c15.26-44.111,7.88-96.55-17.947-127.522
				c-12.243-14.683-34.138-31.054-68.944-25.718c-41.733,6.409-73.783,24.313-92.683,51.774
				c-20.247,29.419-25.26,68.649-14.896,116.603c6.001,27.77,19.536,48.272,40.229,60.937c41.813,25.59,107.77,10.101,108.346,9.948
				l-7.463,4.031C2733.593,1732.031,2716.399,1736.471,2693.873,1736.471z"/>
		</g>
	</g>
	<g>
		<path style="fill:#CCA283;" d="M1162.411,1535.361c0,0-36.379,140.375-33.117,151.468s21.534,48.795,21.534,48.795h-17.581
			c0,0-7.105-3.48-6.815-12.182s-24.363-42.635-24.363-42.635s9.671-53.891,0-75.118
			C1060.422,1514.272,1130.178,1515.141,1162.411,1535.361z"/>
		<path style="fill:#CCA283;" d="M1349.277,1583.937c0,0-10.441,75.409-11.021,80.05c-0.58,4.64-5.511,10.44-5.221,17.981
			s2.9,33.063,11.021,39.444s8.991,14.212,8.991,14.212h-22.043c0,0-3.771-7.541-3.19-12.762c0.58-5.221-6.091-10.731-6.381-21.462
			c-0.29-10.731,0-30.744-2.9-37.705s-2.03-54.816-11.601-65.547C1297.361,1587.417,1349.277,1583.937,1349.277,1583.937z"/>
		<path style="fill:#EFCDAF;" d="M1109.464,1558.724c-0.239,3.478-0.359,6.714-0.359,9.951
			c0.599,81.636,81.397,57.183,84.274,55.022c3.117-2.156,8.752-1.917,8.752-1.917c40.399,16.065,96.982,1.317,108.73-3.477
			c11.748-4.797,43.037,7.074,57.542,5.994c5.874-0.48,10.789-6.594,14.506-14.265c5.274-10.911,8.271-24.937,8.751-29.851
			c0.24-2.757,3.956-13.308,8.991-26.253c2.038-5.037,4.315-10.551,6.713-16.185c0.479-0.96,0.839-2.037,1.318-2.997
			c-1.198-1.32-2.277-2.757-3.356-4.197c-6.354-8.391-10.79-18.222-15.705-28.05c-5.035-10.311-10.43-20.861-18.462-30.329
			c-11.868-3.718-26.013,2.996-31.887,2.637c-6.833-0.24-13.546-1.44-19.661-2.4c-2.518-0.477-4.795-0.837-6.953-1.197
			c-11.988-1.8-84.635,7.555-135.943,8.991c-10.549,0.36-20.14,0.24-28.172-0.239c-0.599,0-1.199-0.12-1.798-0.12
			c-21.459-1.2-32.847,0.12-38.841,2.036c-6.594,2.04-6.713,4.558-6.713,4.558
			C1080.694,1506.455,1109.464,1558.724,1109.464,1558.724z"/>
		<path style="fill:#EFCDAF;" d="M1375.691,1583.937c0,0-10.441,75.409-11.021,80.05c-0.58,4.64-5.511,10.44-5.221,17.981
			s2.9,33.063,11.021,39.444c8.121,6.381,8.991,14.212,8.991,14.212h-22.042c0,0-3.771-7.541-3.19-12.762
			s-6.091-10.731-6.381-21.462c-0.29-10.731,0-30.744-2.9-37.705s-2.03-54.816-11.601-65.547
			C1323.775,1587.417,1375.691,1583.937,1375.691,1583.937z"/>
		<path style="fill:#EFCDAF;" d="M1185.1,1566.762c0,0-29.364,108.975-26.102,120.067s21.534,48.795,21.534,48.795h-17.581
			c0,0-7.106-3.48-6.816-12.182s-24.363-42.635-24.363-42.635s-1.992-61.514-16.493-79.786S1152.867,1546.541,1185.1,1566.762z"/>
		<g>
			<path style="fill:#EFCDAF;" d="M1484.234,1594.65c1.187,1.596,2.233,2.732,2.233,2.732c0.169-0.069,2.423,0.369,5.225,0.259
				c2.253-0.089,4.875-0.538,7.029-1.914c1.425-0.917,2.652-2.224,3.439-4.098c0,0-0.997-2.572-6.221-3.25
				c-3.849-0.499-7.627-3.171-10.848-3.51h-0.01c-1.157-0.109-2.253,0.07-3.24,0.768
				C1479.419,1587.343,1482.061,1591.75,1484.234,1594.65z"/>
			<path style="fill:#EFCDAF;" d="M1489.788,1604.82c0.149-0.069,1.984,0.279,4.377,0.27c3.848-0.011,9.182-0.938,11.326-6.022
				c0,0-0.997-2.572-6.221-3.25c-0.18-0.02-0.369-0.05-0.548-0.09c-3.36-0.598-6.67-2.712-9.562-3.3
				c-1.446-0.289-2.792-0.199-3.988,0.638c-0.568,0.399-0.857,0.938-0.938,1.585
				C1483.756,1598.25,1489.788,1604.82,1489.788,1604.82z"/>
			<path style="fill:#EFCDAF;" d="M1370.202,1494.707c1.439,37.404,8.392,108.972,12.708,115.326
				c10.549,0.477,19.061,1.437,26.014,2.877c21.578,4.434,27.572,12.584,29.61,16.422c3.836,7.674,21.818,25.176,24.935,25.775
				c3.237,0.597,5.155,4.794,8.512,11.628c3.236,6.711,9.71,7.312,15.104,7.671c5.395,0.24,9.831-6.234,9.95-7.791
				c0.12-1.68-2.757-6.714-2.278-13.428c0.36-6.714-3.955-26.732-0.359-32.127c2.278-3.477,0.959-10.908-0.24-15.945
				c-0.719-2.996-1.438-5.033-1.438-5.033c-0.24-0.721-0.599-1.561-1.079-2.397c-0.719-1.56-1.559-3.356-2.517-5.274
				c-1.079-2.279-2.518-4.797-4.076-7.554c-6.473-11.508-16.184-26.492-28.891-42.197c-12.707-15.825-28.292-32.127-46.753-46.512
				c-11.628-9.111-24.456-17.382-38.242-23.976C1369.963,1472.648,1369.723,1481.64,1370.202,1494.707z"/>
		</g>
		<path style="fill:#2B478B;" d="M1353.455,1565.439c-0.756-1.932-0.366-34.745-24.054-41.486
			c-23.688-6.742-36.652,3.63-66.212-8.298s-60.675-21.78-63.786-8.816c-3.112,12.965,2.593,49.267,0,65.861
			c-2.593,16.595,53.527,22.474,76.548,12.273C1298.972,1574.774,1361.784,1586.701,1353.455,1565.439z"/>
		<path style="fill:#2B478B;" d="M1101.172,1486.484c0,0-15.34,13.095-17.933,36.431c-2.593,23.337,4.668,125.866,4.668,125.866
			l5.919-0.33l6.354-113.436L1101.172,1486.484z"/>
		<path style="fill:#2B478B;" d="M1094.821,1661.834c0,0-12.792-13.767-4.84-16.878c7.952-3.111,4.84,6.224,4.84,9.854
			S1094.821,1661.834,1094.821,1661.834z"/>
		<path style="fill:#FFE7D7;" d="M1107.907,1481.879c14.865,7.314,31.289,14.028,40.999,14.269
			c21.219,0.359,72.767-11.868,93.746-13.188c20.979-1.319,105.973,18.342,125.993,11.988c0.479-0.24,0.958-0.24,1.558-0.24
			c4.437-0.359,11.149,2.758,19.421,7.794c4.675,2.997,9.83,6.591,15.225,10.668c34.885,26.373,80.199,71.688,80.199,71.688
			c-6.473-11.508-16.184-26.492-28.891-42.197c-12.707-15.825-28.292-32.127-46.753-46.512
			c-11.628-9.111-24.456-17.382-38.242-23.976c-11.868-3.718-26.013,2.996-31.887,2.637c-6.833-0.24-13.546-1.44-19.661-2.4
			c-2.518-0.477-4.795-0.837-6.953-1.197c-11.988-1.8-84.635,7.555-135.943,8.991c-10.549,0.36-20.14,0.24-28.172-0.239
			c-0.599,0-1.199-0.12-1.798-0.12C1125.289,1478.643,1113.901,1479.963,1107.907,1481.879z"/>
		<path style="fill:#2B478B;" d="M1176.736,1480.199c9.277,7.566,27.075,10.585,52.227,5.896
			c30.597-5.704,37.857,7.779,63.268,8.816c22.418,0.912,26.671-18.037,27.36-22.518c-2.469-0.409-4.813-0.809-6.98-1.136
			C1300.699,1469.454,1227.988,1478.732,1176.736,1480.199z"/>
		<path style="fill:#2B478B;" d="M1405.328,1530.551c0.479,2.4,1.199,4.794,2.038,7.194c1.079,2.637,2.398,5.154,3.956,7.791
			c13.547,21.579,0.719,47.472-2.397,67.374c21.578,4.434,27.572,12.584,29.61,16.422c3.836,7.674,21.818,25.176,24.935,25.775
			c3.237,0.597,5.155,4.794,8.512,11.628c3.236,6.711,9.71,7.312,15.104,7.671c5.395,0.24,9.831-6.234,9.95-7.791
			c0.12-1.68-2.757-6.714-2.278-13.428c0.36-6.714-3.955-26.732-0.359-32.127c2.278-3.477,0.959-10.908-0.24-15.945
			c3.836,0,9.231-0.957,11.389-5.993c0,0-1.079-2.638-6.234-3.357h-0.599c1.438-0.957,2.637-2.276,3.476-4.194
			c0,0-1.078-2.517-6.233-3.236c-3.836-0.48-7.672-3.117-10.909-3.478c-6.473-11.508-16.184-26.492-28.891-42.197
			c-12.707-15.825-28.292-32.127-46.753-46.512c-1.918,4.794-3.717,10.668-4.556,17.021
			C1404.128,1518.684,1404.128,1524.677,1405.328,1530.551z"/>
		<path style="fill:#2B478B;" d="M1109.438,1558.703c-0.228,3.479-0.321,6.788-0.301,9.941
			c26.324,19.524,72.494,9.672,75.963-13.815c3.993-27.055-32.37-30.876-29.705-53.171c1.089-9.091-3.195-16.377-8.65-21.812
			c-45.148-2.676-45.573,6.638-45.573,6.638C1080.729,1506.497,1109.438,1558.703,1109.438,1558.703z"/>
	</g>
	<g>
		<path style="opacity:0.6;fill:#F8FCFF;" d="M1805.649,1229.729H875.414c-32.93,0-59.625-26.695-59.625-59.626V591.457
			c0-32.93,26.695-59.625,59.625-59.625h930.236c32.931,0,59.625,26.695,59.625,59.625v578.647
			C1865.274,1203.034,1838.58,1229.729,1805.649,1229.729z"/>
		<g>
			<path style="fill:#7FA4F4;" d="M1199.965,759.055c0,83.41-67.594,151.004-151.003,151.004s-151.004-67.594-151.004-151.004
				c0-83.409,67.595-151.003,151.004-151.003c9.481,0,18.774,0.867,27.765,2.563c-18.85,68.688-43.863,159.655-45.541,165.329
				c3.11-4.901,94.945-46.068,157.657-73.814C1196.026,719.697,1199.965,738.924,1199.965,759.055z"/>
			<path style="fill:#F99746;" d="M1197.245,685.661c-55.381,24.403-147.118,65.297-150.055,69.925
				c1.592-5.393,26.967-97.635,43.966-159.46C1138.224,609.04,1176.916,642.205,1197.245,685.661z"/>
		</g>
		<g>
			<path style="fill:#AEC3FF;" d="M1563.887,577.542c0-6.93,5.618-12.548,12.547-12.548c6.93,0,12.548,5.618,12.548,12.548
				s-5.618,12.548-12.548,12.548C1569.505,590.089,1563.887,584.472,1563.887,577.542z"/>
			<path style="fill:#AEC3FF;" d="M1629.016,577.542c0-6.93,5.618-12.548,12.549-12.548c6.93,0,12.547,5.618,12.547,12.548
				s-5.617,12.548-12.547,12.548C1634.634,590.089,1629.016,584.472,1629.016,577.542z"/>
			
				<ellipse transform="matrix(0.7071 -0.7071 0.7071 0.7071 92.1078 1377.4509)" style="fill:#F99746;" cx="1708.784" cy="577.542" rx="12.548" ry="12.548"/>
		</g>
		<g>
			<g>
				<path style="fill:#AEC3FF;" d="M1174.605,1177.752H882.42v-92.976h292.185V1177.752z M886.005,1174.166h285.015v-85.805H886.005
					V1174.166z"/>
			</g>
			<g>
				<rect x="903.591" y="1109.761" style="fill:#AEC3FF;" width="113.022" height="7.367"/>
				<rect x="1028.513" y="1109.761" style="fill:#AEC3FF;" width="80.196" height="7.367"/>
				<rect x="903.591" y="1130.807" style="fill:#AEC3FF;" width="62.375" height="7.367"/>
				<rect x="976.515" y="1130.807" style="fill:#AEC3FF;" width="80.196" height="7.367"/>
				<rect x="1065.016" y="1130.807" style="fill:#AEC3FF;" width="80.196" height="7.367"/>
			</g>
		</g>
		<g>
			<g>
				<path style="fill:#AEC3FF;" d="M1541.401,1130.807h-144.655v-46.03h144.655V1130.807z M1398.521,1129.031h141.105v-42.48
					h-141.105V1129.031z"/>
			</g>
			<g>
				<rect x="1407.227" y="1097.146" style="fill:#AEC3FF;" width="55.954" height="3.648"/>
				<rect x="1469.073" y="1097.146" style="fill:#AEC3FF;" width="39.703" height="3.648"/>
				<rect x="1407.227" y="1107.565" style="fill:#AEC3FF;" width="30.88" height="3.647"/>
				<rect x="1443.33" y="1107.565" style="fill:#AEC3FF;" width="39.703" height="3.647"/>
				<rect x="1487.145" y="1107.565" style="fill:#AEC3FF;" width="39.703" height="3.647"/>
			</g>
		</g>
		<g>
			<g>
				<path style="fill:#AEC3FF;" d="M1713.892,1130.807h-144.655v-46.03h144.655V1130.807z M1571.011,1129.031h141.106v-42.48
					h-141.106V1129.031z"/>
			</g>
			<g>
				<rect x="1579.718" y="1097.146" style="fill:#AEC3FF;" width="55.955" height="3.648"/>
				<rect x="1641.564" y="1097.146" style="fill:#AEC3FF;" width="39.703" height="3.648"/>
				<rect x="1579.718" y="1107.565" style="fill:#AEC3FF;" width="30.88" height="3.647"/>
				<rect x="1615.821" y="1107.565" style="fill:#AEC3FF;" width="39.703" height="3.647"/>
				<rect x="1659.636" y="1107.565" style="fill:#AEC3FF;" width="39.703" height="3.647"/>
			</g>
		</g>
		<g>
			<g>
				<path style="fill:#AEC3FF;" d="M1541.401,926.076h-144.655v-46.03h144.655V926.076z M1398.521,924.301h141.105v-42.48h-141.105
					V924.301z"/>
			</g>
			<g>
				<rect x="1407.227" y="892.415" style="fill:#AEC3FF;" width="55.954" height="3.647"/>
				<rect x="1469.073" y="892.415" style="fill:#AEC3FF;" width="39.703" height="3.647"/>
				<rect x="1407.227" y="902.834" style="fill:#AEC3FF;" width="30.88" height="3.647"/>
				<rect x="1443.33" y="902.834" style="fill:#AEC3FF;" width="39.703" height="3.647"/>
				<rect x="1487.145" y="902.834" style="fill:#AEC3FF;" width="39.703" height="3.647"/>
			</g>
		</g>
		<g>
			<g>
				<path style="fill:#AEC3FF;" d="M1713.892,926.076h-144.655v-46.03h144.655V926.076z M1571.011,924.301h141.106v-42.48h-141.106
					V924.301z"/>
			</g>
			<g>
				<rect x="1579.718" y="892.415" style="fill:#AEC3FF;" width="55.955" height="3.647"/>
				<rect x="1641.564" y="892.415" style="fill:#AEC3FF;" width="39.703" height="3.647"/>
				<rect x="1579.718" y="902.834" style="fill:#AEC3FF;" width="30.88" height="3.647"/>
				<rect x="1615.821" y="902.834" style="fill:#AEC3FF;" width="39.703" height="3.647"/>
				<rect x="1659.636" y="902.834" style="fill:#AEC3FF;" width="39.703" height="3.647"/>
			</g>
		</g>
		<g>
			<g>
				<path style="fill:#AEC3FF;" d="M1541.401,747.861h-144.655v-46.03h144.655V747.861z M1398.521,746.087h141.105v-42.481h-141.105
					V746.087z"/>
			</g>
			<g>
				<rect x="1407.227" y="714.201" style="fill:#AEC3FF;" width="55.954" height="3.647"/>
				<rect x="1469.073" y="714.201" style="fill:#AEC3FF;" width="39.703" height="3.647"/>
				<rect x="1407.227" y="724.62" style="fill:#AEC3FF;" width="30.88" height="3.647"/>
				<rect x="1443.33" y="724.62" style="fill:#AEC3FF;" width="39.703" height="3.647"/>
				<rect x="1487.145" y="724.62" style="fill:#AEC3FF;" width="39.703" height="3.647"/>
			</g>
		</g>
		<g>
			<g>
				<path style="fill:#AEC3FF;" d="M1713.892,747.861h-144.655v-46.03h144.655V747.861z M1571.011,746.087h141.106v-42.481h-141.106
					V746.087z"/>
			</g>
			<g>
				<rect x="1579.718" y="714.201" style="fill:#AEC3FF;" width="55.955" height="3.647"/>
				<rect x="1641.564" y="714.201" style="fill:#AEC3FF;" width="39.703" height="3.647"/>
				<rect x="1579.718" y="724.62" style="fill:#AEC3FF;" width="30.88" height="3.647"/>
				<rect x="1615.821" y="724.62" style="fill:#AEC3FF;" width="39.703" height="3.647"/>
				<rect x="1659.636" y="724.62" style="fill:#AEC3FF;" width="39.703" height="3.647"/>
			</g>
		</g>
		<g>
			<g>
				<path style="fill:#F99746;" d="M1301.451,673.076c0-9.039,7.327-16.365,16.365-16.365s16.365,7.327,16.365,16.365
					c0,9.038-7.327,16.365-16.365,16.365S1301.451,682.114,1301.451,673.076z"/>
				<g>
					<path style="fill:#F99746;" d="M1318.975,649.144h-1.592c-1.443,0-2.624-1.181-2.624-2.624v-30.54
						c0-1.443,1.181-2.624,2.624-2.624h1.592c1.443,0,2.624,1.181,2.624,2.624v30.54
						C1321.599,647.963,1320.418,649.144,1318.975,649.144z"/>
					<path style="fill:#F99746;" d="M1318.975,733.854h-1.592c-1.443,0-2.624-1.181-2.624-2.623v-30.54
						c0-1.443,1.181-2.624,2.624-2.624h1.592c1.443,0,2.624,1.181,2.624,2.624v30.54
						C1321.599,732.674,1320.418,733.854,1318.975,733.854z"/>
					<g>
						<path style="fill:#F99746;" d="M1337.47,688.667l0.938-1.286c0.851-1.166,2.5-1.424,3.666-0.573l24.671,18.001
							c1.166,0.851,1.424,2.5,0.573,3.666l-0.939,1.286c-0.851,1.166-2.5,1.424-3.666,0.573l-24.671-18.001
							C1336.877,691.482,1336.619,689.833,1337.47,688.667z"/>
						<path style="fill:#F99746;" d="M1269.039,638.736l0.938-1.287c0.851-1.166,2.5-1.423,3.666-0.573l24.671,18.001
							c1.166,0.851,1.424,2.5,0.573,3.666l-0.938,1.287c-0.851,1.165-2.5,1.424-3.666,0.573l-24.67-18.001
							C1268.446,641.552,1268.188,639.902,1269.039,638.736z"/>
					</g>
					<g>
						<path style="fill:#F99746;" d="M1299.047,689.313l1.061,1.188c0.962,1.076,0.868,2.743-0.208,3.705l-22.77,20.352
							c-1.076,0.962-2.744,0.868-3.705-0.208l-1.061-1.188c-0.962-1.076-0.869-2.743,0.208-3.705l22.771-20.352
							C1296.418,688.144,1298.086,688.237,1299.047,689.313z"/>
						<path style="fill:#F99746;" d="M1362.207,632.862l1.061,1.187c0.962,1.076,0.869,2.743-0.208,3.705l-22.77,20.352
							c-1.076,0.961-2.744,0.868-3.705-0.208l-1.061-1.187c-0.962-1.076-0.869-2.743,0.208-3.705l22.771-20.352
							C1359.578,631.692,1361.245,631.786,1362.207,632.862z"/>
					</g>
					<g>
						<path style="fill:#F99746;" d="M1293.002,672.004l-0.018,1.592c-0.016,1.443-1.21,2.61-2.653,2.594l-30.538-0.344
							c-1.443-0.017-2.61-1.211-2.594-2.653l0.018-1.592c0.016-1.443,1.21-2.61,2.653-2.594l30.538,0.344
							C1291.851,669.367,1293.018,670.561,1293.002,672.004z"/>
						<path style="fill:#F99746;" d="M1377.707,672.959l-0.018,1.592c-0.016,1.443-1.21,2.61-2.653,2.594l-30.538-0.344
							c-1.443-0.016-2.61-1.21-2.594-2.653l0.018-1.592c0.016-1.443,1.21-2.61,2.653-2.594l30.538,0.344
							C1376.556,670.322,1377.723,671.516,1377.707,672.959z"/>
					</g>
				</g>
			</g>
			<g>
				<g>
					<path style="fill:#AEC3FF;" d="M1722.88,683.573h-326.134v-26.448h326.134V683.573z M1399.841,680.478h319.944V660.22h-319.944
						V680.478z"/>
				</g>
				<rect x="1398.293" y="658.673" style="fill:#AEC3FF;" width="253.151" height="23.353"/>
			</g>
		</g>
		<g>
			<path style="fill:#AEC3FF;" d="M1295.554,856.417c0-21.371,32.776-61.664,32.776-61.664s32.775,40.293,32.775,61.664
				s-14.674,38.695-32.775,38.695S1295.554,877.788,1295.554,856.417z"/>
			<g>
				<g>
					<path style="fill:#F99746;" d="M1722.88,858.156h-326.134v-26.448h326.134V858.156z M1399.841,855.062h319.944v-20.258
						h-319.944V855.062z"/>
				</g>
				<rect x="1398.293" y="833.256" style="fill:#F99746;" width="154.704" height="23.353"/>
			</g>
		</g>
		<g>
			<path style="fill:#AEC3FF;" d="M1342.31,1067.161v-85.556h-18.465v85.556c-6.102,3.29-10.25,9.738-10.25,17.157
				c0,10.76,8.722,19.482,19.482,19.482c10.76,0,19.482-8.723,19.482-19.482C1352.56,1076.899,1348.412,1070.451,1342.31,1067.161z"
				/>
			<g>
				<g>
					<path style="fill:#AEC3FF;" d="M1722.88,1055.927h-326.134v-26.447h326.134V1055.927z M1399.841,1052.832h319.944v-20.258
						h-319.944V1052.832z"/>
				</g>
				<rect x="1398.293" y="1031.026" style="fill:#AEC3FF;" width="212.259" height="23.353"/>
			</g>
			<path style="fill:#F99746;" d="M1320.439,1084.234c0-6.979,5.658-12.638,12.638-12.638s12.638,5.658,12.638,12.638
				c0,6.98-5.658,12.639-12.638,12.639S1320.439,1091.215,1320.439,1084.234z"/>
			<rect x="1329.031" y="1038.973" style="fill:#F99746;" width="7.533" height="39.586"/>
		</g>
		<g>
			<rect x="884.213" y="1014.026" style="fill:#AEC3FF;" width="30.473" height="42.368"/>
			<rect x="936.413" y="985.943" style="fill:#AEC3FF;" width="30.473" height="70.451"/>
			<rect x="988.612" y="962.932" style="fill:#F99746;" width="30.473" height="93.462"/>
			<rect x="1040.812" y="981.606" style="fill:#AEC3FF;" width="30.473" height="74.789"/>
			<rect x="1093.012" y="941.804" style="fill:#AEC3FF;" width="30.473" height="114.59"/>
			<rect x="1145.211" y="921.36" style="fill:#F99746;" width="30.473" height="135.034"/>
		</g>
		<rect x="976.515" y="825.809" style="fill:#FFFFFF;" width="64.297" height="5.899"/>
		<rect x="976.515" y="839.318" style="fill:#FFFFFF;" width="98.532" height="5.899"/>
		<rect x="1090.641" y="647.421" style="fill:#FFFFFF;" width="64.297" height="5.899"/>
		<rect x="1090.641" y="660.93" style="fill:#FFFFFF;" width="40.252" height="5.899"/>
	</g>
	<g>
		<path style="fill:#FFB27D;" d="M2348.884,779.077c0,0,121.94,138.586,164.487,224.128c0,0-51.157,111.377-216.985,201.857
			c0,0-7.366-1.611-18.62-9.649c-17.547-12.532,1.896-21.71,5.738-24.198c42.073-27.253,115.583-144.639,117.71-154.825
			c2.127-10.186-92.137-101.539-120.783-135.315C2251.785,847.298,2304.351,761.677,2348.884,779.077z"/>
		<path style="fill:#FFB27D;" d="M2030.253,775.153c0,0-159.599,151.942-196.504,147.915
			c-36.905-4.026-181.259-38.888-181.259-38.888l-12.036,27.655c0,0,144.855,85.043,214.42,83.823
			c69.564-1.219,160.615-67.494,160.615-67.494L2030.253,775.153z"/>
		<path style="fill:#2C3A64;" d="M2146.095,575.27c0,0,0.795,17.086-9.452,20.428c-10.247,3.343,10.557,40.214,8.925,65.116
			c-1.631,24.902-12.65,34.897-12.65,34.897s5.291-13.697,2.332-22.168c0,0,0.473,17.62-12.392,26.506
			c-12.864,8.886-9.407,16.571-9.407,16.571s-29.076-8.707-29.892-30.515c0,0-1.247,9.856-0.242,13.94
			c0,0-25.105-18.852-26.304-40.572c-1.198-21.721,19.765-40.05,29.311-40.381c9.546-0.332,30.85-19.076,30.275-26.162
			C2116.024,585.844,2146.095,575.27,2146.095,575.27z"/>
		<path style="fill:#E2AF64;" d="M2065.741,453.201c16.919-25.69,84.089-11.311,150.029,32.115s105.681,99.456,88.763,125.146
			c-16.918,25.69-84.088,11.311-150.029-32.115C2088.563,534.92,2048.823,478.891,2065.741,453.201z"/>
		<path style="fill:#233862;" d="M2213.089,1368.718c-18.289,96.925-41.838,228.779-60.011,331.93
			c-2.152,12.18-4.229,23.947-6.213,35.212c-0.451,2.604-0.902,5.194-1.354,7.733h-181.645c-0.257-2.59-0.502-5.168-0.734-7.733
			c-8.119-87.851-7.024-165.494-1.945-230.003c1.945-25.005,4.523-48.05,7.372-68.956c11.948-123.464,15.97-175.78,17.181-193.077
			l0.258-3.814c0.013-0.232,0.025-0.451,0.039-0.645l0.038-0.58c0.026-0.349,0.052-0.657,0.064-0.929l0.039-0.76
			c0.013-0.258,0.025-0.374,0.025-0.374l61.919,18.418l30.289,9.01l7.141,22.685l14.28,45.356l103.667,33.446L2213.089,1368.718z"/>
		<path style="fill:#2B478B;" d="M2332.222,1393.129c-3.132,50.357-8.288,227.929-14.049,342.73
			c-0.13,2.617-0.258,5.194-0.387,7.733h-188.321c-0.58-2.564-1.16-5.143-1.74-7.733c-19.99-89.9-36.359-190.847-48.088-272.781
			c-2.063,0.09-23.562-146.329-77.438-210.877c-0.489-0.58-0.554-1.044-0.258-1.392c2.668-3.429,36.863,2.5,36.863,2.5
			c2.899,0.773,6.006,1.379,9.318,1.83c25.855,3.545,63.4-2.165,100.649-10.853c0,0,0,0,0.013,0
			c10.066-2.346,20.095-4.91,29.877-7.565c27.582-7.488,53.115-15.712,71.328-21.898c4.523-1.534,8.584-2.951,12.115-4.188
			c2.861-1.006,5.375-1.908,7.488-2.668c0.013,0,0.013,0,0.013,0c5.079-1.83,7.914-2.9,7.914-2.9s1.276,1.121,3.454,3.441
			c7.23,7.707,24.348,28.613,36.979,65.076C2328.136,1302.933,2335.392,1342.373,2332.222,1393.129z"/>
		<path style="fill:#2C3A64;" d="M2102.87,456.124l118.532,179.841c0,0,13.553-26.551,28.604-17.026
			c23.482,14.838,73.93-35.95,63.409-107.654c-0.694-4.689-1.516-9.143-2.431-13.375c-23.65-34.072-49.914-72.012-68.76-98.684
			C2187.791,366.348,2102.87,456.124,2102.87,456.124z"/>
		<path style="fill:#FFB27D;" d="M2050.777,819.422c16.587,15.197,38.127,28.799,66.052,39.372
			c104.671,39.665,158.508-46.038,182.588-106.619c-13.59-10.438-27.204-14.183-35.083-16.228
			c-6.15-1.587-12.588-3.012-18.377-4.165c-3.052-0.608-5.771-2.36-7.49-4.955c-9.982-15.065-20.084-53.241-16.452-106.905
			l-5.269,0.672l-88.34,11.728c0,0,0.219,27.604-1.349,53.454c-0.684,11.1-1.706,21.881-3.222,30.039
			c-1.449,7.8-7.884,13.694-15.781,14.458l-0.001,0c0,0-0.009,0.027-0.054,0.074
			C2106.602,732.065,2076.367,769.341,2050.777,819.422z"/>
		<path style="fill:#ED985F;" d="M2128.399,632.337c0,0,0.237,27.584-1.35,53.453c48.909,1.731,77.55-41.163,89.694-65.177
			L2128.399,632.337z"/>
		<path style="fill:#FFB27D;" d="M2110.536,655.792c0,0,115.39,9.257,120.049-62.691s22.689-119.208-50.787-128.161
			c-73.477-8.952-89.583,17.574-96.979,41.21C2075.423,529.787,2080.641,651.529,2110.536,655.792z"/>
		<path style="fill:#2C3A64;" d="M2088.8,466.362c19.233-20.506,32.424-14.897,39.569-7.91
			c65.348-30.692,102.764,23.217,102.764,23.217c4.44,52.119,39.788,84.064,39.788,84.064s-21.882,11.665-69.624-3.905
			c-14.583-4.756-27.15-16.136-37.588-29.632c17.547,34.176,42.773,59.599,42.773,59.599
			c-56.271-30.49-74.421-112.607-76.197-121.281c-7.455,5.883-22.23,18.754-27.326,31.967
			c-6.924,17.957-11.915,55.511-22.827,53.528C2080.132,556.008,2059.956,497.115,2088.8,466.362z"/>
		<path style="fill:#EDBD77;" d="M2315.878,546.687c0,0,53.664-106.815-21.325-149.04c-74.989-42.224-129.877-25.644-171.134,25.995
			L2315.878,546.687z"/>
		<path style="fill:#F99746;" d="M2318.937,944.233c4.109,4.279,6.677,6.693,6.677,6.693c87.409-10.881,91.512-100.64,91.512-100.64
			s-68.419-90.225-132.295-110.072c-15.549-4.831-38.865-8.428-38.865-8.428c-19.986,16.572-43.01,40.858-64.661,60.606
			c-24.965,22.771-67.929,30.504-83.824-9.881c-6.367-16.175,8.943-49.752,10.513-52.165c0.045-0.062,0.052-0.084,0.052-0.084
			c-1.64,0.106-3.235,0.228-4.8,0.333c-7.831,0.627-14.885,1.583-21.294,2.227c-31.173,3.127-74.23,23.787-161.231,133.906
			c0,0,47.012,58.063,94.771,61.438c-1.917,91.98,7.957,241.802,7.957,241.802c-20.86,41.026,289.073,136.058,302.454,96.924
			c20.063-30.61,0.041-89.222-17.301-134.146c-4.251-10.966-5.188-22.652-8.972-31.136c-2.415-5.436-4.35-11.047-5.771-16.77
			c-3.603-14.351-3.991-29.412-0.999-44.053C2300.15,1005.229,2310.111,972.008,2318.937,944.233z"/>
		<path style="fill:#FFCF83;" d="M2321.73,533.023c-2.256-2.32-4.576-4.653-6.974-6.998l-0.013-0.013
			c-23.136-22.62-52.639-45.73-86.498-66.855c-27.247-16.988-54.392-30.882-79.859-41.296h-0.014
			c-5.039-2.075-10.015-3.996-14.912-5.787c-58.388-21.357-105.445-22.981-119.688-0.155
			c-15.028,24.077,10.401,68.917,60.205,114.402l0.013,0.013c-0.039-0.399-0.091-0.786-0.129-1.173
			c-0.039-0.387-0.064-0.786-0.104-1.186c-0.038-0.451-0.077-0.915-0.115-1.379c-0.026-0.335-0.052-0.67-0.078-1.018
			c-0.025-0.567-0.064-1.134-0.103-1.714c-0.039-0.722-0.078-1.444-0.104-2.178c0-0.078-0.013-0.168-0.013-0.258
			c-0.025-0.528-0.039-1.07-0.052-1.611v-0.502c-0.013-0.348-0.013-0.696-0.013-1.057c-0.013-1.263,0-2.552,0.025-3.828
			c0-0.451,0.014-0.915,0.039-1.366c0.013-0.258,0.025-0.516,0.025-0.773c0.026-0.425,0.039-0.851,0.077-1.263
			c0.039-0.786,0.091-1.56,0.155-2.333c0.064-0.773,0.142-1.546,0.219-2.333c0-0.039,0.013-0.09,0.013-0.129
			c0.026-0.283,0.064-0.567,0.091-0.837c0.025-0.181,0.038-0.361,0.064-0.529c0.077-0.541,0.142-1.082,0.219-1.624
			c0.116-0.889,0.258-1.766,0.426-2.642c0.025-0.142,0.052-0.296,0.077-0.438c0.181-1.044,0.387-2.075,0.632-3.106
			c0.103-0.516,0.231-1.031,0.36-1.534c0.013-0.064,0.026-0.129,0.039-0.193c-5.323-11.213-6.29-20.906-1.946-27.866
			c5.026-8.068,16.472-11.329,32.003-10.311c0.014,0,0.014,0,0.026,0c0.425,0.026,0.851,0.064,1.288,0.103h0.014
			c5.735,0.439,11.999,1.444,18.688,3.003h0.013c1.573,0.361,3.158,0.748,4.782,1.173c5.877,1.546,12.052,3.467,18.444,5.774h0.077
			c19.114,6.895,40.123,17.142,61.261,30.328c8.777,5.477,17.091,11.174,24.863,16.962h0.013c0.773,0.58,1.547,1.16,2.308,1.74
			c35.921,27.247,59.65,56.518,62.369,76.741c0.722,5.375-0.025,10.118-2.475,14.011c-0.193,0.309-0.399,0.605-0.632,0.902
			c-0.025,0.052-0.052,0.09-0.077,0.129c-1.585,2.178-3.686,3.957-6.251,5.375c-0.013,0.013-0.013,0.013-0.025,0.013
			c-0.349,0.206-0.696,0.387-1.058,0.554c-0.013-0.013-0.013,0-0.013,0c-2.629,1.289-5.71,2.217-9.151,2.784
			c-0.013,0-0.013,0-0.013,0s0,0-0.013,0c-0.335,0.271-0.67,0.528-1.006,0.786c-0.244,0.193-0.502,0.387-0.76,0.567
			c-0.245,0.18-0.49,0.36-0.748,0.541c-0.077,0.052-0.154,0.103-0.232,0.168c-0.438,0.284-0.862,0.58-1.288,0.864
			c-0.671,0.438-1.354,0.851-2.023,1.25c-0.335,0.193-0.671,0.387-1.005,0.567c-0.336,0.18-0.671,0.361-1.006,0.528
			c-0.451,0.232-0.89,0.451-1.341,0.657c-0.167,0.09-0.335,0.167-0.503,0.232c-0.167,0.078-0.334,0.142-0.502,0.219
			c-0.013,0-0.013,0.013-0.025,0.013c-0.039,0.013-0.078,0.039-0.117,0.052c-0.205,0.09-0.412,0.168-0.618,0.258
			c-0.31,0.116-0.605,0.245-0.915,0.348c-0.387,0.142-0.761,0.284-1.135,0.399c-0.36,0.116-0.721,0.232-1.069,0.322
			c-0.025,0.013-0.064,0.026-0.103,0.039c-0.297,0.078-0.58,0.155-0.877,0.219c-0.104,0.039-0.206,0.064-0.322,0.09
			c-0.271,0.064-0.541,0.129-0.824,0.18c-0.336,0.065-0.671,0.129-1.019,0.181c-0.206,0.038-0.413,0.064-0.619,0.09
			c-0.245,0.039-0.489,0.065-0.734,0.09c-0.322,0.039-0.632,0.065-0.954,0.078c-0.129,0.013-0.258,0.013-0.387,0.013h-0.154
			c-0.077,0.013-0.168,0.013-0.245,0.013h-0.09c-0.116,0.013-0.22,0.013-0.335,0.013c-0.838,0-1.676-0.052-2.488-0.155
			c-0.812-0.103-1.611-0.27-2.385-0.477c-0.386-0.116-0.772-0.232-1.146-0.361c-0.283-0.103-0.567-0.219-0.838-0.335
			c-0.206-0.077-0.412-0.168-0.619-0.271c-0.167-0.077-0.334-0.154-0.502-0.245c-0.142-0.065-0.297-0.142-0.438-0.232
			c-0.296-0.155-0.58-0.322-0.863-0.503c-0.593-0.374-1.186-0.696-1.766-0.954c-0.194-0.09-0.387-0.168-0.567-0.245
			c-0.077-0.026-0.154-0.065-0.232-0.09c-0.283-0.116-0.566-0.207-0.851-0.284c-1.121-0.335-2.229-0.49-3.325-0.49
			c-0.013,0-0.013,0-0.025,0h-0.129c-0.039,0-0.077,0-0.116,0.013h-0.155c-0.141,0-0.27,0.013-0.412,0.025
			c-0.09,0-0.18,0-0.271,0.013c-0.245,0.026-0.478,0.051-0.709,0.09c-0.025,0-0.052,0.013-0.077,0.013
			c-0.104,0.013-0.219,0.039-0.322,0.065c-0.193,0.026-0.374,0.064-0.555,0.116c-0.18,0.039-0.36,0.09-0.554,0.142
			c-0.22,0.052-0.425,0.116-0.645,0.193c-0.142,0.051-0.284,0.103-0.425,0.154c-0.207,0.064-0.426,0.155-0.632,0.245
			c-0.013,0-0.013,0-0.013,0c-0.168,0.065-0.322,0.129-0.49,0.206c-0.154,0.078-0.31,0.142-0.451,0.219
			c-0.181,0.078-0.348,0.181-0.528,0.271l-0.503,0.271c-0.18,0.103-0.348,0.206-0.516,0.309c-0.167,0.103-0.322,0.207-0.49,0.31
			c-0.166,0.103-0.334,0.206-0.502,0.322c-0.168,0.103-0.335,0.219-0.49,0.348c-0.322,0.219-0.644,0.464-0.953,0.722
			c-0.168,0.116-0.322,0.245-0.465,0.374c-0.154,0.129-0.309,0.258-0.463,0.399c-0.311,0.258-0.606,0.529-0.902,0.799
			c-0.297,0.258-0.594,0.542-0.877,0.838c-0.142,0.142-0.283,0.283-0.425,0.438c-0.143,0.142-0.284,0.284-0.413,0.425
			c-0.167,0.155-0.309,0.31-0.451,0.464h0.014c5.645,2.333,11.2,4.485,16.665,6.47c17.517,6.354,33.988,10.93,48.862,13.61
			c34.452,6.2,60.242,2.166,70.154-13.713C2378.196,609.854,2360.126,572.644,2321.73,533.023z"/>
		<path style="fill:#ED7D2B;" d="M2252.527,1138.676c44.638,14.303,23.796-10.172,58.279-7.683
			c-4.25-10.966-7.395-20.9-11.179-29.383c-2.415-5.437-4.35-11.048-5.771-16.771c-3.604-14.351-3.992-29.412-1-44.053
			c7.967-38.845,16.703-67.345,26.079-96.554c-9.864-25.919-51.965,16.574-51.965,16.574s-38.984,40.952-28.778,110.593
			C2247.701,1136.281,2214.009,1126.333,2252.527,1138.676z"/>
		<path style="fill:#2B478B;" d="M2284.83,740.214c0,0-72.08,46.061-90.512,143.174l-21.797-6.922c0,0,9.185-69.975,92.559-141.172
			c0,0,6.283,1.244,8.387,1.769C2276.301,737.769,2284.83,740.214,2284.83,740.214z"/>
		<path style="fill:#2B478B;" d="M2030.253,885.851l22.823,1.498c-4.569-84.2,37.685-141.681,50.176-156.745
			c-7.831,0.626-14.926,1.386-21.293,2.226C2035.634,803.563,2030.253,885.851,2030.253,885.851z"/>
		<path style="fill:#2B478B;" d="M2192.132,937.256c1.411-5.998,15.375-64.293,15.375-64.293s3.218-18.226-28.808-20.027
			c-32.027-1.801-145.652-7.792-145.652-7.792s-15.48,9.346-15.712,28.521c-0.23,19.174-15.691,128.882-15.691,128.882
			l-15.905,241.277l346.488,149.3c0,0,23.757-121.946-2.845-206.942c-15.515-49.572-35.517-101.333-35.517-101.333
			S2170.569,1028.874,2192.132,937.256z"/>
		<g>
			<g>
				<path style="fill:#ED7D2B;" d="M2195.216,874.918c1.601-5.038-1.188-10.42-6.226-12.02c-5.038-1.6-10.42,1.188-12.02,6.226
					c-1.6,5.038,1.188,10.42,6.226,12.02C2188.234,882.744,2193.616,879.956,2195.216,874.918z"/>
				<path style="fill:#F99746;" d="M2193.576,874.398c1.601-5.038-1.187-10.419-6.225-12.02c-5.039-1.6-10.42,1.188-12.02,6.226
					c-1.6,5.039,1.188,10.419,6.226,12.019C2186.596,882.223,2191.977,879.435,2193.576,874.398z"/>
			</g>
			<path style="fill:#2B478B;" d="M2190.387,871.491c-0.002-0.768-0.625-1.39-1.394-1.389c-0.769,0.001-1.39,0.625-1.389,1.393
				c0.001,0.768,0.625,1.39,1.394,1.389C2189.766,872.883,2190.388,872.259,2190.387,871.491z"/>
			<path style="fill:#2B478B;" d="M2181.304,871.505c-0.001-0.768-0.625-1.39-1.394-1.388c-0.768,0.001-1.39,0.625-1.388,1.393
				c0.001,0.768,0.624,1.39,1.393,1.388C2180.684,872.898,2181.305,872.273,2181.304,871.505z"/>
		</g>
		<g>
			<g>
				<path style="fill:#ED7D2B;" d="M2054.33,862.758c1.6-5.039-1.188-10.419-6.226-12.02s-10.419,1.188-12.02,6.226
					c-1.6,5.038,1.188,10.419,6.226,12.019C2047.35,870.583,2052.73,867.796,2054.33,862.758z"/>
				<path style="fill:#F99746;" d="M2052.691,862.237c1.6-5.039-1.188-10.42-6.227-12.02c-5.038-1.6-10.419,1.188-12.019,6.226
					c-1.601,5.038,1.187,10.419,6.226,12.019C2045.71,870.063,2051.091,867.275,2052.691,862.237z"/>
			</g>
			<path style="fill:#2B478B;" d="M2049.501,859.331c-0.001-0.768-0.625-1.39-1.394-1.389c-0.768,0.002-1.39,0.625-1.389,1.393
				c0.002,0.768,0.625,1.39,1.394,1.389C2048.881,860.723,2049.502,860.099,2049.501,859.331z"/>
			<path style="fill:#2B478B;" d="M2040.418,859.345c-0.001-0.768-0.625-1.39-1.394-1.389c-0.768,0.002-1.39,0.625-1.389,1.393
				c0.002,0.768,0.625,1.39,1.394,1.389C2039.797,860.737,2040.419,860.113,2040.418,859.345z"/>
		</g>
		<path style="fill:#2C3A64;" d="M2299.942,588.977c0,0,0.794,17.085-9.453,20.428c-10.247,3.343,10.557,40.214,8.926,65.116
			c-1.632,24.902-12.651,34.897-12.651,34.897s5.291-13.697,2.332-22.169c0,0,0.473,17.62-12.392,26.506
			c-12.864,8.887-9.407,16.571-9.407,16.571s-29.075-8.707-29.892-30.515c0,0-1.247,9.856-0.242,13.941
			c0,0-25.105-18.852-26.304-40.572c-1.197-21.721,19.765-40.05,29.311-40.381c9.547-0.331,30.85-19.076,30.275-26.162
			C2269.871,599.55,2299.942,588.977,2299.942,588.977z"/>
		<path style="fill:#FFF2E9;" d="M2146.109,615.584c0,0-17.194,10.423-29.432,9.21c-12.119-1.201-18.721-15.817-18.721-15.817
			S2121.47,605.507,2146.109,615.584z"/>
		<g>
			<g>
				<path style="fill:#A4C9FF;" d="M2255.15,1236.723h-231.577c-9.694,0-20.745-7.858-24.684-17.553l-58.296-143.515
					c-3.938-9.694,0.729-17.554,10.424-17.554h231.576c9.695,0,20.746,7.859,24.684,17.554l58.296,143.515
					C2269.512,1228.864,2264.846,1236.723,2255.15,1236.723z"/>
			</g>
			<g>
				<path style="fill:#71A4FF;" d="M2241.331,1236.723h-231.577c-9.694,0-20.746-7.858-24.684-17.553l-58.296-143.515
					c-3.938-9.694,0.729-17.554,10.423-17.554h231.577c9.694,0,20.746,7.859,24.684,17.554l58.296,143.515
					C2255.691,1228.864,2251.025,1236.723,2241.331,1236.723z"/>
				<g>
					<path style="fill:#2B478B;" d="M1949.902,1069.108L1949.902,1069.108c4.409,0,9.481,3.607,11.272,8.016l0,0
						c1.79,4.409-0.352,8.016-4.76,8.016l0,0c-4.409,0-9.481-3.606-11.271-8.016l0,0
						C1943.353,1072.716,1945.494,1069.108,1949.902,1069.108z"/>
					<path style="fill:#2B478B;" d="M1975.355,1072.447L1975.355,1072.447c2.572,0,5.532,2.104,6.577,4.677l0,0
						c1.045,2.572-0.205,4.678-2.777,4.678l0,0c-2.572,0-5.532-2.105-6.577-4.678l0,0
						C1971.533,1074.552,1972.783,1072.447,1975.355,1072.447z"/>
				</g>
			</g>
			<path style="fill:#A4C9FF;" d="M2065.952,1142.868c-3.864-9.514,0.715-17.226,10.229-17.226c9.513,0,20.357,7.712,24.222,17.226
				c3.864,9.513-0.715,17.225-10.229,17.225C2080.661,1160.093,2069.816,1152.381,2065.952,1142.868z"/>
		</g>
		<g>
			<path style="fill:#FFB27D;" d="M2282.729,1172.949c0,0-31.843-18.155-39.518-26.546c-4.954-5.416-5.252,1.551-4.935,3.506
				c0.638,3.917,1.224,11.704,10.285,19.11C2261.607,1179.682,2282.729,1172.949,2282.729,1172.949z"/>
			<path style="fill:#FFB27D;" d="M2282.729,1172.949c0,0-57.436-17.252-70.665-15.755c-13.229,1.498-43.439,10.913-45.872,13.368
				c-2.434,2.454,7.966,5.047,15.877,2.734c10.142-2.964,26.11,0.367,26.11,0.367s-32.197,6.981-40.264,10.533
				c-0.805,0.354-0.947,1.452-0.259,1.999c1.931,1.534,6.886,2.485,14.01,1.495c10.226-1.423,28.175-1.166,28.175-1.166
				l-36.604,7.955c-0.456,0.1-0.799,0.504-0.782,0.971c0.06,1.737,2.984,3.601,11.535,3.988c6.591,0.299,28.91-2.997,28.91-2.997
				l-19.881,10.492c0,0,4.817,3.45,14.97,0.099c6.965-2.299,27.736-7.501,32.534-6.49c4.798,1.012,28.729,9.465,40.031,8.018
				c11.037-1.412,15.831-3.498,15.831-3.498L2282.729,1172.949z"/>
		</g>
		<g>
			<path style="fill:#FFB27D;" d="M1652.49,884.181c0,0-28.817-30.788-39.408-34.46s-48.392-10.049-48.392-10.049
				s0.152,9.045,17.068,15.287s20.461,35.581,30.467,43.885c10.005,8.304,36.454,15.487,36.454,15.487L1652.49,884.181z"/>
			<path style="fill:#FFB27D;" d="M1640.454,911.835c0,0-28.076-1.227-37.197-6.957s-23.979-13.224-21.114-17.785
				c2.866-4.561,33.826-1.121,33.826-1.121L1640.454,911.835z"/>
			<path style="fill:#FFB27D;" d="M1610.806,855.09c-1.472-0.661-38.912-25.693-38.912-25.693s-3.154,11.865,2.36,14.118
				C1579.769,845.768,1610.806,855.09,1610.806,855.09z"/>
		</g>
		<path style="fill:#FFB27D;" d="M2442.37,1096.992c-33.589,33.924-80.968,72.604-145.98,108.074c0,0-7.372-1.611-18.624-9.654
			c-17.542-12.527,1.895-21.705,5.735-24.192c19.063-12.348,44.597-43.217,67.01-74.228H2442.37z"/>
	</g>
	<path style="fill:#82B378;" d="M597.938,1740.603H317.353c-0.039-0.103-0.078-0.206-0.116-0.309
		c-0.348-0.915-0.812-2.153-1.405-3.726l-0.232-0.464c0,0,0,0,0-0.231c0,0-0.232-0.245-0.232-0.478
		c-0.941-1.882-1.65-4.008-2.591-6.586c-0.477-1.186-0.941-2.604-1.65-4.009c0-0.231,0-0.231,0-0.477
		c-0.232-0.232-0.232-0.232-0.232-0.232c-3.236-8.403-7.245-19.346-11.872-32.57c-0.413-1.198-0.838-2.41-1.276-3.635
		c-3.467-9.988-7.283-21.176-11.343-33.498c-1.869-5.787-3.79-11.832-5.762-18.109c27.727-7.721,63.975-13.043,96.253-2.564
		c20.87,6.779,34.997,16.807,45.941,26.771c22.21,20.21,31.388,40.188,57.246,32.415c6.419-1.933,14.089-3.08,22.403-3.441
		C544.107,1687.591,601.663,1705.158,597.938,1740.603z"/>
	<path style="fill:#2E3552;" d="M3072.723,1739.172v1.122c0,1.817-1.481,3.299-3.299,3.299H159.405c-1.817,0-3.3-1.481-3.3-3.299
		v-1.122c0-1.817,1.482-3.313,3.3-3.313h2910.019C3071.241,1735.859,3072.723,1737.354,3072.723,1739.172z"/>
</g>
</svg>
