<?xml version="1.0" encoding="utf-8"?>
<!-- Generator: Adobe Illustrator 27.5.0, SVG Export Plug-In . SVG Version: 6.00 Build 0)  -->
<svg version="1.1" id="Layer_1" xmlns="http://www.w3.org/2000/svg" xmlns:xlink="http://www.w3.org/1999/xlink" x="0px" y="0px"
	 viewBox="0 0 2700 2000" style="enable-background:new 0 0 2700 2000;" xml:space="preserve">
<rect x="0" style="fill:#FFFFFF;" width="2700" height="2000"/>
<g>
	<g>
		<path style="fill:#6EA7CE;" d="M2355.706,764.928c-63.981-34.532-0.051-294.661-223.222-382.79
			c-195.833-77.334-355.088,8.834-390.726-149.361c-67.346-298.942-824.377-115.621-1000.998-35.556
			c-574.386,260.38-543.134,819.774-543.134,904.962v478.092l2222.446,18.049c25.34,0.047,80.511-70.652,104.952-215.922
			l-7.819-325.287c0-60.178-14.629-119.595-43.558-172.364C2446.26,834.792,2407.904,793.101,2355.706,764.928z"/>
		<path style="fill:#45AD92;" d="M2085.727,1090.379c-190.819,31.75-448.618,241.35-692.854,363.711v91.543l1124.333,3.324v-180.004
			C2410.415,1229.248,2246.745,1063.588,2085.727,1090.379z"/>
		<g>
			<path style="fill:#184655;" d="M1928.222,981.553c0.104-3.473,4.896-6.169,7.438-3.09c2.533,3.069,2.425,0.996,4.894,7.635
				c7.084,19.057,17.495,37.494,29.613,53.607c23.22,30.875,46.207,46.449,72.306,61.881c-10.755-24.23-17.957-50.094-18.874-76.186
				c-0.335-9.506-0.152-19.367,3.915-28.092c1.136-2.436,5.501-1.936,5.943,0.779c2.192,13.463-1.034,23.612,3.323,47.709
				c10.398,57.492,51.551,118.477,91.251,161.18c-7.613-72.295-11.304-154.455,2.312-227.373c2.233-11.96,5.784-23.337,9.084-35.022
				c0.775-2.748,4.683-1.567,4.201,1.162c-0.685,3.888-7.171,54.066-7.563,57.524c-6.292,55.533-5.035,117.053-0.138,173.154
				c30.795-41.703,51.407-90.475,61.045-141.408c2.85-15.055,3.609-30.6,7.604-45.375c0.551-2.035,3.914-2.254,4.332,0
				c4.103,22.137-4.111,61.299-10.098,82.577c-12.133,43.121-31.543,81.773-58.081,116.303
				c-1.031,1.342,42.618,338.756,41.444,343.029c-1.979,7.205-14.531,12.262-16.479-0.521c-0.793-5.205-24.777-210.367-35.6-305.4
				c-4.089-2.254-6.72-6.262-17.239-18.086c-24.347-27.367-48.422-61.42-64.513-93.535c-9.657-0.549-79.385-34.477-113.974-111.732
				c-0.997-2.226-5.488-12.685-6.131-15.017C1927.688,985.257,1928.162,983.526,1928.222,981.553z"/>
			<path style="fill:#50BFA5;" d="M2152.161,872.154c-0.795-10.385-1.208-21.006-1.208-31.812
				c0-120.517,51.151-218.216,114.249-218.216c63.099,0,114.25,97.699,114.25,218.216c0,10.806-0.413,21.427-1.208,31.812H2152.161z
				"/>
			<path style="fill:#96D9C9;" d="M2022.861,818.523c-0.794-14.646-1.207-29.624-1.207-44.864
				c0-169.962,51.151-307.743,114.249-307.743s114.25,137.781,114.25,307.743c0,15.239-0.414,30.218-1.208,44.864H2022.861z"/>
			<path style="fill:#96D9C9;" d="M2064.692,1007.102c0.795-10.385,1.208-21.006,1.208-31.812
				c0-120.517-51.151-218.216-114.25-218.216c-63.098,0-114.249,97.699-114.249,218.216c0,10.806,0.413,21.427,1.208,31.812
				H2064.692z"/>
			<path style="fill:#50BFA5;" d="M2247.54,1007.102c1.007-14.645,1.531-29.623,1.531-44.863
				c0-169.962-64.845-307.743-144.834-307.743s-144.833,137.781-144.833,307.743c0,15.239,0.524,30.218,1.531,44.863H2247.54z"/>
			<path style="fill:#96D9C9;" d="M2136.336,654.497c39.978,0,75.691,43.71,99.263,112.262c12.002-6.294,24.755-9.684,37.975-9.684
				c70.977,0,128.516,97.699,128.516,218.216c0,10.806-0.465,21.427-1.358,31.811h-391.552c-0.894-14.645-1.358-29.623-1.358-44.863
				C2007.82,792.278,2065.358,654.497,2136.336,654.497z"/>
		</g>
		<polygon style="fill:#50BFA5;" points="262.246,1177.91 281.466,1333.238 243.026,1333.238 		"/>
		<polygon style="fill:#50BFA5;" points="310.814,1082.746 336.051,1286.693 285.579,1286.693 		"/>
		<g>
			<path style="fill:#3C8F7C;" d="M1599.24,1536.664c-306.416,0-710.424-388.156-978.538-432.768
				c-158.676-26.402-318.259,124.092-423.496,261.762v177.387l2069.671-6.117c-37.136-1.498-82.646-5.229-130.027-13.59
				C2021.943,1503.061,1905.657,1536.664,1599.24,1536.664z"/>
			<path style="fill:#86B1F2;" d="M2355.706,1536.664l-88.829,0.264C2319.8,1539.063,2355.706,1536.664,2355.706,1536.664z"/>
		</g>
		<polygon style="fill:#50BFA5;" points="1341.584,954.271 1316.348,1158.219 1366.82,1158.219 		"/>
		<polygon style="fill:#50BFA5;" points="1265.192,1027.979 1245.973,1183.307 1284.413,1183.307 		"/>
		<polygon style="fill:#50BFA5;" points="1460.479,1112.16 1441.259,1267.488 1479.698,1267.488 		"/>
		<polygon style="fill:#50BFA5;" points="1411.91,1016.995 1386.675,1220.943 1437.146,1220.943 		"/>
		<path style="fill:#45AD92;" d="M608.292,1486.682c0,0,301.991-486.133,417.059-507.827
			c115.067-21.694,213.64,177.108,213.64,177.108s52.096-45.43,132.194-27.688c80.098,17.742,509.723,420.92,509.723,420.92
			l-1294.663-16.145L608.292,1486.682z"/>
		<path style="fill:#50BFA5;" d="M207.41,1543.395c0,0,293.958-255.346,672.989-271.031
			c127.278-5.268,1565.724,271.758,1628.349,274.277L207.41,1543.395z"/>
		<g>
			<polygon style="fill:#FFFBE3;" points="879.03,1486.209 849.314,1486.209 849.314,1313.375 864.172,1299.199 879.03,1313.375 			
				"/>
			<polygon style="fill:#FFFBE3;" points="925.658,1486.209 895.942,1486.209 895.942,1313.375 910.8,1299.199 925.658,1313.375 			
				"/>
			<polygon style="fill:#FFFBE3;" points="1014.334,1486.209 984.619,1486.209 984.619,1313.375 999.477,1299.199 
				1014.334,1313.375 			"/>
			<polygon style="fill:#FFFBE3;" points="969.996,1486.209 940.281,1486.209 940.281,1313.375 955.139,1299.199 969.996,1313.375 
							"/>
			<polygon style="fill:#FFFBE3;" points="1060.963,1486.209 1031.248,1486.209 1031.248,1313.375 1046.105,1299.199 
				1060.963,1313.375 			"/>
			<polygon style="fill:#FFFBE3;" points="1149.64,1486.209 1119.924,1486.209 1119.924,1313.375 1134.782,1299.199 
				1149.64,1313.375 			"/>
			<polygon style="fill:#FFFBE3;" points="1105.301,1486.209 1075.586,1486.209 1075.586,1313.375 1090.443,1299.199 
				1105.301,1313.375 			"/>
			<polygon style="fill:#FFFBE3;" points="1196.268,1486.209 1166.553,1486.209 1166.553,1313.375 1181.41,1299.199 
				1196.268,1313.375 			"/>
			<polygon style="fill:#FFFBE3;" points="1284.945,1486.209 1255.229,1486.209 1255.229,1313.375 1270.087,1299.199 
				1284.945,1313.375 			"/>
			<polygon style="fill:#FFFBE3;" points="1240.606,1486.209 1210.891,1486.209 1210.891,1313.375 1225.749,1299.199 
				1240.606,1313.375 			"/>
			<polygon style="fill:#FFFBE3;" points="1197.422,1356.76 1193.702,1356.76 1055.468,1356.76 1051.748,1356.76 843.275,1356.76 
				843.275,1366.281 1051.748,1366.281 1055.468,1366.281 1193.702,1366.281 1197.422,1366.281 1339.376,1366.281 1339.376,1356.76 
							"/>
			<polygon style="fill:#FFFBE3;" points="1197.422,1426.617 1193.702,1426.617 1055.468,1426.617 1051.748,1426.617 
				843.275,1426.617 843.275,1436.139 1051.748,1436.139 1055.468,1436.139 1193.702,1436.139 1197.422,1436.139 1339.376,1436.139 
				1339.376,1426.617 			"/>
			<polygon style="fill:#FFFBE3;" points="1331.573,1486.209 1301.858,1486.209 1301.858,1313.375 1316.716,1299.199 
				1331.573,1313.375 			"/>
		</g>
		<g>
			<polygon style="fill:#9E4233;" points="659.296,1313.727 894.456,1315.588 901.713,1299.844 674.915,1080.154 452.067,1106.098 
							"/>
			<polygon style="fill:#B75742;" points="468.678,1104.162 653.926,1082.598 894.456,1315.588 628.436,1313.014 			"/>
			<polygon style="fill:#184655;" points="670.394,1285.707 596.847,1368.441 632.437,1525.469 779.606,1509.619 794.624,1328.063 
							"/>
			<polygon style="fill:#EAB054;" points="326.468,1561.088 577.386,1531.877 540.457,1350.252 289.539,1379.463 			"/>
			<polygon style="fill:#082026;" points="376.945,1510.01 466.047,1499.637 438.447,1376.928 349.345,1387.301 			"/>
			<path style="fill:#F7CC7F;" d="M679.583,1098.803l-14.846,20.783l203.438,194.65l-9.628,187.061l-94.462,9.957l-16.417-141.018
				c-3.921-33.682-34.405-57.809-68.087-53.887h-0.001c-33.682,3.92-57.808,34.404-53.887,68.086l16.262,139.691l-85.572,9.021
				l-76.164-303.105L679.583,1098.803z"/>
			<polygon style="fill:#184655;" points="391.272,1508.342 480.374,1497.969 452.773,1375.26 363.672,1385.633 			"/>
			<g style="opacity:0.6;">
				<path style="fill:#EAB054;" d="M846.126,1502.607l-4.79,0.504l-12.386-226.393l-67.828-64.877l20.877,297.525l-2.396,0.252
					l-2.397,0.168l-21.253-302.891l-68.33-65.357l15.832,176.727c-1.622-0.461-3.268-0.855-4.935-1.184l-16.179-180.596
					l-14.843-14.197l0.08,0.014l200.598,191.934l-34.142-32.656L846.126,1502.607z"/>
				<path style="fill:#EAB054;" d="M640.869,1336.475c-1.372,1.539-2.669,3.143-3.881,4.813l-30.805-142.582l4.702-1.016
					L640.869,1336.475z"/>
				<polygon style="fill:#EAB054;" points="596.681,1528.9 591.872,1529.406 544.143,1300.623 548.853,1299.639 				"/>
			</g>
			<path style="fill:#EAB054;" d="M709.973,1311.234c0.182,1.564,1.598,2.686,3.161,2.502c1.564-0.182,2.684-1.598,2.502-3.16
				c-0.183-1.564-1.598-2.684-3.162-2.502C710.911,1308.256,709.791,1309.672,709.973,1311.234z"/>
			<path style="fill:#EAB054;" d="M746.771,1211.523c0.182,1.563,1.598,2.684,3.161,2.502c1.564-0.184,2.685-1.598,2.502-3.162
				s-1.598-2.684-3.162-2.502C747.709,1208.543,746.589,1209.959,746.771,1211.523z"/>
			<path style="fill:#EAB054;" d="M767.79,1235.266c0.182,1.563,1.597,2.684,3.161,2.502c1.564-0.184,2.684-1.598,2.502-3.162
				c-0.182-1.564-1.598-2.684-3.161-2.502C768.728,1232.285,767.608,1233.701,767.79,1235.266z"/>
			<path style="fill:#EAB054;" d="M821.006,1282.523c0.182,1.564,1.597,2.684,3.161,2.502s2.684-1.598,2.502-3.16
				c-0.182-1.564-1.597-2.686-3.161-2.502C821.944,1279.545,820.824,1280.959,821.006,1282.523z"/>
			<path style="fill:#EAB054;" d="M830.949,1493.928c0.182,1.564,1.598,2.684,3.161,2.502c1.564-0.182,2.684-1.598,2.502-3.162
				c-0.182-1.563-1.597-2.684-3.161-2.502C831.887,1490.949,830.767,1492.363,830.949,1493.928z"/>
			<path style="fill:#EAB054;" d="M784.959,1496.412c0.182,1.563,1.598,2.684,3.161,2.502c1.564-0.182,2.685-1.598,2.503-3.162
				c-0.182-1.563-1.598-2.684-3.162-2.502C785.897,1493.432,784.777,1494.848,784.959,1496.412z"/>
			<path style="fill:#EAB054;" d="M686.112,1306.838c0.182,1.564,1.597,2.684,3.161,2.502c1.564-0.182,2.684-1.598,2.502-3.162
				c-0.182-1.563-1.598-2.684-3.162-2.502C687.05,1303.859,685.93,1305.273,686.112,1306.838z"/>
			<path style="fill:#EAB054;" d="M641.605,1322.064c0.182,1.564,1.598,2.684,3.161,2.502c1.564-0.182,2.684-1.598,2.502-3.162
				c-0.182-1.563-1.597-2.684-3.161-2.502C642.543,1319.086,641.423,1320.5,641.605,1322.064z"/>
			<path style="fill:#EAB054;" d="M660.366,1312.705c0.182,1.564,1.597,2.684,3.161,2.502c1.564-0.182,2.684-1.598,2.502-3.162
				c-0.182-1.563-1.597-2.684-3.161-2.502C661.304,1309.727,660.184,1311.141,660.366,1312.705z"/>
			<path style="fill:#EAB054;" d="M617.871,1208.322c0.182,1.564,1.597,2.684,3.161,2.502c1.564-0.182,2.684-1.598,2.502-3.162
				c-0.182-1.563-1.597-2.684-3.161-2.502C618.809,1205.344,617.688,1206.758,617.871,1208.322z"/>
			<path style="fill:#EAB054;" d="M673.985,1144.748c0.182,1.563,1.597,2.684,3.161,2.502s2.684-1.598,2.502-3.162
				c-0.182-1.563-1.597-2.684-3.161-2.502C674.923,1141.768,673.803,1143.184,673.985,1144.748z"/>
			<path style="fill:#EAB054;" d="M621.739,1340.789c0.182,1.564,1.597,2.686,3.161,2.504c1.564-0.184,2.684-1.598,2.503-3.162
				c-0.182-1.564-1.598-2.684-3.162-2.502C622.677,1337.811,621.557,1339.227,621.739,1340.789z"/>
			<path style="fill:#EAB054;" d="M615.692,1366.189c1.569,0.135,2.949-1.029,3.083-2.598c0.133-1.568-1.03-2.949-2.599-3.082
				c-1.569-0.135-2.949,1.029-3.082,2.598C612.961,1364.676,614.124,1366.057,615.692,1366.189z"/>
			<path style="fill:#EAB054;" d="M615.137,1386.076c1.569,0.133,2.949-1.029,3.083-2.6c0.134-1.568-1.03-2.947-2.599-3.082
				c-1.569-0.133-2.949,1.031-3.082,2.6C612.405,1384.563,613.568,1385.943,615.137,1386.076z"/>
			<path style="fill:#EAB054;" d="M556.887,1313.393c1.569,0.135,2.949-1.029,3.082-2.598c0.134-1.568-1.03-2.949-2.599-3.082
				c-1.569-0.135-2.949,1.029-3.082,2.598C554.154,1311.881,555.318,1313.26,556.887,1313.393z"/>
			<path style="fill:#EAB054;" d="M540.854,1339.477c1.569,0.133,2.949-1.031,3.082-2.6c0.134-1.568-1.03-2.949-2.599-3.082
				c-1.569-0.133-2.949,1.029-3.083,2.598C538.122,1337.963,539.285,1339.342,540.854,1339.477z"/>
			<path style="fill:#EAB054;" d="M521.402,1373.467c1.568,0.133,2.949-1.029,3.082-2.6c0.134-1.568-1.03-2.947-2.599-3.082
				c-1.568-0.133-2.949,1.031-3.082,2.6C518.67,1371.953,519.833,1373.334,521.402,1373.467z"/>
			<path style="fill:#EAB054;" d="M484.577,1382.689c1.569,0.135,2.949-1.029,3.083-2.598c0.133-1.57-1.03-2.949-2.599-3.084
				c-1.568-0.133-2.948,1.031-3.082,2.6S483.008,1382.557,484.577,1382.689z"/>
			<path style="fill:#EAB054;" d="M460.154,1385.533c1.569,0.133,2.949-1.029,3.082-2.6c0.134-1.568-1.03-2.947-2.599-3.082
				c-1.568-0.133-2.949,1.031-3.082,2.6C457.422,1384.02,458.585,1385.4,460.154,1385.533z"/>
			<path style="fill:#EAB054;" d="M429.721,1512.846c1.569,0.133,2.949-1.029,3.082-2.598c0.134-1.57-1.03-2.949-2.599-3.084
				c-1.569-0.133-2.949,1.031-3.082,2.6C426.989,1511.332,428.153,1512.713,429.721,1512.846z"/>
			<path style="fill:#EAB054;" d="M436.74,1543.709c1.569,0.133,2.949-1.029,3.083-2.6c0.133-1.568-1.03-2.947-2.599-3.082
				c-1.569-0.133-2.949,1.031-3.083,2.6C434.008,1542.195,435.171,1543.576,436.74,1543.709z"/>
			<path style="fill:#EAB054;" d="M376.213,1550.756c1.569,0.133,2.949-1.031,3.082-2.6c0.134-1.568-1.03-2.949-2.599-3.082
				c-1.569-0.133-2.949,1.029-3.082,2.6C373.481,1549.242,374.645,1550.621,376.213,1550.756z"/>
			<path style="fill:#EAB054;" d="M333.464,1398.49c1.569,0.135,2.949-1.029,3.082-2.598c0.133-1.57-1.03-2.949-2.599-3.082
				c-1.569-0.135-2.949,1.029-3.083,2.598C330.732,1396.977,331.895,1398.357,333.464,1398.49z"/>
			<path style="fill:#EAB054;" d="M300.486,1404.121c1.569,0.133,2.949-1.029,3.083-2.6c0.133-1.568-1.03-2.947-2.599-3.082
				c-1.568-0.133-2.948,1.031-3.082,2.6S298.917,1403.988,300.486,1404.121z"/>
			<path style="fill:#EAB054;" d="M332.227,1557.291c1.569,0.133,2.949-1.029,3.083-2.6c0.133-1.568-1.03-2.947-2.599-3.082
				c-1.569-0.133-2.949,1.031-3.083,2.6C329.495,1555.777,330.659,1557.158,332.227,1557.291z"/>
			<path style="fill:#EAB054;" d="M508.614,1378.1c1.568,0.135,2.949-1.029,3.082-2.598c0.134-1.568-1.03-2.949-2.599-3.082
				c-1.569-0.135-2.949,1.029-3.082,2.598C505.882,1376.586,507.045,1377.967,508.614,1378.1z"/>
			<path style="fill:#EAB054;" d="M548.601,1529.609c1.568,0.135,2.949-1.029,3.082-2.598c0.134-1.568-1.03-2.949-2.599-3.082
				c-1.569-0.135-2.949,1.029-3.082,2.598C545.869,1528.096,547.032,1529.477,548.601,1529.609z"/>
			<path style="fill:#EAB054;" d="M507.612,1535.459c1.568,0.133,2.949-1.031,3.082-2.6c0.134-1.568-1.03-2.949-2.599-3.082
				c-1.569-0.133-2.949,1.029-3.082,2.6C504.879,1533.945,506.043,1535.324,507.612,1535.459z"/>
			<path style="fill:#EAB054;" d="M562.796,1527.957c1.569,0.135,2.949-1.029,3.082-2.598c0.134-1.568-1.03-2.949-2.599-3.082
				c-1.569-0.135-2.949,1.029-3.082,2.598C560.064,1526.443,561.228,1527.824,562.796,1527.957z"/>
			<path style="fill:#EAB054;" d="M633.69,1520.781c1.569,0.133,2.949-1.031,3.082-2.6c0.133-1.568-1.03-2.949-2.599-3.082
				c-1.568-0.133-2.948,1.029-3.082,2.6C630.957,1519.268,632.121,1520.646,633.69,1520.781z"/>
			<path style="fill:#EAB054;" d="M606.212,1232.938c1.568,0.135,2.949-1.029,3.082-2.598c0.134-1.568-1.03-2.949-2.599-3.082
				c-1.569-0.135-2.949,1.029-3.082,2.598C603.479,1231.426,604.643,1232.805,606.212,1232.938z"/>
			<path style="fill:#EAB054;" d="M732.363,1325.041c0.182,1.564,1.597,2.684,3.161,2.502c1.564-0.182,2.684-1.598,2.502-3.16
				c-0.182-1.564-1.598-2.686-3.161-2.502C733.301,1322.063,732.181,1323.479,732.363,1325.041z"/>
			<path style="fill:#EAB054;" d="M748.962,1353.604c0.182,1.563,1.598,2.684,3.161,2.502c1.564-0.182,2.685-1.598,2.502-3.162
				c-0.182-1.563-1.597-2.684-3.161-2.502C749.9,1350.623,748.78,1352.039,748.962,1353.604z"/>
			<path style="fill:#EAB054;" d="M847.923,1489.082c0.182,1.563,1.597,2.684,3.161,2.502c1.564-0.182,2.684-1.598,2.502-3.162
				c-0.182-1.563-1.597-2.684-3.161-2.502C848.861,1486.102,847.741,1487.518,847.923,1489.082z"/>
			<path style="fill:#EAB054;" d="M843.295,1302.381c0.182,1.563,1.598,2.684,3.161,2.502c1.564-0.184,2.685-1.598,2.502-3.162
				s-1.598-2.684-3.162-2.502C844.233,1299.4,843.113,1300.816,843.295,1302.381z"/>
			<path style="fill:#EAB054;" d="M692.749,1163.281c0.182,1.564,1.597,2.684,3.161,2.502c1.564-0.182,2.684-1.598,2.502-3.162
				c-0.182-1.563-1.598-2.684-3.161-2.502C693.687,1160.303,692.567,1161.717,692.749,1163.281z"/>
			<polygon style="opacity:0.6;fill:#EAB054;" points="444.777,1545.881 433.621,1503.41 438.447,1502.85 449.603,1545.318 			"/>
			<polygon style="opacity:0.6;fill:#EAB054;" points="514.904,1537.717 468.632,1361.568 473.284,1360.346 519.73,1537.154 			"/>
			<polygon style="opacity:0.6;fill:#EAB054;" points="317.213,1374.053 321.865,1372.83 369.622,1554.629 364.796,1555.191 			"/>
			<polygon style="fill:#9E4233;" points="257.505,1383.193 259.205,1397.793 328.758,1389.697 314.439,1376.564 			"/>
			<polygon style="fill:#9E4233;" points="482.335,1102.572 675.007,1080.143 685.688,1093.799 510.255,1368.566 288.916,1394.334 
							"/>
			<polygon style="fill:#B75742;" points="257.505,1383.193 489.887,1356.141 675.007,1080.143 442.626,1107.195 			"/>
			<polygon style="fill:#B75742;" points="257.505,1383.193 489.887,1356.141 675.007,1080.143 442.626,1107.195 			"/>
			<polygon style="opacity:0.5;fill:#F7CC7F;" points="545.471,1273.27 311.712,1302.375 315.263,1297.082 549.021,1267.975 			"/>
			<polygon style="opacity:0.5;fill:#F7CC7F;" points="575.364,1228.701 341.605,1257.809 345.156,1252.514 578.915,1223.408 			"/>
			<polygon style="opacity:0.5;fill:#F7CC7F;" points="605.257,1184.133 371.499,1213.24 375.049,1207.947 608.808,1178.84 			"/>
			<polygon style="opacity:0.5;fill:#F7CC7F;" points="635.15,1139.566 401.392,1168.672 404.942,1163.379 638.701,1134.271 			"/>
			<polygon style="opacity:0.5;fill:#F7CC7F;" points="515.578,1317.838 281.819,1346.943 285.37,1341.65 519.128,1312.543 			"/>
		</g>
		<path style="fill:#96D9C9;" d="M197.206,1539.471c0,0,927-176,2320,0v159.828l-2318.851-9.191L197.206,1539.471z"/>
		<rect x="197.206" y="1539.471" style="fill:#96D9C9;" width="2320" height="393.668"/>
		<g>
			<path style="fill:#B75742;" d="M900.329,1709.346c0,0-4.226,54.973-2.028,57.023s-11.081,16.629-12.604,21.785
				c0,0,12.206-10.316,17.821-11.926c5.615-1.611,29.178,4.977,51.786,2.781c0,0-15.766-1.67-23.781-5.533
				s-16.442-3.176-15.526-3.746c0.917-0.57,11.915-3.955,23.722-2.803c11.807,1.152,26.758-5.174,26.758-5.174
				s-19.811,1.9-28.426,0.383c-8.615-1.518-29.061,2.533-29.061,2.533l2.849-56.021L900.329,1709.346z"/>
			<path style="fill:#B75742;" d="M960.213,1683.82c0,0,19.167,50.166,20.563,52.828c1.396,2.66-15.956,12.029-19.098,16.391
				c0,0,14.93-5.699,20.762-5.363c5.832,0.336,25.891,14.344,47.954,19.746c0,0-14.328-6.787-20.615-13.084
				c-6.287-6.297-14.466-8.434-13.414-8.668c1.053-0.236,12.552,0.207,23.314,5.197c10.762,4.992,26.965,3.963,26.965,3.963
				s-19.326-4.754-26.955-9.035c-7.629-4.281-28.264-7.219-28.264-7.219l-16.763-53.977L960.213,1683.82z"/>
			<path style="fill:#EB753B;" d="M931.466,1658.928c0,0,7.523,28.502,23.576,31.828s18.644,9.816,27.734,1.172
				c9.09-8.645,27.951-35.131,40.057-44.906C1034.938,1637.246,940.992,1645.092,931.466,1658.928z"/>
			<path style="fill:#EE944C;" d="M1022.466,1436.813c0,0-17.881,4.404-31.251,36.408c-13.369,32.004-19.444,52.564-37.579,57.824
				c-18.134,5.26-50.309,0.037-72.054,5.533c-21.744,5.498-43.273,0.813-58.339-13.139c-15.065-13.953-46.902-24.105-53.732-12.338
				c-6.831,11.766,5.816,32.643,5.816,32.643s-9.622,2.932,1.763,16.729s15.626,17.098,15.626,17.098s-12.247-2.686-3.571,9.564
				s19.122,18.504,19.122,18.504s-8.652,1.543,5.023,14.525c0,0-6.76,12.16,10.895,11.043c0,0,0.389,11.293,8.013,17.645
				c0,0-0.219,21.545,12.039,31.129c12.258,9.584,43.276,28.809,52.586,33.236c9.31,4.428,18.411,7.676,28.048,0.277
				s29.229-40.916,51.986-49.84c22.757-8.924,52.561-10.178,70.202-47.813s23.76-101.215,7.504-121.854
				S1067.754,1422.252,1022.466,1436.813z"/>
			<path style="fill:#F9A653;" d="M1058.749,1451.043c0.513-0.158,10.995-0.539,20.019,12.529c0,0-19.883-0.381-23.804,0.387
				c-3.921,0.766-1.947-8.648-1.589-8.916C1053.733,1454.777,1058.749,1451.043,1058.749,1451.043z"/>
			<path style="fill:#B75742;" d="M1056.277,1444.383c0,0-7.742-10.051-16.737-5.877c-8.995,4.172-3.657,13.635-2.459,15.045
				c1.198,1.41,4.137,5.756,1.069,7.52s-12.667-5.047-13.581-2.584c-0.914,2.461,2.568,18.207,12.466,14.551
				c9.898-3.658,1.609,2.959,3.976,10.924s6.483,15.887,15.971,6.893c9.489-8.994,0.741-27.725,0.078-32.205
				c-0.663-4.48,8.911-3.889,14.109-8.871c5.199-4.984,2.069-22.553-3.885-26.361c-5.954-3.809-11.238-8.412-16.883-12.006
				c-5.645-3.592-6.322-7.395-15.401-2.936c-9.08,4.459-23.417-3.131-27.929,6.465s-5.147,17.418,2.286,20.422
				c7.434,3.004,10.252,2.57,10.252,2.57S1041.584,1429.484,1056.277,1444.383z"/>
			<path style="fill:#EB753B;" d="M1008.351,1548.889c0,0,5.806,61.049-25.884,69.941c-31.689,8.893-58.638,36.418-80.001,34.949
				c-21.362-1.469-36.424-6.291-49.16-32.223c0,0,14.064,24.273,36.395,24.354c22.332,0.078,48.008-20.93,60.938-24.654
				c12.93-3.725,30.009-5.664,38.321-14.943C1009.286,1583.619,1007.696,1560.984,1008.351,1548.889z"/>
		</g>
		<g>
			<path style="fill:#EE944C;" d="M1248.372,1816.443c0,0-15.203,58.795-13.217,61.443s-15.229,15.891-17.877,21.188
				c0,0,15.229-8.828,21.629-9.49c6.4-0.662,30.678,11.035,55.618,13.021c0,0-16.774-4.855-24.719-10.594
				c-7.946-5.738-17.215-6.621-16.112-7.063c1.103-0.441,13.684-1.986,26.264,1.545c12.581,3.531,30.016-0.441,30.016-0.441
				s-21.85-1.766-30.899-5.076c-9.049-3.311-32.002-2.869-32.002-2.869l13.913-60.197L1248.372,1816.443z"/>
			<path style="fill:#EE944C;" d="M1323.469,1819.963c0,0,29.678,51.168,31.664,53.816s-15.229,15.891-17.877,21.188
				c0,0,15.229-8.828,21.629-9.49s30.679,11.035,55.618,13.021c0,0-16.773-4.855-24.719-10.594s-17.215-6.621-16.111-7.063
				c1.104-0.441,13.684-1.986,26.264,1.545s30.016-0.441,30.016-0.441s-21.85-1.766-30.898-5.076s-32.003-2.869-32.003-2.869
				l-27.735-55.734L1323.469,1819.963z"/>
			<path style="fill:#C5D0E2;" d="M1287.827,1797.963c0,0,13.201,29.666,31.241,30.453s22.001,7.389,30.361-3.613
				c8.36-11,24.201-43.121,35.642-55.881C1396.512,1756.16,1295.748,1781.242,1287.827,1797.963z"/>
			<path style="fill:#E9EEF6;" d="M1333.852,1633.652c-20.777-0.361-50.317-9.756-72.425-8.176
				c-24.641,1.76-47.082-7.48-60.722-25.521c-13.641-18.041-46.202-35.201-55.882-23.762c-9.68,11.441,0,36.521,0,36.521
				s-11,1.32-1.32,18.482c9.68,17.16,13.64,21.561,13.64,21.561s-12.76-5.281-5.72,9.68c7.041,14.961,17.161,23.762,17.161,23.762
				s-9.681,0,2.64,16.719c0,0-9.68,11.881,9.681,14.082c0,0-1.76,12.32,5.28,20.68c0,0-4.4,23.322,7.04,36.082
				s41.361,39.602,50.602,46.201c9.24,6.602,18.481,11.881,30.361,5.721c11.881-6.16,39.602-38.721,66.003-44.002
				c24.956-4.99,55.412-1.354,80.972-32.527L1333.852,1633.652z"/>
			<path style="fill:#E9EEF6;" d="M1486.037,1671.041c0.458-28.934,61.137-52.123,12.322-71.164c0,0-18.339-8.668-52.009,9.381
				s-114.961,24.309-114.961,24.309l37.242,144.422c8.09-1.01,16.789-3.475,26.286-8.057
				C1436.151,1750.043,1485.579,1699.975,1486.037,1671.041z"/>
			<path style="fill:#EE944C;" d="M1516.766,1645.988c0.549,0.221,9.769,7.184,8.395,24.621c0,0-16.724-14.146-20.606-16.217
				c-3.883-2.072,4.349-8.742,4.84-8.721S1516.766,1645.988,1516.766,1645.988z"/>
			<path style="fill:#F47458;" d="M1519.284,1638.58c0,0,0.372-13.969-10.214-16.656c-10.586-2.689-12.604,9.107-12.561,11.145
				s-0.467,7.793-4.313,7.168s-7.313-13.117-9.807-11.648c-2.492,1.467-10.463,17.342,0.536,21.098
				c11,3.756-0.682,3.646-4.197,12.096s-5.506,18.082,8.854,16.992c14.36-1.088,19.906-23.172,22.455-27.461
				c2.548-4.289,10.315,2.873,18.222,2.229s17.443-17.828,15.005-25.221c-2.439-7.393-3.753-15-6.078-21.994
				s-0.261-10.713-11.117-13.215c-10.856-2.504-17.83-18.955-28.355-13.893c-10.526,5.061-16.507,11.303-12.244,19.037
				s6.972,9.324,6.972,9.324S1517.088,1615.637,1519.284,1638.58z"/>
			<path style="fill:#C5D0E2;" d="M1396.512,1663.318c0,0-5.501,67.322-41.582,70.842s-70.623,28.162-93.503,22.441
				s-38.282-13.861-47.082-44.441c0,0,10.56,29.041,34.761,33.441c24.201,4.398,56.102-13.422,70.842-14.961
				c14.741-1.541,33.636-0.344,44.441-8.801C1390.815,1701.158,1393.464,1676.307,1396.512,1663.318z"/>
		</g>
		<g>
			<path style="fill:#B75742;" d="M692.653,1586.648c0.287-0.002,2.973,3.881,10.427,10.762c0,0-11.925,2.32-14.046,2.109
				c-2.121-0.213,0.156-7.227,0.38-7.307C689.637,1592.131,692.653,1586.648,692.653,1586.648z"/>
			<path style="fill:#EE944C;" d="M624.258,1684.834c0,0-4.84,18.719-4.208,19.563c0.632,0.844-4.849,5.061-5.692,6.746
				c0,0,4.849-2.811,6.886-3.021c2.038-0.211,9.767,3.514,17.708,4.146c0,0-5.34-1.547-7.87-3.373
				c-2.53-1.828-5.481-2.109-5.13-2.25c0.352-0.139,4.357-0.631,8.362,0.492c4.005,1.125,9.557-0.141,9.557-0.141
				s-6.956-0.561-9.838-1.615c-2.881-1.055-10.189-0.914-10.189-0.914l4.43-19.166L624.258,1684.834z"/>
			<path style="fill:#EE944C;" d="M649.757,1685.414c0,0,10.147,17.496,10.826,18.4c0.679,0.906-5.207,5.434-6.112,7.246
				c0,0,5.207-3.02,7.396-3.246c2.188-0.227,10.489,3.773,19.016,4.453c0,0-5.735-1.66-8.452-3.623
				c-2.717-1.961-5.886-2.264-5.509-2.414c0.377-0.15,4.679-0.68,8.98,0.527c4.301,1.207,10.263-0.15,10.263-0.15
				s-7.471-0.604-10.565-1.736c-3.094-1.131-10.942-0.98-10.942-0.98l-9.483-19.057L649.757,1685.414z"/>
			<g>
				<path style="fill:#F7CC7F;" d="M657.753,1579.742c0,0-7.814,2.879-10.487,14.395c-2.673,11.514-3.907,17.684-12.749,20.355
					c-8.842,2.674-36.395,11.311-39.891,23.648c-1.4,4.939-3.591,8.396-5.715,10.766c-3.66,4.082-4.133,10.127-1.224,14.773
					c4.538,7.25,12.388,16.066,24.417,18.053c21.179,3.496,10.487,13.982,40.097,4.936c29.609-9.049,16.655-15.629,32.899-34.752
					s1.028-32.488,8.019-49.143C700.111,1586.117,684.895,1565.143,657.753,1579.742z"/>
				<path style="fill:#EAB054;" d="M634.439,1639.145c-2.199,0.396-4.359,0.939-6.429,1.621c-2.04,0.699-4.104,1.555-5.488,2.861
					c-0.702,0.633-1.107,1.354-1.201,2.037c-0.016,0.354-0.021,0.701,0.101,1.082c0.037,0.186,0.109,0.377,0.198,0.57l0.295,0.734
					c0.973,2.217,1.323,4.736,1.713,6.766c0.19,1.043,0.464,1.84,0.853,2.377c0.376,0.541,0.865,0.977,1.674,1.338
					c1.55,0.742,3.639,1.148,5.704,1.447l3.213,0.4c1.177,0.201,2.352,0.271,3.53,0.594c2.354,0.455,4.727,1.365,6.891,2.527
					c1.081,0.59,2.058,1.27,2.941,1.838c0.873,0.574,1.503,0.854,1.997,0.928c0.965,0.176,2.89-0.693,4.634-1.758
					c0.897-0.49,1.79-1.105,2.685-1.691c0.476-0.289,0.869-0.596,1.222-0.908l1.128-0.922c0.761-0.611,1.283-1.447,1.967-2.146
					c0.541-0.811,1.096-1.633,1.569-2.508c1.764-3.596,2.468-7.857,2.494-12.162c0.024-4.326-0.569-8.719-1.533-13.08
					c2.027,4.002,3.323,8.379,4.011,12.912c0.563,4.527,0.443,9.367-1.373,13.947c-0.475,1.123-1.069,2.221-1.676,3.301
					c-0.774,0.969-1.447,2.055-2.36,2.904l-1.384,1.268c-0.465,0.441-0.932,0.836-1.393,1.15c-0.928,0.682-1.829,1.379-2.849,2.016
					c-0.961,0.672-2.069,1.25-3.261,1.789c-0.678,0.221-1.21,0.535-2.025,0.646c-0.383,0.07-0.762,0.143-1.151,0.191
					c-0.422,0-0.847-0.014-1.271-0.039c-1.72-0.203-3.105-0.99-4.096-1.605c-0.993-0.619-1.859-1.188-2.732-1.652
					c-1.73-0.959-3.536-1.713-5.541-2.135c-0.963-0.293-2.021-0.365-3.028-0.564c-1.069-0.172-2.262-0.316-3.387-0.527
					c-2.292-0.482-4.623-0.973-7.031-2.273c-1.179-0.615-2.453-1.684-3.198-3.059c-0.761-1.367-0.994-2.791-1.109-3.938
					c-0.218-2.363-0.369-4.297-0.937-6.266c-0.081-0.42-0.382-1.193-0.435-1.891c-0.112-0.709-0.046-1.49,0.128-2.227
					c0.417-1.492,1.43-2.645,2.491-3.348c2.162-1.418,4.449-1.938,6.7-2.283C629.946,1639.084,632.203,1639.012,634.439,1639.145z"
					/>
			</g>
		</g>
		<g>
			<path style="fill:#B75742;" d="M1804.882,1648.645c0.192-0.002,1.993,2.602,6.989,7.213c0,0-7.993,1.555-9.414,1.414
				c-1.422-0.143,0.104-4.844,0.254-4.898C1802.861,1652.318,1804.882,1648.645,1804.882,1648.645z"/>
			<path style="fill:#EE944C;" d="M1759.042,1714.451c0,0-3.244,12.547-2.82,13.111c0.424,0.566-3.25,3.391-3.814,4.521
				c0,0,3.249-1.883,4.615-2.025c1.365-0.141,6.546,2.355,11.868,2.779c0,0-3.579-1.037-5.274-2.262
				c-1.696-1.223-3.674-1.412-3.438-1.506s2.92-0.424,5.604,0.33c2.685,0.752,6.405-0.096,6.405-0.096s-4.663-0.375-6.594-1.082
				s-6.829-0.613-6.829-0.613l2.969-12.844L1759.042,1714.451z"/>
			<path style="fill:#EE944C;" d="M1776.132,1714.84c0,0,6.801,11.727,7.257,12.334c0.455,0.605-3.49,3.641-4.097,4.855
				c0,0,3.489-2.023,4.956-2.176s7.03,2.529,12.745,2.984c0,0-3.844-1.113-5.664-2.428c-1.821-1.314-3.945-1.518-3.692-1.619
				c0.253-0.1,3.136-0.455,6.019,0.355c2.883,0.809,6.879-0.102,6.879-0.102s-5.008-0.404-7.081-1.164
				c-2.073-0.758-7.334-0.656-7.334-0.656l-6.355-12.773L1776.132,1714.84z"/>
			<g>
				<path style="fill:#F7CC7F;" d="M1781.491,1644.016c0,0-5.236,1.93-7.028,9.648c-1.792,7.717-2.618,11.852-8.545,13.643
					c-5.926,1.791-24.393,7.58-26.735,15.85c-0.938,3.311-2.407,5.627-3.831,7.215c-2.453,2.736-2.77,6.789-0.82,9.902
					c3.042,4.857,8.303,10.768,16.365,12.1c14.195,2.342,7.028,9.371,26.874,3.307s11.163-10.475,22.051-23.291
					c10.887-12.816,0.688-21.773,5.374-32.938C1809.881,1648.289,1799.683,1634.23,1781.491,1644.016z"/>
				<path style="fill:#EAB054;" d="M1765.866,1683.83c-1.475,0.264-2.922,0.629-4.31,1.086c-1.367,0.469-2.751,1.043-3.678,1.918
					c-0.471,0.424-0.742,0.906-0.806,1.365c-0.01,0.236-0.014,0.471,0.067,0.725c0.025,0.125,0.073,0.252,0.133,0.383l0.198,0.492
					c0.652,1.484,0.887,3.174,1.148,4.533c0.127,0.699,0.311,1.234,0.571,1.594c0.253,0.363,0.58,0.654,1.122,0.896
					c1.039,0.498,2.438,0.77,3.823,0.971l2.153,0.268c0.789,0.135,1.576,0.182,2.366,0.398c1.577,0.305,3.168,0.914,4.618,1.693
					c0.725,0.396,1.379,0.852,1.971,1.232c0.585,0.385,1.008,0.572,1.338,0.621c0.647,0.119,1.938-0.465,3.106-1.178
					c0.601-0.328,1.2-0.74,1.8-1.135c0.319-0.193,0.582-0.398,0.818-0.607l0.756-0.617c0.51-0.41,0.86-0.971,1.319-1.439
					c0.362-0.543,0.734-1.094,1.052-1.682c1.182-2.408,1.654-5.266,1.671-8.15c0.017-2.9-0.381-5.844-1.026-8.766
					c1.357,2.682,2.227,5.615,2.688,8.652c0.377,3.035,0.297,6.279-0.92,9.35c-0.318,0.752-0.717,1.488-1.124,2.211
					c-0.519,0.648-0.97,1.377-1.581,1.945l-0.928,0.852c-0.312,0.295-0.625,0.561-0.934,0.77c-0.622,0.459-1.226,0.926-1.909,1.352
					c-0.645,0.451-1.387,0.838-2.186,1.199c-0.455,0.148-0.812,0.357-1.357,0.434c-0.257,0.047-0.511,0.096-0.771,0.129
					c-0.283,0-0.568-0.01-0.852-0.027c-1.152-0.135-2.081-0.664-2.745-1.076c-0.666-0.414-1.246-0.795-1.831-1.107
					c-1.16-0.643-2.37-1.146-3.714-1.43c-0.646-0.197-1.355-0.246-2.03-0.379c-0.717-0.115-1.516-0.211-2.27-0.354
					c-1.536-0.324-3.099-0.652-4.713-1.523c-0.79-0.412-1.644-1.129-2.144-2.051c-0.51-0.916-0.666-1.871-0.743-2.639
					c-0.146-1.584-0.247-2.879-0.628-4.199c-0.054-0.281-0.256-0.799-0.291-1.268c-0.075-0.475-0.031-0.998,0.085-1.492
					c0.28-1,0.958-1.771,1.67-2.244c1.449-0.949,2.981-1.299,4.49-1.529C1762.854,1683.789,1764.367,1683.74,1765.866,1683.83z"/>
			</g>
		</g>
		<g>
			<path style="fill:#B75742;" d="M1639.712,1745.889c0.266-0.004,2.759,3.6,9.673,9.982c0,0-11.063,2.152-13.029,1.955
				c-1.968-0.195,0.144-6.701,0.352-6.777S1639.712,1745.889,1639.712,1745.889z"/>
			<path style="fill:#EE944C;" d="M1576.27,1836.965c0,0-4.489,17.363-3.903,18.145c0.587,0.783-4.497,4.693-5.279,6.258
				c0,0,4.498-2.607,6.388-2.803c1.891-0.195,9.061,3.26,16.426,3.846c0,0-4.954-1.434-7.301-3.129
				c-2.347-1.693-5.084-1.955-4.758-2.086c0.326-0.129,4.041-0.586,7.757,0.457c3.715,1.043,8.864-0.131,8.864-0.131
				s-6.453-0.521-9.125-1.498c-2.673-0.979-9.452-0.848-9.452-0.848l4.109-17.777L1576.27,1836.965z"/>
			<path style="fill:#EE944C;" d="M1599.923,1837.504c0,0,9.412,16.227,10.042,17.066s-4.83,5.041-5.67,6.721
				c0,0,4.83-2.801,6.86-3.01c2.029-0.211,9.729,3.5,17.639,4.129c0,0-5.319-1.539-7.84-3.359c-2.52-1.82-5.459-2.1-5.109-2.24
				c0.35-0.141,4.34-0.629,8.33,0.49c3.989,1.119,9.52-0.141,9.52-0.141s-6.93-0.559-9.8-1.609c-2.87-1.049-10.149-0.91-10.149-0.91
				l-8.797-17.676L1599.923,1837.504z"/>
			<g>
				<path style="fill:#F7CC7F;" d="M1607.34,1739.482c0,0-7.248,2.67-9.728,13.352s-3.624,16.402-11.826,18.883
					c-8.201,2.479-33.76,10.49-37.002,21.934c-1.299,4.584-3.331,7.789-5.302,9.986c-3.395,3.787-3.834,9.395-1.135,13.705
					c4.209,6.725,11.49,14.902,22.648,16.744c19.646,3.244,9.728,12.971,37.193,4.578s15.449-14.496,30.518-32.234
					s0.954-30.135,7.438-45.586C1646.631,1745.395,1632.517,1725.939,1607.34,1739.482z"/>
				<path style="fill:#EAB054;" d="M1585.714,1794.584c-2.039,0.367-4.043,0.869-5.963,1.502c-1.893,0.648-3.808,1.443-5.092,2.656
					c-0.65,0.586-1.026,1.254-1.113,1.889c-0.015,0.328-0.02,0.65,0.093,1.004c0.034,0.172,0.102,0.35,0.184,0.529l0.274,0.68
					c0.902,2.057,1.227,4.395,1.589,6.277c0.176,0.965,0.431,1.705,0.791,2.205c0.35,0.5,0.803,0.904,1.553,1.24
					c1.438,0.688,3.376,1.064,5.291,1.342l2.979,0.371c1.093,0.188,2.183,0.252,3.275,0.551c2.184,0.422,4.385,1.266,6.392,2.344
					c1.004,0.549,1.909,1.18,2.729,1.705c0.81,0.533,1.395,0.793,1.852,0.861c0.896,0.164,2.681-0.643,4.299-1.631
					c0.832-0.453,1.66-1.025,2.491-1.568c0.441-0.27,0.806-0.553,1.133-0.844l1.046-0.854c0.706-0.568,1.19-1.342,1.825-1.992
					c0.502-0.752,1.017-1.514,1.455-2.326c1.637-3.334,2.29-7.289,2.313-11.281c0.023-4.012-0.527-8.086-1.421-12.133
					c1.88,3.713,3.082,7.771,3.72,11.977c0.522,4.201,0.411,8.689-1.273,12.939c-0.44,1.041-0.992,2.059-1.555,3.061
					c-0.718,0.898-1.343,1.904-2.189,2.693l-1.283,1.176c-0.432,0.41-0.864,0.775-1.292,1.068c-0.86,0.633-1.697,1.279-2.643,1.869
					c-0.893,0.623-1.919,1.158-3.024,1.658c-0.63,0.205-1.123,0.496-1.879,0.602c-0.355,0.064-0.707,0.133-1.068,0.178
					c-0.391-0.002-0.786-0.014-1.178-0.037c-1.596-0.188-2.881-0.918-3.8-1.49c-0.921-0.574-1.725-1.102-2.534-1.533
					c-1.605-0.889-3.279-1.588-5.14-1.979c-0.894-0.271-1.875-0.34-2.81-0.523c-0.991-0.16-2.098-0.293-3.141-0.49
					c-2.127-0.447-4.288-0.902-6.522-2.109c-1.094-0.568-2.275-1.561-2.967-2.836c-0.705-1.27-0.922-2.59-1.029-3.652
					c-0.201-2.191-0.342-3.986-0.869-5.813c-0.074-0.389-0.354-1.105-0.402-1.754c-0.104-0.658-0.043-1.383,0.118-2.064
					c0.387-1.383,1.326-2.453,2.311-3.105c2.006-1.314,4.127-1.797,6.214-2.117
					C1581.546,1794.525,1583.64,1794.461,1585.714,1794.584z"/>
			</g>
		</g>
		<g>
			<path style="fill:#B75742;" d="M1269.635,1530.572c-0.141,0-1.464,1.912-5.135,5.301c0,0,5.873,1.143,6.918,1.039
				s-0.077-3.559-0.187-3.6C1271.121,1533.273,1269.635,1530.572,1269.635,1530.572z"/>
			<path style="fill:#EE944C;" d="M1303.321,1578.932c0,0,2.384,9.221,2.073,9.635c-0.312,0.416,2.388,2.492,2.803,3.322
				c0,0-2.388-1.383-3.392-1.488c-1.004-0.104-4.811,1.73-8.722,2.043c0,0,2.63-0.762,3.876-1.662
				c1.246-0.898,2.7-1.037,2.526-1.107c-0.173-0.068-2.146-0.311-4.119,0.242c-1.973,0.555-4.707-0.068-4.707-0.068
				s3.426-0.277,4.845-0.797c1.419-0.518,5.018-0.449,5.018-0.449l-2.182-9.439L1303.321,1578.932z"/>
			<path style="fill:#EE944C;" d="M1290.763,1579.219c0,0-4.997,8.615-5.332,9.063c-0.335,0.445,2.564,2.676,3.01,3.566
				c0,0-2.564-1.486-3.642-1.598c-1.078-0.111-5.167,1.859-9.366,2.193c0,0,2.825-0.818,4.163-1.783
				c1.338-0.967,2.899-1.115,2.713-1.189c-0.186-0.074-2.305-0.336-4.423,0.26c-2.119,0.594-5.055-0.074-5.055-0.074
				s3.679-0.297,5.203-0.855c1.524-0.557,5.389-0.482,5.389-0.482l4.67-9.387L1290.763,1579.219z"/>
			<g>
				<path style="fill:#F7CC7F;" d="M1286.824,1527.172c0,0,3.849,1.418,5.165,7.09c1.316,5.67,1.924,8.709,6.279,10.025
					c4.354,1.316,17.926,5.57,19.647,11.646c0.689,2.434,1.769,4.137,2.814,5.303c1.803,2.01,2.036,4.988,0.603,7.277
					c-2.235,3.57-6.101,7.912-12.026,8.891c-10.432,1.721-5.165,6.887-19.749,2.43c-14.583-4.455-8.203-7.695-16.204-17.115
					c-8.001-9.418-0.506-16-3.95-24.205C1265.962,1530.311,1273.456,1519.98,1286.824,1527.172z"/>
				<path style="fill:#EAB054;" d="M1298.307,1556.43c1.083,0.193,2.146,0.461,3.167,0.797c1.004,0.344,2.021,0.768,2.703,1.41
					c0.346,0.311,0.545,0.666,0.591,1.002c0.008,0.176,0.01,0.348-0.049,0.535c-0.019,0.09-0.054,0.186-0.098,0.279l-0.146,0.361
					c-0.479,1.092-0.651,2.334-0.844,3.334c-0.094,0.512-0.229,0.904-0.42,1.17c-0.186,0.266-0.427,0.48-0.825,0.658
					c-0.763,0.365-1.792,0.566-2.809,0.713l-1.583,0.197c-0.58,0.1-1.159,0.135-1.739,0.293c-1.16,0.225-2.329,0.672-3.394,1.244
					c-0.533,0.291-1.014,0.627-1.449,0.906c-0.43,0.281-0.74,0.42-0.983,0.457c-0.476,0.086-1.423-0.342-2.283-0.865
					c-0.442-0.242-0.881-0.545-1.323-0.834c-0.234-0.143-0.427-0.293-0.602-0.447l-0.555-0.455
					c-0.375-0.301-0.632-0.711-0.969-1.057c-0.266-0.398-0.54-0.805-0.773-1.234c-0.869-1.771-1.216-3.871-1.228-5.99
					c-0.012-2.131,0.28-4.295,0.755-6.443c-0.999,1.973-1.637,4.127-1.975,6.359c-0.278,2.23-0.219,4.613,0.676,6.871
					c0.234,0.553,0.527,1.094,0.826,1.625c0.381,0.477,0.712,1.012,1.163,1.43l0.681,0.625c0.229,0.217,0.459,0.412,0.686,0.566
					c0.457,0.336,0.901,0.68,1.403,0.992c0.474,0.332,1.019,0.615,1.606,0.881c0.334,0.109,0.596,0.264,0.998,0.32
					c0.188,0.033,0.375,0.07,0.567,0.094c0.208,0,0.417-0.008,0.625-0.02c0.847-0.1,1.529-0.488,2.018-0.791
					c0.489-0.305,0.916-0.586,1.346-0.814c0.852-0.471,1.741-0.842,2.729-1.051c0.474-0.145,0.996-0.18,1.492-0.277
					c0.526-0.086,1.114-0.156,1.668-0.26c1.129-0.238,2.277-0.48,3.463-1.121c0.581-0.303,1.208-0.828,1.575-1.506
					c0.375-0.674,0.49-1.375,0.547-1.939c0.107-1.164,0.182-2.115,0.461-3.086c0.04-0.207,0.188-0.588,0.214-0.932
					c0.055-0.35,0.023-0.734-0.063-1.096c-0.205-0.734-0.704-1.303-1.227-1.65c-1.065-0.697-2.191-0.953-3.3-1.123
					C1300.52,1556.398,1299.408,1556.363,1298.307,1556.43z"/>
			</g>
		</g>
		<g>
			<path style="fill:#B75742;" d="M463.923,1546.803c-0.142-0.002-1.465,1.912-5.136,5.301c0,0,5.874,1.143,6.918,1.037
				c1.045-0.104-0.077-3.559-0.187-3.598C465.408,1549.502,463.923,1546.803,463.923,1546.803z"/>
			<path style="fill:#EE944C;" d="M497.609,1595.162c0,0,2.384,9.219,2.072,9.635c-0.311,0.414,2.388,2.49,2.804,3.322
				c0,0-2.388-1.385-3.392-1.488c-1.003-0.104-4.811,1.73-8.721,2.041c0,0,2.63-0.762,3.876-1.66c1.246-0.9,2.7-1.039,2.527-1.107
				c-0.173-0.07-2.146-0.313-4.119,0.242c-1.973,0.553-4.707-0.07-4.707-0.07s3.426-0.275,4.845-0.795
				c1.419-0.52,5.019-0.451,5.019-0.451l-2.182-9.439L497.609,1595.162z"/>
			<path style="fill:#EE944C;" d="M485.05,1595.447c0,0-4.997,8.617-5.332,9.063c-0.334,0.445,2.564,2.676,3.011,3.568
				c0,0-2.565-1.486-3.642-1.598c-1.078-0.113-5.166,1.857-9.366,2.191c0,0,2.825-0.816,4.163-1.783
				c1.338-0.967,2.899-1.115,2.713-1.189c-0.186-0.074-2.304-0.334-4.423,0.26c-2.119,0.596-5.055-0.074-5.055-0.074
				s3.68-0.297,5.203-0.855c1.524-0.557,5.389-0.482,5.389-0.482l4.671-9.385L485.05,1595.447z"/>
			<g>
				<path style="fill:#F7CC7F;" d="M481.112,1543.4c0,0,3.848,1.418,5.165,7.09c1.316,5.672,1.924,8.709,6.279,10.025
					c4.355,1.316,17.926,5.57,19.647,11.646c0.69,2.434,1.769,4.137,2.815,5.303c1.802,2.012,2.036,4.988,0.603,7.277
					c-2.235,3.57-6.102,7.914-12.026,8.891c-10.431,1.723-5.165,6.887-19.749,2.432c-14.583-4.457-8.203-7.697-16.204-17.115
					c-8-9.42-0.506-16.002-3.95-24.205C460.249,1546.541,467.743,1536.211,481.112,1543.4z"/>
				<path style="fill:#EAB054;" d="M492.594,1572.658c1.083,0.195,2.147,0.461,3.166,0.797c1.005,0.346,2.021,0.768,2.703,1.41
					c0.346,0.313,0.545,0.666,0.591,1.004c0.008,0.174,0.01,0.346-0.049,0.533c-0.018,0.092-0.054,0.186-0.097,0.281l-0.146,0.361
					c-0.479,1.09-0.652,2.332-0.844,3.332c-0.094,0.514-0.229,0.906-0.42,1.17c-0.186,0.268-0.426,0.48-0.824,0.658
					c-0.764,0.367-1.792,0.566-2.81,0.715l-1.582,0.195c-0.58,0.1-1.159,0.135-1.739,0.293c-1.16,0.225-2.328,0.672-3.394,1.244
					c-0.533,0.293-1.014,0.627-1.449,0.906c-0.43,0.283-0.741,0.42-0.983,0.457c-0.476,0.086-1.423-0.342-2.283-0.865
					c-0.441-0.242-0.881-0.545-1.322-0.834c-0.234-0.143-0.428-0.293-0.602-0.447l-0.556-0.453
					c-0.374-0.301-0.632-0.713-0.969-1.059c-0.267-0.398-0.54-0.803-0.773-1.234c-0.869-1.771-1.216-3.871-1.228-5.99
					c-0.012-2.131,0.28-4.295,0.755-6.441c-0.998,1.971-1.637,4.125-1.975,6.359c-0.277,2.23-0.218,4.613,0.676,6.869
					c0.234,0.553,0.526,1.094,0.825,1.625c0.381,0.477,0.713,1.012,1.163,1.43l0.682,0.625c0.229,0.219,0.459,0.412,0.686,0.566
					c0.456,0.336,0.901,0.68,1.403,0.994c0.474,0.33,1.019,0.615,1.606,0.881c0.334,0.107,0.596,0.264,0.997,0.318
					c0.189,0.035,0.376,0.07,0.567,0.094c0.208,0,0.417-0.006,0.626-0.02c0.847-0.1,1.529-0.488,2.017-0.791
					c0.489-0.305,0.916-0.584,1.346-0.814c0.853-0.471,1.742-0.842,2.73-1.051c0.474-0.145,0.996-0.18,1.491-0.277
					c0.527-0.086,1.114-0.156,1.668-0.26c1.129-0.238,2.277-0.48,3.463-1.119c0.581-0.303,1.208-0.83,1.575-1.508
					c0.375-0.674,0.49-1.375,0.547-1.939c0.107-1.162,0.182-2.115,0.461-3.086c0.04-0.207,0.188-0.586,0.214-0.932
					c0.055-0.348,0.023-0.732-0.063-1.096c-0.206-0.734-0.705-1.303-1.227-1.648c-1.065-0.697-2.191-0.955-3.3-1.125
					C494.807,1572.627,493.695,1572.592,492.594,1572.658z"/>
			</g>
		</g>
		<path style="fill:#50BFA5;" d="M354.28,1714.449c19.289-41.27,3.431-89.445-35.42-107.604
			c-15.417-7.205-34.12,0.229-41.774,16.605l-9.896,22.281c-8.388,17.945-19.792,26.01-30.617,29.154
			c-14.915,4.332-28.468,12.547-39.331,23.695l-0.037,234.557c0,0,50.695-18.988,62.334-43.889l13.333-17.334
			c5.074-10.855,14.249-1.43,24.589-4.277c17.682-4.871,32.804-17.391,40.854-34.611l7.435-15.908
			c5.246-11.225,4.414-24.35-2.491-33.949c-7.603-10.57-9.259-25.328-3.081-38.549L354.28,1714.449z"/>
		<path style="fill:#3C8F7C;" d="M197.206,1933.139c0,0,110.35-130.422,173.497-150.865c63.147-20.441,3.631,60.75,3.631,60.75
			s112.021-122.49,153.129-111.447c37.682,10.121,0,86.047,0,86.047s42.441-42.043,93.909-42.043
			c51.468,0-39.781,157.432-39.781,157.432L197.206,1933.139z"/>
		<path style="fill:#50BFA5;" d="M527.463,1933.012c0,0,68.594-183.436,153.542-162.223c68.84,17.191,19.896,109.488,24.093,105.291
			c4.197-4.195,41.119-66.842,100.858-66.842c59.74,0-18.338,84.549-18.338,84.549s127.282-39.748,137.249,1.992
			c8.271,34.641-37.989,37.232-37.989,37.232H527.463z"/>
		<path style="fill:#F7A491;" d="M2181.415,1541.941c0,0,29.71,52.184,26.734,56.209s-45.417,70.957-49.189,59.943
			c-3.772-11.016-22.411-83.029-19.869-88.111C2141.632,1564.898,2181.415,1541.941,2181.415,1541.941z"/>
		<path style="fill:#B75742;" d="M2506.709,1208.994c-21.099,52.605-134.163,56.766-252.538,9.289s-197.232-128.607-176.135-181.213
			c21.098-52.606,134.163-56.764,252.538-9.289C2448.948,1075.258,2527.807,1156.389,2506.709,1208.994z"/>
		<path style="fill:#F7CC7F;" d="M2570.434,1529.742c0,0-41.619-164.486-74.354-206.145
			c-32.736-41.658-111.338-52.217-139.414-14.652c-28.075,37.566,103.187,246.711,103.187,246.711L2570.434,1529.742z"/>
		<path style="fill:#184655;" d="M2161.993,1100.326c11.351-88.833,89.813-154.473,174.622-113.64
			c19.073,9.184,45.06,28.138,58.486,44.507c36.296,44.246,46.69,99.762,84.111,142.666c-13.085,10.453-28.956,21.471-47.913,32.148
			l-23.375-29.588l8.732,37.438c-55.535,28.313-134.362,52.498-242.957,54.6C2158.51,1207.328,2155.938,1147.713,2161.993,1100.326z
			"/>
		<path style="fill:#EAB054;" d="M2160.206,1439.115c44.37-134.596,100.921-131.684,100.921-131.684l-45.304,285.793
			c-27.399-7.492-63.075-24.168-90.445-31.898C2134.452,1518.777,2149.279,1472.262,2160.206,1439.115z"/>
		<path style="fill:#F7CC7F;" d="M2403.94,1679.301c0.057-1.162,0.138-2.283,0.272-3.313
			c5.88-44.967,109.965-324.453,77.624-359.785c-32.342-35.33-114.091-30.113-114.091-30.113s-102.072,12.846-113.833,25.695
			c-11.762,12.848-60.766,143.471-66.646,175.592c-2.66,14.531-8.812,105.402-14.75,200.566
			C2237.347,1683.395,2322.599,1679.576,2403.94,1679.301z"/>
		<path style="fill:#F7A491;" d="M2340.53,1176.607c0,0,0.424,2.412,1.184,6.518c3.645,19.699,17.681,85.047,27.163,103.012
			c11.458,21.711-39.23,90.953-88.018,82.502c-14.522-2.516,12.275-63.621,10.987-70.094c-2.465-12.391-5.808-29.293-9.229-46.625
			c-1.93-9.777-3.885-19.689-5.721-29.006c-5.217-26.479-9.475-48.133-9.475-48.133L2340.53,1176.607z"/>
		<path style="fill:#F47458;" d="M2341.714,1183.127c-0.76-4.107-1.184-6.52-1.184-6.52l-73.107-1.826
			c0,0,4.258,21.654,9.475,48.133c1.826,9.264,3.769,19.119,5.688,28.844c11.286-1.666,23.08-7.166,34.905-17.541
			c12.892-11.309,21.341-24.9,26.44-39.412C2343.03,1190.172,2342.278,1186.18,2341.714,1183.127z"/>
		<path style="fill:#F7A491;" d="M2277.312,1018.332c0,0,34.346-4.855,56.643,22.594c22.296,27.447,47.744,113.422-4.712,161.832
			c-52.456,48.408-106.794-3.529-116.071-59.813S2199.118,1018.257,2277.312,1018.332z"/>
		<path style="fill:#355389;" d="M2404.213,1675.988c1.138-8.699,5.96-26.201,12.75-48.99c-12.233,0.795-24.586-1.553-36.306-8.725
			c-45.681-27.957,4.411-246.074,25.873-332.422c-8.447-0.807-15.392-1.523-23.781,0c-8.15,48.092-40.749,164.475-40.749,164.475
			c-17.792,2.541-115.646,6.938-116.655-4.42c-1.331-14.986,50.367-143.209,50.412-143.313c-12.963,3.277-17.774,3.533-21.021,7.08
			c-11.761,12.848-61.588,145.582-67.469,177.703c-5.881,32.119-28.815,445.762-28.815,445.762h314.422
			C2472.873,1933.139,2398.333,1720.953,2404.213,1675.988z"/>
		<path style="fill:#F7A491;" d="M2197.282,1142.51c6.715,12.313,17.636,18.951,24.391,14.824
			c6.756-4.127,6.787-17.453,0.072-29.766c-6.717-12.314-17.637-18.953-24.393-14.826
			C2190.599,1116.869,2190.565,1130.195,2197.282,1142.51z"/>
		<path style="fill:#184655;" d="M2273.226,1009.175c0,0,48.089,81.159,81.107,84.134c33.018,2.977,38.439,46.607,38.439,46.607
			s-14.303-100.49-47.384-119.107C2312.307,1002.192,2273.226,1009.175,2273.226,1009.175z"/>
		<path style="fill:#F7A491;" d="M2346.22,1114.211c-2.311,14.684,3.411,27.955,12.78,29.639
			c9.368,1.684,18.835-8.855,21.146-23.541c2.31-14.684-3.412-27.955-12.78-29.639S2348.529,1099.525,2346.22,1114.211z"/>
		<path style="fill:#FFFFFF;" d="M2265.034,1180.088l42.864-9.76c0,0,2.72,16.504-16.007,21.342
			C2269.059,1197.568,2265.034,1180.088,2265.034,1180.088z"/>
		<path style="fill:#EAB054;" d="M2330.574,1027.781c-109.207-43.798-213.892-43.649-246.019-2.059
			c40.18-31.668,136.386-28.413,236.385,11.693c118.374,47.475,197.232,128.607,176.135,181.213
			c-1.635,4.074-3.823,7.855-6.52,11.348c7.383-5.818,12.878-12.816,16.153-20.982
			C2527.807,1156.389,2448.948,1075.258,2330.574,1027.781z"/>
		<path style="fill:#EAB054;" d="M2330.574,1027.781c45.228,18.139,84.675,41.193,114.994,65.689
			c0.643-5.455,1.003-10.994,1.003-16.623c0-77.799-63.07-140.869-140.869-140.869c-47.304,0-89.149,23.325-114.695,59.091
			C2232.354,997.073,2280.997,1007.898,2330.574,1027.781z"/>
		<path style="fill:#355389;" d="M2214.532,969.492c-8.847,7.523-16.762,16.109-23.525,25.578
			c41.348,2.003,89.99,12.828,139.567,32.711c45.228,18.139,84.675,41.193,114.994,65.689c0.643-5.455,1.003-10.994,1.003-16.623
			c0-3.707-0.146-7.381-0.428-11.018C2375.07,998.291,2271.508,976.487,2214.532,969.492z"/>
		<path style="fill:#184655;" d="M1851.314,1457.264h262.876c6.65,0,13.753,5.393,15.863,12.043l110.85,349.34
			c2.111,6.65-1.569,12.041-8.221,12.041h-262.875c-6.651,0-13.754-5.391-15.864-12.041l-110.85-349.34
			C1840.983,1462.656,1844.664,1457.264,1851.314,1457.264z"/>
		<path style="fill:#FFFFFF;" d="M2021.908,1569.381c2.726,10.408-1.952,20.648-10.448,22.873s-17.594-4.408-20.319-14.814
			c-2.726-10.408,1.952-20.648,10.448-22.875C2010.085,1552.34,2019.182,1558.973,2021.908,1569.381z"/>
		<path style="fill:#F7A491;" d="M1922.814,1754.76c-3.278-6.502-5.844-23.23-7.605-28.908c-0.884-2.848-2.005-6.713-2.799-10.307
			c-1.013-4.578,1.481-9.207,5.838-10.945c6.013-2.396,14.211-5.771,17.066-5.619c4.427,0.238,10.535,9.602,10.007,13.4
			c0,0,0.331,0.99,2.565,1.291c2.233,0.299,6.618,3.604,7.695,6.344c1.076,2.738,0.912,8.148-2.624,9.975
			c0,0-1.508,1.268-1.375,1.969c0.134,0.699,3.215,3.654,4.111,7.24c0.896,3.584-0.682,7.172-6.112,10.254
			c0,0,10.317,9.662-1.238,16.127l-5.303,2.967c-5.502,3.076-12.462,1.027-15.411-4.543
			C1925.843,1760.629,1924.036,1757.182,1922.814,1754.76z"/>
		<path style="fill:#F7A491;" d="M2106.546,1709.834c1.731-1.59,1.424-2.633,1.424-2.633c-2.718-2.936-3.078-14.586,0.566-17.43
			c3.644-2.844,23.322-6.094,25.047-7.377c1.725-1.281,4.659-4,7.498-4.504c2.84-0.504,22.72-10.867,26.742-11.582
			c4.021-0.715,17.906,4.629,26.134,5.609c8.228,0.979,21.265,8.426,24.997,10.203c2.785,1.326,56.833-7.369,70.791-9.438
			c15.152-2.248,26.772-4.904,26.772-4.904s87.97-22.941,180.401-39.977l-24.991-74.9l86.529-20.354
			c10.696,42.867,33.936,109.293,36.882,129.762c5.796,40.266-132.49,51.197-255.097,58.879c0,0-0.005,0-0.006,0.002
			c-13.484,0.844-26.204,1.57-37.818,2.195c-15.751,1.449-41.911,5.998-53.984,8.023l0,0c-7.509,1.92-17.792,4.646-19.021,5.475
			c-1.962,1.326-15.626,5.461-16.81,5.67c-1.183,0.211-5.73,3.459-7.692,4.783s-29.812,5.295-34.307,6.092
			c-4.495,0.799-14.784-0.791-14.784-0.791l-18.706,1.857c-13.736,1.365-10.677-13.051-10.677-13.051
			c-6.482,0.602-9.972-1.525-11.343-5.125c-1.372-3.6-0.5-7.965-0.803-8.643c-0.304-0.68-2.351-0.865-2.351-0.865
			c-4.112,0.547-7.479-3.979-8.192-6.965C2103.034,1716.863,2104.814,1711.422,2106.546,1709.834z"/>
		<g>
			<path style="fill:#EE944C;" d="M1685.086,1497.914c0,0,10.016,38.734,8.708,40.479s10.033,10.469,11.777,13.959
				c0,0-10.032-5.816-14.249-6.252c-4.217-0.438-20.211,7.27-36.642,8.578c0,0,11.051-3.199,16.285-6.979
				c5.234-3.781,11.342-4.363,10.614-4.654c-0.727-0.291-9.015-1.309-17.303,1.018c-8.288,2.328-19.774-0.289-19.774-0.289
				s14.395-1.164,20.355-3.346c5.962-2.18,21.084-1.891,21.084-1.891l-9.166-39.656L1685.086,1497.914z"/>
			<path style="fill:#EE944C;" d="M1635.613,1500.232c0,0-19.553,33.709-20.861,35.455c-1.309,1.744,10.033,10.469,11.778,13.959
				c0,0-10.033-5.816-14.25-6.254c-4.217-0.436-20.211,7.271-36.641,8.58c0,0,11.05-3.199,16.284-6.98
				c5.235-3.779,11.342-4.361,10.615-4.652c-0.728-0.291-9.016-1.309-17.304,1.018c-8.287,2.326-19.774-0.291-19.774-0.291
				s14.394-1.162,20.356-3.344c5.961-2.182,21.083-1.891,21.083-1.891l18.272-36.717L1635.613,1500.232z"/>
			<path style="fill:#933B2C;" d="M1659.094,1485.738c0,0-8.696,19.545-20.582,20.063c-11.885,0.52-14.494,4.867-20.002-2.379
				c-5.508-7.248-15.943-28.408-23.48-36.814C1587.492,1458.199,1653.876,1474.723,1659.094,1485.738z"/>
			<path style="fill:#B75742;" d="M1563.142,1318.766c0,0,13.335,0.869,26.96,22.031c13.624,21.162,20.581,35.076,34.206,36.525
				c13.624,1.449,35.945-6.377,52.179-5.219c16.233,1.16,31.018-4.928,40.005-16.813c8.985-11.885,30.438-23.191,36.814-15.654
				s0,24.061,0,24.061s7.247,0.869,0.87,12.176c-6.378,11.305-8.986,14.203-8.986,14.203s8.406-3.479,3.769,6.379
				c-4.639,9.855-11.306,15.652-11.306,15.652s6.377,0-1.739,11.016c0,0,6.377,7.828-6.378,9.277c0,0,1.159,8.117-3.479,13.625
				c0,0,2.899,15.363-4.638,23.77c-7.537,8.406-27.249,26.09-33.337,30.438c-6.088,4.35-12.175,7.828-20.002,3.77
				s-26.09-25.51-43.482-28.988c-17.394-3.479-38.845-0.58-56.237-25.221c-17.394-24.641-29.858-69.281-20.872-86.096
				C1556.475,1346.885,1528.936,1314.127,1563.142,1318.766z"/>
			<path style="fill:#B75742;" d="M1539.033,1333.549c-0.387-0.047-7.924,1.016-12.706,11.5c0,0,14.155-2.803,17.055-2.754
				c2.898,0.049,0.289-6.426,0-6.57C1543.092,1335.578,1539.033,1333.549,1539.033,1333.549z"/>
			<path style="fill:#F47458;" d="M1539.951,1328.477c0,0,4.252-8.164,11.209-6.328s4.349,9.275,3.672,10.436
				c-0.677,1.158-2.223,4.637,0.193,5.508c2.415,0.869,8.406-5.219,9.373-3.576c0.966,1.643,0.482,13.336-7.054,11.982
				c-7.537-1.354-0.773,2.318-1.45,8.311c-0.676,5.99-2.608,12.174-10.532,6.957c-7.924-5.219-4.059-19.713-4.155-22.998
				s-6.86-1.643-11.209-4.541c-4.348-2.898-4.348-15.848-0.579-19.326s6.957-7.439,10.532-10.725
				c3.575-3.287,3.575-6.088,10.629-4.059s16.33-5.219,20.775,1.063c4.444,6.281,5.895,11.789,0.966,14.881
				c-4.928,3.092-6.996,3.141-6.996,3.141S1548.551,1315.963,1539.951,1328.477z"/>
			<path style="fill:#933B2C;" d="M1587.492,1397.035c0,0,3.624,44.352,27.394,46.67c23.771,2.32,46.527,18.553,61.601,14.785
				c15.074-3.77,25.221-9.131,31.018-29.279c0,0-6.957,19.133-22.9,22.031c-15.944,2.898-36.96-8.842-46.672-9.855
				c-9.711-1.016-22.159-0.227-29.278-5.799C1591.245,1421.965,1589.5,1405.592,1587.492,1397.035z"/>
		</g>
		<path style="fill:#206654;" d="M1238.992,1155.963l-89.352,81.822c0,0,36.065-74.707,68.316-118.816
			C1217.956,1118.969,1234.444,1145.512,1238.992,1155.963z"/>
		<g>
			<path style="opacity:0.5;fill:#FFFFFF;" d="M1847.318,1244.541H626.661c-36.787,0-66.609-29.822-66.609-66.609v-729.65
				c0-36.788,29.822-66.609,66.609-66.609h1220.657c36.787,0,66.608,29.822,66.608,66.609v729.65
				C1913.927,1214.719,1884.105,1244.541,1847.318,1244.541z"/>
			<path style="opacity:0.5;fill:#FFFFFF;" d="M1357.438,944.253c2.521-2.054,4.97-4.198,7.53-6.201
				c0.467-0.366,1.429-0.522,1.97-0.303c3.489,1.419,6.898,3.039,10.396,4.434c1.018,0.406,1.494,0.808,1.583,1.93
				c0.314,3.95,0.735,7.891,1.12,11.835c0.062,0.639,0.147,1.276,0.276,2.386c5.89-0.049,11.713-0.097,17.684-0.147
				c0.468-4.786,0.963-9.13,1.279-13.487c0.111-1.536,0.515-2.27,2.129-2.793c3.298-1.069,6.444-2.598,9.689-3.842
				c0.498-0.191,1.353-0.079,1.768,0.245c3.171,2.471,6.352,4.94,9.364,7.598c1.446,1.275,2.464,1.165,3.699-0.103
				c0.475-0.487,1.125-0.803,1.695-1.197c2.179-2.173,4.357-4.347,6.536-6.52c0.163-0.306,0.282-0.649,0.497-0.913
				c2.251-2.775,2.04-2.173-0.059-4.769c-2.558-3.163-5.169-6.283-7.416-9.007c1.919-4.713,3.711-9.117,5.563-13.666
				c4.836-0.473,9.89-0.967,14.977-1.464c0.956-5.944,0.744-11.737-0.144-17.625c-4.709-0.451-9.3-0.902-13.893-1.319
				c-0.824-0.075-1.279-0.264-1.619-1.197c-1.327-3.65-2.751-7.273-4.326-10.823c-0.453-1.023-0.299-1.546,0.331-2.308
				c2.603-3.144,5.132-6.348,7.721-9.503c0.644-0.784,0.791-1.372,0.115-2.301c-3.033-4.165-6.818-7.523-10.917-10.578
				c-0.811-0.604-1.337-0.286-1.992,0.267c-3.029,2.558-6.12,5.042-9.132,7.619c-0.867,0.743-1.46,0.871-2.594,0.327
				c-3.92-1.878-7.948-3.526-12.256-5.403c-0.43-4.396-0.917-9.384-1.405-14.371c-6.05-0.999-11.908-1.065-17.824-0.038
				c-0.467,5.141-0.921,10.142-1.333,14.671c-3.869,1.734-7.508,3.252-11.032,5c-1.332,0.661-2.166,0.597-3.276-0.36
				c-2.957-2.549-6.013-4.983-9.055-7.432c-0.601-0.484-1.233-1.271-2.12-0.372c-3.609,3.655-7.222,7.306-10.829,10.961
				c-0.767,0.777-0.632,1.455,0.069,2.277c2.611,3.06,5.089,6.235,7.75,9.249c1.026,1.163,0.821,2.018,0.249,3.275
				c-1.413,3.104-2.771,6.255-3.829,9.492c-0.457,1.395-0.978,1.799-2.371,1.896c-4.474,0.311-8.937,0.798-13.31,1.208
				c-1.05,3.482-0.943,13.864,0.148,17.923c4.543,0.396,9.133,0.843,13.732,1.162c1.15,0.08,1.517,0.539,1.916,1.558
				c1.288,3.288,2.808,6.485,4.129,9.761c0.222,0.551,0.146,1.511-0.204,1.957c-2.23,2.835-4.56,5.594-6.889,8.351
				c-1.302,1.542-1.833,2.159-1.583,2.977l11.569,11.599C1354.636,946.525,1355.399,945.915,1357.438,944.253z M1370.618,918.117
				c-10.341-10.367-10.319-27.154,0.048-37.495l0,0c10.367-10.341,27.154-10.319,37.495,0.048v0
				c10.34,10.367,10.318,27.154-0.049,37.494l0,0C1397.745,928.505,1380.959,928.484,1370.618,918.117L1370.618,918.117z"/>
			<path style="opacity:0.5;fill:#FFFFFF;" d="M1417.224,827.576c1.486-1.211,2.931-2.475,4.44-3.656
				c0.275-0.216,0.843-0.308,1.162-0.179c2.057,0.837,4.066,1.792,6.129,2.614c0.601,0.239,0.882,0.476,0.934,1.138
				c0.186,2.329,0.434,4.653,0.66,6.979c0.037,0.377,0.087,0.753,0.164,1.407c3.473-0.029,6.906-0.058,10.427-0.087
				c0.275-2.822,0.568-5.384,0.755-7.953c0.065-0.906,0.304-1.339,1.255-1.648c1.944-0.63,3.801-1.532,5.714-2.265
				c0.294-0.113,0.798-0.046,1.042,0.144c1.87,1.457,3.746,2.914,5.522,4.48c0.853,0.752,1.453,0.687,2.181-0.061
				c0.28-0.287,0.664-0.474,1-0.706c1.285-1.281,2.569-2.563,3.854-3.844c0.096-0.181,0.166-0.383,0.293-0.539
				c1.327-1.636,1.203-1.281-0.035-2.812c-1.508-1.865-3.048-3.705-4.372-5.311c1.131-2.779,2.188-5.376,3.279-8.059
				c2.852-0.278,5.832-0.57,8.831-0.863c0.565-3.505,0.438-6.921-0.084-10.393c-2.777-0.266-5.483-0.532-8.192-0.778
				c-0.486-0.044-0.755-0.156-0.955-0.706c-0.782-2.153-1.622-4.289-2.551-6.382c-0.268-0.603-0.176-0.912,0.195-1.361
				c1.534-1.854,3.025-3.744,4.553-5.604c0.379-0.462,0.467-0.81,0.068-1.357c-1.789-2.456-4.021-4.436-6.438-6.237
				c-0.479-0.356-0.789-0.168-1.175,0.157c-1.786,1.508-3.609,2.973-5.385,4.493c-0.512,0.438-0.861,0.514-1.53,0.193
				c-2.311-1.107-4.687-2.08-7.227-3.186c-0.254-2.592-0.541-5.534-0.828-8.474c-3.567-0.589-7.022-0.628-10.511-0.022
				c-0.275,3.031-0.543,5.98-0.786,8.651c-2.281,1.023-4.427,1.918-6.505,2.949c-0.786,0.39-1.278,0.352-1.933-0.212
				c-1.743-1.503-3.546-2.938-5.339-4.382c-0.354-0.286-0.728-0.75-1.251-0.22c-2.127,2.155-4.258,4.308-6.385,6.464
				c-0.452,0.458-0.373,0.857,0.041,1.342c1.539,1.804,3,3.677,4.569,5.454c0.605,0.686,0.484,1.19,0.147,1.931
				c-0.834,1.831-1.634,3.688-2.258,5.597c-0.27,0.823-0.577,1.061-1.398,1.118c-2.639,0.184-5.27,0.471-7.849,0.712
				c-0.619,2.053-0.557,8.175,0.088,10.569c2.679,0.233,5.386,0.497,8.098,0.685c0.679,0.047,0.894,0.318,1.129,0.919
				c0.76,1.939,1.656,3.824,2.436,5.756c0.131,0.325,0.086,0.891-0.121,1.154c-1.314,1.672-2.688,3.299-4.062,4.924
				c-0.768,0.909-1.081,1.273-0.934,1.755l6.822,6.839C1415.571,828.916,1416.021,828.556,1417.224,827.576z M1424.995,812.164
				c-6.098-6.113-6.084-16.012,0.028-22.109l0,0c6.113-6.098,16.013-6.084,22.109,0.029h0.001
				c6.097,6.113,6.084,16.012-0.029,22.109l0,0C1440.991,818.29,1431.093,818.277,1424.995,812.164L1424.995,812.164z"/>
			<g>
				<rect x="1619.743" y="935.979" style="opacity:0.3;fill:#FFFFFF;" width="53.315" height="275.464"/>
				<rect x="1545.286" y="1018.448" style="opacity:0.3;fill:#FFFFFF;" width="53.315" height="191.442"/>
				<rect x="1695.272" y="995.661" style="opacity:0.3;fill:#FFFFFF;" width="53.315" height="215.782"/>
				<rect x="1470.828" y="985.622" style="opacity:0.3;fill:#FFFFFF;" width="53.315" height="224.269"/>
				<rect x="1396.371" y="1052.115" style="opacity:0.3;fill:#FFFFFF;" width="53.315" height="157.775"/>
				<g style="opacity:0.5;">
					<rect x="1619.743" y="997.913" style="fill:#FFFFFF;" width="53.315" height="213.531"/>
					<rect x="1545.286" y="1062.57" style="fill:#FFFFFF;" width="53.315" height="147.32"/>
					<rect x="1695.272" y="1043.84" style="fill:#FFFFFF;" width="53.315" height="167.604"/>
					<rect x="1470.828" y="1037.309" style="fill:#FFFFFF;" width="53.315" height="172.582"/>
					<rect x="1396.371" y="1088.479" style="fill:#FFFFFF;" width="53.315" height="121.412"/>
				</g>
				<g>
					<g>
						<polygon style="fill:#FFFFFF;" points="1382.902,1215.814 1370.792,1211.625 1404.896,1167.695 1424.568,1178.342 
							1464.473,1127.588 1513.958,1163.432 1603.739,1031.828 1654.036,1085.48 1745.334,990.731 1756.801,995.661 
							1653.87,1102.465 1605.637,1051.016 1517.855,1179.688 1467.558,1143.256 1428.909,1192.412 1409.306,1181.803 						"/>
					</g>
					<g>
						<g>
							<polygon style="fill:#FFFFFF;" points="1754.269,1015.002 1741.931,1002.882 1720.298,1000.396 1763.219,980.822 							"/>
						</g>
					</g>
				</g>
			</g>
			<path style="opacity:0.3;fill:#FFFFFF;" d="M1303.136,824.031c-9.958-0.489-19.914-0.324-29.84,0.899
				c-64.543,7.955-119.874,58.955-166.091,114.386c-9.989,11.98-20.78,24.929-34.657,27.37c-16.752,2.947-32.359-10.35-44.841-24.27
				c-21.81-24.324-45.429-55.149-74.802-50.936c-21.007,3.013-36.93,23.447-52.323,41.113
				c-15.393,17.666-35.427,34.729-56.01,28.791c-18.338-5.291-31.931-23.55-47.008-37.317
				c-33.958-31.007-73.193-2.124-97.058,26.002v43.807h602.629V824.031z"/>
			<rect x="730.616" y="796.1" style="opacity:0.5;fill:#FFFFFF;" width="42.979" height="6.06"/>
			<rect x="730.616" y="809.908" style="opacity:0.5;fill:#FFFFFF;" width="39.473" height="6.059"/>
			
				<rect x="1010.214" y="764.106" transform="matrix(-1 -1.224647e-16 1.224647e-16 -1 2054.4722 1534.2705)" style="opacity:0.5;fill:#FFFFFF;" width="34.043" height="6.06"/>
			
				<rect x="1001.279" y="777.913" transform="matrix(-1 -1.224647e-16 1.224647e-16 -1 2045.5371 1561.8857)" style="opacity:0.5;fill:#FFFFFF;" width="42.979" height="6.06"/>
			<rect x="1172.617" y="727.285" style="opacity:0.5;fill:#FFFFFF;" width="42.979" height="6.06"/>
			<rect x="1186.641" y="741.093" style="opacity:0.5;fill:#FFFFFF;" width="28.954" height="6.059"/>
			<g>
				<polygon style="opacity:0.5;fill:#FFFFFF;" points="791.128,847.136 776.072,816.444 776.728,815.967 791.784,846.66 				"/>
			</g>
			<g>
				<polygon style="opacity:0.5;fill:#FFFFFF;" points="982.004,815.141 997.061,784.449 996.405,783.973 981.349,814.665 				"/>
			</g>
			<g>
				<polygon style="opacity:0.5;fill:#FFFFFF;" points="1170.568,781.846 1185.625,751.154 1184.969,750.678 1169.913,781.37 				
					"/>
			</g>
			<g>
				<rect x="1064.174" y="584.194" style="opacity:0.3;fill:#FFFFFF;" width="176.23" height="22.427"/>
				<rect x="1064.174" y="617.486" style="opacity:0.3;fill:#FFFFFF;" width="176.23" height="22.427"/>
				<rect x="1064.174" y="650.778" style="opacity:0.3;fill:#FFFFFF;" width="176.23" height="22.427"/>
				<rect x="1064.174" y="584.194" style="opacity:0.5;fill:#FFFFFF;" width="33.312" height="22.427"/>
				<rect x="1064.174" y="617.486" style="opacity:0.5;fill:#FFFFFF;" width="81.711" height="22.427"/>
				<rect x="1064.174" y="650.778" style="opacity:0.5;fill:#FFFFFF;" width="39.226" height="22.427"/>
			</g>
			
				<ellipse transform="matrix(0.1602 -0.9871 0.9871 0.1602 523.7343 1834.1697)" style="opacity:0.3;fill:#FFFFFF;" cx="1339.771" cy="609.297" rx="63.909" ry="63.909"/>
			<g>
				<path style="opacity:0.5;fill:#FFFFFF;" d="M1498.354,545.599c-32.969,2.54-58.936,30.077-58.936,63.697
					c0,33.621,25.967,61.157,58.936,63.698V545.599z"/>
				<path style="opacity:0.3;fill:#FFFFFF;" d="M1508.302,545.599v127.396c32.969-2.541,58.935-30.078,58.935-63.698
					C1567.236,575.676,1541.271,548.14,1508.302,545.599z"/>
			</g>
			<g>
				<path style="opacity:0.5;fill:#FFFFFF;" d="M1662.886,545.525c-33.432,2.066-59.91,29.82-59.91,63.771
					c0,33.952,26.479,61.706,59.91,63.772V545.525z"/>
				<path style="fill:#FFFFFF;" d="M1670.884,608.172l51.852-29.937c-10.308-18.493-29.524-31.33-51.852-32.71V608.172z"/>
				<path style="opacity:0.3;fill:#FFFFFF;" d="M1670.884,617.407v55.662c33.431-2.066,59.909-29.82,59.909-63.772
					c0-8.422-1.644-16.456-4.604-23.819L1670.884,617.407z"/>
			</g>
			<g>
				<rect x="1507.713" y="746.889" style="opacity:0.5;fill:#FFFFFF;" width="250.436" height="15.638"/>
				<rect x="1507.713" y="774.848" style="opacity:0.5;fill:#FFFFFF;" width="250.436" height="3.828"/>
				<rect x="1507.713" y="789.521" style="opacity:0.5;fill:#FFFFFF;" width="250.436" height="3.828"/>
				<rect x="1507.713" y="804.193" style="opacity:0.5;fill:#FFFFFF;" width="250.436" height="3.828"/>
				<rect x="1507.713" y="818.866" style="opacity:0.5;fill:#FFFFFF;" width="250.436" height="3.828"/>
				<rect x="1507.713" y="833.539" style="opacity:0.5;fill:#FFFFFF;" width="250.436" height="3.828"/>
				<rect x="1507.713" y="848.211" style="opacity:0.5;fill:#FFFFFF;" width="250.436" height="3.828"/>
				<rect x="1507.713" y="862.884" style="opacity:0.5;fill:#FFFFFF;" width="250.436" height="3.828"/>
				<rect x="1507.713" y="877.557" style="opacity:0.5;fill:#FFFFFF;" width="250.436" height="3.828"/>
				<rect x="1507.713" y="892.229" style="opacity:0.5;fill:#FFFFFF;" width="250.436" height="3.828"/>
				<rect x="1507.713" y="906.902" style="opacity:0.5;fill:#FFFFFF;" width="250.436" height="3.828"/>
			</g>
			<rect x="1715.206" y="501.609" style="opacity:0.5;fill:#FFFFFF;" width="48.013" height="5.56"/>
			<rect x="1554.963" y="698.375" style="opacity:0.5;fill:#FFFFFF;" width="48.013" height="5.56"/>
			<rect x="1554.963" y="687.752" style="opacity:0.5;fill:#FFFFFF;" width="24.006" height="5.56"/>
			<rect x="1573.111" y="516.809" style="opacity:0.5;fill:#FFFFFF;" width="48.013" height="5.56"/>
			<rect x="1573.111" y="506.186" style="opacity:0.5;fill:#FFFFFF;" width="24.007" height="5.56"/>
			<rect x="1730.873" y="514.277" style="opacity:0.5;fill:#FFFFFF;" width="32.346" height="5.559"/>
			<g>
				
					<rect x="1704.562" y="536.943" transform="matrix(0.5128 -0.8585 0.8585 0.5128 377.1363 1739.2876)" style="opacity:0.5;fill:#FFFFFF;" width="32.8" height="0.853"/>
			</g>
			<g>
				
					<rect x="1589.494" y="680.445" transform="matrix(0.5128 -0.8585 0.8585 0.5128 197.8474 1710.3795)" style="opacity:0.5;fill:#FFFFFF;" width="32.8" height="0.853"/>
			</g>
			<g>
				<rect x="1403.681" y="703.685" style="opacity:0.5;fill:#FFFFFF;" width="48.013" height="5.56"/>
				<rect x="1403.681" y="693.063" style="opacity:0.5;fill:#FFFFFF;" width="24.006" height="5.56"/>
				<g>
					
						<rect x="1431.795" y="686.429" transform="matrix(0.5128 -0.8585 0.8585 0.5128 115.9107 1577.9552)" style="opacity:0.5;fill:#FFFFFF;" width="32.8" height="0.853"/>
				</g>
			</g>
			<g>
				
					<rect x="1541.79" y="530.874" transform="matrix(0.5128 -0.8585 0.8585 0.5128 303.0202 1596.5635)" style="opacity:0.5;fill:#FFFFFF;" width="32.8" height="0.853"/>
			</g>
			<rect x="1405.496" y="516.809" style="opacity:0.5;fill:#FFFFFF;" width="48.013" height="5.56"/>
			<rect x="1405.496" y="506.186" style="opacity:0.5;fill:#FFFFFF;" width="24.006" height="5.56"/>
			<rect x="1405.496" y="528.521" style="opacity:0.5;fill:#FFFFFF;" width="34.563" height="5.56"/>
			<g>
				
					<rect x="1374.174" y="530.874" transform="matrix(0.5128 -0.8585 0.8585 0.5128 221.3585 1452.6647)" style="opacity:0.5;fill:#FFFFFF;" width="32.801" height="0.853"/>
			</g>
			<g style="opacity:0.5;">
				<rect x="724.611" y="1082.363" style="fill:#FFFFFF;" width="14.002" height="80.154"/>
				<rect x="749.835" y="1092.383" style="fill:#FFFFFF;" width="14.002" height="60.115"/>
				<rect x="775.059" y="1082.363" style="fill:#FFFFFF;" width="14.002" height="80.154"/>
				<rect x="800.283" y="1045.449" style="opacity:0.3;fill:#FFFFFF;" width="14.002" height="151.52"/>
				<rect x="825.507" y="1067.07" style="fill:#FFFFFF;" width="14.002" height="110.74"/>
				<rect x="1053.469" y="1045.449" style="opacity:0.3;fill:#FFFFFF;" width="14.001" height="151.52"/>
				<rect x="1078.693" y="1074.98" style="fill:#FFFFFF;" width="14.001" height="94.92"/>
				<rect x="1102.167" y="1100.293" style="fill:#FFFFFF;" width="14.002" height="44.295"/>
				<rect x="1124.884" y="1087.109" style="fill:#FFFFFF;" width="14.002" height="70.662"/>
				<rect x="1148.095" y="1049.861" style="opacity:0.3;fill:#FFFFFF;" width="14.002" height="145.156"/>
				<rect x="1172.028" y="1092.383" style="fill:#FFFFFF;" width="14.002" height="60.115"/>
				<rect x="1196.817" y="1074.98" style="fill:#FFFFFF;" width="14.002" height="94.92"/>
				<rect x="1219.895" y="1045.449" style="opacity:0.3;fill:#FFFFFF;" width="14.002" height="153.98"/>
				<rect x="1242.58" y="1074.98" style="fill:#FFFFFF;" width="14.002" height="90.174"/>
				<rect x="1266.251" y="1097.012" style="fill:#FFFFFF;" width="14.002" height="46.111"/>
				<rect x="1289.134" y="1106.443" style="fill:#FFFFFF;" width="14.002" height="27.248"/>
				<rect x="700.506" y="1100.293" style="fill:#FFFFFF;" width="14.002" height="39.549"/>
				<rect x="950.186" y="1045.449" style="opacity:0.3;fill:#FFFFFF;" width="14.002" height="151.52"/>
				<rect x="975.409" y="1067.07" style="fill:#FFFFFF;" width="14.002" height="110.74"/>
				<rect x="850.731" y="1092.383" style="fill:#FFFFFF;" width="14.001" height="60.115"/>
				<rect x="875.955" y="1100.293" style="fill:#FFFFFF;" width="14.002" height="44.295"/>
				<rect x="1002.692" y="1092.383" style="fill:#FFFFFF;" width="14.002" height="60.115"/>
				<rect x="1027.917" y="1074.98" style="fill:#FFFFFF;" width="14.002" height="94.92"/>
				<rect x="901.179" y="1087.109" style="fill:#FFFFFF;" width="14.002" height="70.662"/>
				<rect x="926.403" y="1074.98" style="fill:#FFFFFF;" width="14.002" height="94.92"/>
			</g>
			<g style="opacity:0.5;">
				<path style="fill:#FFFFFF;" d="M636.492,525.482l15.072-4.049c0.45,3.675,1.5,6.515,3.15,8.521
					c1.649,2.006,3.749,3.009,6.299,3.009c2.25,0,4.077-0.806,5.483-2.418c1.406-1.612,2.109-3.73,2.109-6.355
					c0-2.475-0.722-4.817-2.165-7.03c-1.444-2.211-4.753-5.511-9.927-9.898c-7.124-6.036-11.942-11.107-14.454-15.213
					c-2.512-4.105-3.768-8.52-3.768-13.245c0-6.861,2.109-12.391,6.327-16.591c4.218-4.199,9.758-6.299,16.619-6.299
					c6.561,0,11.839,1.641,15.832,4.921c3.993,3.281,6.589,8.126,7.789,14.538l-13.947,4.837c-0.413-3.562-1.341-6.261-2.784-8.099
					c-1.443-1.836-3.346-2.755-5.708-2.755c-2.212,0-4.003,0.731-5.371,2.193c-1.369,1.462-2.053,3.394-2.053,5.793
					c0,4.199,3.73,9.373,11.191,15.522c1.8,1.5,3.187,2.643,4.162,3.431c5.361,4.688,9.139,8.999,11.333,12.935
					c2.193,3.938,3.29,8.268,3.29,12.992c0,7.725-2.203,13.845-6.608,18.363c-4.406,4.519-10.377,6.777-17.913,6.777
					c-6.636,0-12.045-1.921-16.225-5.764C640.044,537.753,637.466,532.382,636.492,525.482z"/>
				<path style="fill:#FFFFFF;" d="M694.757,545.617v-88.016h19.234l9.336,41.505c0.9,3.787,1.611,7.18,2.137,10.179
					c0.524,3,0.956,5.962,1.293,8.886l0.844,0.057c0.524-3.711,1.068-7.096,1.631-10.152c0.563-3.055,1.125-5.707,1.687-7.957
					l10.742-42.518h18.841v88.016h-15.748l0.225-30.201c0.037-5.699,0.309-11.96,0.815-18.784
					c0.506-6.823,1.228-14.229,2.165-22.215h-1.012c-1.124,6.187-2.128,11.53-3.009,16.029c-0.881,4.498-1.566,7.799-2.053,9.898
					l-8.099,34.081h-13.216l-8.324-36.05c-0.825-3.412-1.622-7.066-2.39-10.967c-0.768-3.899-1.547-8.23-2.334-12.991h-1.013
					c0.937,8.586,1.668,16.385,2.193,23.396c0.525,7.011,0.825,12.879,0.9,17.603l0.563,30.201H694.757z"/>
				<path style="fill:#FFFFFF;" d="M768.938,545.617l19.965-88.016h18.391l19.459,88.016h-17.94l-2.418-14.285h-17.491
					l-2.924,14.285H768.938z M791.434,517.946h12.429l-4.049-27.726c-0.3-2.25-0.59-5.08-0.872-8.492
					c-0.281-3.411-0.516-7.217-0.703-11.417h-1.068c-0.375,4.987-0.731,9.355-1.068,13.104c-0.338,3.75-0.601,6.13-0.788,7.142
					L791.434,517.946z"/>
				<path style="fill:#FFFFFF;" d="M836.201,545.617v-88.016h21.203c9.26,0,16.262,2.081,21.005,6.243
					c4.743,4.162,7.115,10.311,7.115,18.446c0,5.625-1.238,10.358-3.712,14.201c-2.475,3.843-6,6.515-10.573,8.014l15.859,41.112
					h-17.715l-14.848-41.449h-1.631v41.449H836.201z M852.905,495.282c0.225,0,0.553,0.02,0.984,0.056
					c0.431,0.038,0.759,0.057,0.984,0.057c4.349,0,7.724-1.097,10.123-3.29c2.399-2.193,3.599-5.277,3.599-9.251
					s-1.181-6.983-3.543-9.027c-2.362-2.043-5.831-3.065-10.404-3.065h-1.744V495.282z"/>
				<path style="fill:#FFFFFF;" d="M905.321,545.617v-73.282H891.88v-14.734h44.092v14.734h-13.61v73.282H905.321z"/>
			</g>
			<g style="opacity:0.5;">
				<path style="fill:#FFFFFF;" d="M642.116,666.342v-88.016h36.95v13.835h-19.909v21.09h19.909v13.61h-19.909v39.481H642.116z"/>
				<path style="fill:#FFFFFF;" d="M682.946,666.342l19.965-88.016h18.391l19.459,88.016h-17.94l-2.418-14.285h-17.491
					l-2.924,14.285H682.946z M705.442,638.671h12.429l-4.049-27.726c-0.3-2.25-0.59-5.081-0.872-8.492
					c-0.281-3.412-0.516-7.217-0.703-11.418h-1.068c-0.375,4.987-0.731,9.355-1.069,13.104c-0.337,3.75-0.6,6.13-0.787,7.143
					L705.442,638.671z"/>
				<path style="fill:#FFFFFF;" d="M750.21,666.342v-88.016h21.203c9.26,0,16.262,2.081,21.006,6.243
					c4.743,4.162,7.114,10.311,7.114,18.447c0,5.624-1.237,10.358-3.712,14.201c-2.475,3.843-5.999,6.515-10.573,8.015l15.86,41.111
					h-17.716l-14.847-41.449h-1.631v41.449H750.21z M766.914,616.007c0.225,0,0.552,0.02,0.984,0.056
					c0.431,0.038,0.76,0.057,0.984,0.057c4.349,0,7.723-1.097,10.123-3.29c2.399-2.193,3.599-5.277,3.599-9.251
					c0-3.974-1.181-6.982-3.543-9.027c-2.362-2.043-5.831-3.065-10.404-3.065h-1.744V616.007z"/>
				<path style="fill:#FFFFFF;" d="M811.737,666.342v-88.016h19.234l9.336,41.505c0.9,3.787,1.611,7.18,2.137,10.179
					c0.524,3,0.956,5.962,1.293,8.886l0.844,0.056c0.524-3.711,1.068-7.095,1.631-10.152c0.563-3.055,1.125-5.707,1.688-7.957
					l10.742-42.518h18.84v88.016h-15.747l0.225-30.201c0.037-5.699,0.309-11.96,0.815-18.784c0.506-6.823,1.228-14.229,2.166-22.215
					h-1.012c-1.125,6.187-2.128,11.53-3.009,16.029c-0.881,4.498-1.566,7.798-2.053,9.898l-8.099,34.082h-13.216l-8.324-36.05
					c-0.825-3.411-1.623-7.066-2.391-10.967c-0.768-3.899-1.546-8.229-2.334-12.992h-1.012c0.937,8.587,1.668,16.386,2.193,23.396
					c0.525,7.012,0.824,12.879,0.9,17.603l0.562,30.201H811.737z"/>
				<path style="fill:#FFFFFF;" d="M909.426,666.342h-17.041v-88.016h17.041V666.342z"/>
				<path style="fill:#FFFFFF;" d="M924.049,666.342v-88.016h17.041l11.642,41.955c0.599,2.063,1.518,5.728,2.756,10.995
					c1.237,5.268,2.7,11.82,4.387,19.656h1.125c-1.388-10.686-2.475-20.133-3.262-28.345c-0.788-8.211-1.181-14.322-1.181-18.334
					v-25.927h15.41v88.016h-16.704l-11.304-39.2c-0.15-0.563-0.413-1.499-0.788-2.811c-3.187-10.911-5.455-20.434-6.805-28.57
					h-1.012c1.35,10.573,2.38,20.021,3.093,28.345c0.712,8.323,1.069,15.261,1.069,20.809v21.427H924.049z"/>
				<path style="fill:#FFFFFF;" d="M1009.422,627.424v-13.948h27.276v18.672c0,11.624-2.287,20.519-6.861,26.687
					c-4.575,6.168-11.155,9.251-19.74,9.251c-8.773,0-15.289-3.711-19.544-11.135c-4.255-7.424-6.383-18.803-6.383-34.138
					c0-15.897,2.23-27.586,6.692-35.066c4.462-7.48,11.397-11.22,20.809-11.22c6.111,0,11.023,1.482,14.735,4.443
					c3.712,2.962,6.524,7.612,8.436,13.947l-15.185,5.287c-0.712-3.262-1.734-5.643-3.064-7.143c-1.332-1.499-3.085-2.25-5.259-2.25
					c-3.487,0-5.953,2.288-7.396,6.862c-1.444,4.575-2.166,12.954-2.166,25.139c0,11.774,0.693,19.863,2.081,24.268
					c1.387,4.406,3.768,6.608,7.143,6.608c2.774,0,4.911-1.583,6.411-4.753c1.5-3.168,2.25-7.696,2.25-13.582v-7.929H1009.422z"/>
			</g>
			<g>
				<path style="fill:#FFFFFF;" d="M1844.657,1256.5H629.322c-44.79,0-81.229-36.439-81.229-81.229v-724.33
					c0-44.789,36.439-81.229,81.229-81.229h1215.335c44.79,0,81.229,36.44,81.229,81.229v724.33
					C1925.887,1220.061,1889.447,1256.5,1844.657,1256.5z M629.322,393.631c-31.601,0-57.311,25.709-57.311,57.31v724.33
					c0,31.602,25.71,57.311,57.311,57.311h1215.335c31.602,0,57.311-25.709,57.311-57.311v-724.33
					c0-31.601-25.709-57.31-57.311-57.31H629.322z"/>
			</g>
			<path style="opacity:0.5;fill:#FFFFFF;" d="M1273.296,756.472c-64.543,7.955-119.874,58.955-166.091,114.386
				c-9.989,11.98-20.78,24.929-34.657,27.37c-16.752,2.947-32.359-10.35-44.841-24.271c-21.81-24.323-45.429-55.149-74.802-50.936
				c-21.007,3.014-36.93,23.447-52.323,41.113c-15.393,17.665-35.427,34.729-56.01,28.79c-18.338-5.29-31.931-23.549-47.008-37.316
				c-33.958-31.007-73.193-2.123-97.058,26.002v68.458c23.864-28.125,63.1-57.009,97.058-26.002
				c15.077,13.767,28.67,32.026,47.008,37.316c20.583,5.938,40.617-11.125,56.01-28.791c15.393-17.665,31.315-38.1,52.323-41.113
				c29.373-4.213,52.992,26.612,74.802,50.936c12.482,13.92,28.088,27.218,44.841,24.27c13.877-2.441,24.668-15.39,34.657-27.371
				c46.217-55.43,101.548-106.431,166.091-114.385c9.926-1.224,19.882-1.389,29.84-0.899v-68.459
				C1293.178,755.083,1283.222,755.248,1273.296,756.472z"/>
		</g>
		<polygon style="fill:#FFFFFF;" points="1809.744,1239.848 1896.873,1394.334 1886.677,1231.668 		"/>
	</g>
	<path style="opacity:0.5;fill:#FFFFFF;" d="M1257.011,309.221c-4.015-17.475-19.653-30.512-38.346-30.512
		c-3.432,0-6.76,0.441-9.934,1.267c-9.226-19.73-29.249-33.4-52.467-33.4c-6.003,0-11.792,0.914-17.237,2.609
		c-12.5-20.698-35.208-34.538-61.151-34.538c-30.865,0-57.154,19.59-67.115,47.014c-7.051-3.931-15.168-6.18-23.814-6.18
		c-27.055,0-48.986,21.932-48.986,48.987c0,1.604,0.083,3.188,0.233,4.753H1257.011z"/>
	<path style="opacity:0.5;fill:#FFFFFF;" d="M364.792,732.016c1.933-8.415,9.463-14.693,18.465-14.693
		c1.653,0,3.255,0.213,4.784,0.61c4.443-9.501,14.085-16.085,25.266-16.085c2.891,0,5.679,0.44,8.301,1.257
		c6.019-9.967,16.955-16.632,29.447-16.632c14.864,0,27.523,9.434,32.32,22.64c3.395-1.893,7.304-2.976,11.468-2.976
		c13.028,0,23.59,10.562,23.59,23.59c0,0.772-0.04,1.535-0.112,2.289H364.792z"/>
	<path style="opacity:0.5;fill:#FFFFFF;" d="M1493.756,242.632c-2.376-10.342-11.63-18.057-22.692-18.057
		c-2.031,0-4.001,0.261-5.879,0.75c-5.46-11.676-17.309-19.767-31.05-19.767c-3.553,0-6.979,0.541-10.2,1.544
		c-7.397-12.249-20.836-20.439-36.189-20.439c-18.266,0-33.823,11.593-39.718,27.822c-4.173-2.326-8.977-3.657-14.093-3.657
		c-16.01,0-28.99,12.98-28.99,28.99c0,0.949,0.049,1.887,0.138,2.813H1493.756z"/>
	<path style="opacity:0.5;fill:#FFFFFF;" d="M489.985,868.592c-3.208-13.966-15.707-24.386-30.647-24.386
		c-2.743,0-5.403,0.353-7.939,1.012c-7.374-15.768-23.376-26.694-41.932-26.694c-4.798,0-9.425,0.73-13.776,2.086
		c-9.99-16.542-28.139-27.603-48.872-27.603c-24.668,0-45.678,15.656-53.639,37.574c-5.635-3.142-12.123-4.939-19.033-4.939
		c-21.622,0-39.15,17.528-39.15,39.151c0,1.282,0.066,2.548,0.186,3.799H489.985z"/>
</g>
</svg>
